<?xml version="1.0" encoding="utf-8"?>
<!-- Generator: Adobe Illustrator 22.0.1, SVG Export Plug-In . SVG Version: 6.00 Build 0)  -->
<svg version="1.1" id="Layer_1" xmlns="http://www.w3.org/2000/svg" xmlns:xlink="http://www.w3.org/1999/xlink" x="0px" y="0px"
	 viewBox="0 0 432 288" style="enable-background:new 0 0 432 288;" xml:space="preserve">
<style type="text/css">
	.st0{fill:#CB597C;}
	.st1{fill:#FFFFFF;}
</style>
<g>
	<g>
		<rect x="37" y="18.6" class="st0" width="359.1" height="244.1"/>
		<g>
			<g>
				<g>
					<path class="st1" d="M97.7,50.3c-1.3-0.7-2.9-1.2-4.7-1.4c-1.8-0.3-3.5-0.4-5.2-0.4c-2.8,0-5.6,0.3-8.1,1
						c-2.6,0.7-4.8,1.6-6.7,2.8c-1.9,1.2-3.4,2.6-4.4,4.3c-1,1.7-1.4,3.5-1.2,5.6c0.1,0.4,0.2,0.9,0.3,1.3c0.1,0.4,0.2,0.8,0.4,1.1
						c0,0,0,0.1,0,0.1c0,0,0,0.1,0,0.1c0,0.6-0.1,1-0.5,1.4c-0.3,0.3-0.7,0.5-1.2,0.6c-0.4,0.1-0.9-0.1-1.3-0.4
						c-0.4-0.3-0.7-0.9-0.8-1.7c0-0.3-0.1-0.6-0.1-0.9c0-0.3,0-0.6,0-0.9c0-2.6,0.5-5,1.7-7.1c1.2-2.1,2.9-3.9,5.1-5.4
						c2.3-1.5,5-2.6,8.4-3.4c3.3-0.8,7.1-1.2,11.4-1.2c0.4,0,0.9,0.1,1.5,0.1c0.6,0.1,1.3,0.1,2,0.2c0.7,0.1,1.4,0.2,2.1,0.3
						c0.7,0.1,1.3,0.3,1.9,0.4c1.4,0.4,2.5,0.9,3.3,1.2c0.8,0.4,1.3,0.8,1.6,1.3c0.3,0.5,0.4,1.1,0.4,1.8c0,0.7-0.2,1.5-0.4,2.6
						c-0.4,1.8-0.8,3.9-1.2,6.2c-0.4,2.3-0.8,4.7-1.2,7.1c-0.4,2.4-0.7,4.7-1.1,7c-0.3,2.3-0.7,4.3-0.9,6.1c-0.2,1.4,0,2.4,0.6,3
						c0.6,0.6,1.4,0.9,2.4,0.9c1.1,0,2.2-0.5,3.2-1.4c1-0.9,1.9-2.1,2.6-3.6c0.1-0.1,0.2-0.3,0.3-0.4c0.1-0.1,0.2-0.2,0.3-0.3
						c0.2-0.1,0.3-0.2,0.5-0.2c0.2,0,0.3,0.2,0.3,0.5c-0.2,0.9-0.5,1.8-1.1,2.8c-0.5,1-1.2,1.9-2,2.7c-0.8,0.8-1.7,1.5-2.8,2
						c-1,0.5-2.1,0.7-3.3,0.7c-1,0-1.7-0.2-2.4-0.7c-0.6-0.4-1.1-1-1.4-1.7c-0.3-0.7-0.6-1.5-0.7-2.4c-0.1-0.9-0.1-1.8,0-2.8
						c-1.1-0.3-2.1-0.6-3.1-0.9c-1-0.3-2.1-0.6-3.1-0.9c-1-0.3-2.1-0.5-3.2-0.7c-1.1-0.2-2.2-0.3-3.4-0.4l-3.8,4.8
						c-0.5,0.7-1.2,1.4-1.8,2.2c-0.7,0.8-1.3,1.5-2,2.2c-0.6,0.7-1.2,1.3-1.8,1.9c-0.6,0.5-1.1,0.8-1.5,1c-0.2,0-0.4-0.1-0.6-0.3
						c-0.2-0.2-0.4-0.4-0.6-0.7c-0.2-0.3-0.4-0.6-0.5-0.9c-0.1-0.3-0.2-0.7-0.3-1c-0.1-0.8,0-1.3,0.2-1.6c1.4-0.9,2.7-2,3.9-3.3
						c1.2-1.4,2.6-2.9,4.1-4.7c-0.2,0-0.5,0-1,0c-0.5,0-0.9,0.1-1.4,0.1c-0.5,0-0.9,0-1.3,0c-0.4,0-0.6-0.1-0.6-0.3
						c-0.1-0.7,0-1.3,0.4-1.8c0.4-0.5,0.9-0.9,1.4-1.2c0.6-0.3,1.2-0.4,1.9-0.5c0.7-0.1,1.3,0,1.9,0.1c0.3,0.1,0.5,0.1,0.7,0.2
						c0.2,0,0.5,0.1,0.7,0.2c0.7-0.8,1.5-1.8,2.4-3C84,68,85,66.8,86,65.4c1-1.4,2.1-2.7,3.2-4.2c1.1-1.4,2.1-2.8,3.2-4.2
						c1-1.4,2-2.6,2.9-3.8C96.2,52.2,97,51.2,97.7,50.3z M99.5,53c-2.3,3.2-4.7,6.5-7.1,9.9c-2.4,3.5-5.1,6.9-7.9,10.3
						c2,0.4,3.9,0.8,5.7,1.3c1.9,0.5,3.7,1,5.6,1.6c0.5-3.9,1-7.8,1.6-11.8C98,60.3,98.7,56.5,99.5,53z"/>
					<path class="st1" d="M129.6,74.9c-0.9,1.3-2.1,2-3.6,2c-0.6,0-1.2-0.1-1.8-0.2c-0.6-0.1-1.2-0.3-1.8-0.6
						c-0.8,2.1-1.6,3.8-2.5,5.2c-0.9,1.4-1.9,2.5-2.8,3.3c-1,0.8-1.9,1.4-2.9,1.7c-1,0.3-1.9,0.5-2.7,0.5c-1.1,0-1.9-0.2-2.6-0.6
						c-0.7-0.4-1.2-0.9-1.6-1.5c-0.4-0.6-0.7-1.4-0.8-2.2c-0.2-0.9-0.2-1.7-0.1-2.7c0.1-1.2,0.2-2.6,0.5-4.2
						c0.3-1.7,0.6-3.3,1.1-4.8c0.4-1.5,1-2.9,1.6-4c0.6-1.1,1.3-1.6,2.1-1.6c0.1,0,0.4,0,0.7,0.1c0.3,0.1,0.7,0.1,1,0.3
						c0.3,0.1,0.6,0.3,0.9,0.5c0.3,0.2,0.4,0.4,0.4,0.7c0,0.2-0.1,0.4-0.4,0.6c-0.3,0.3-0.6,0.8-0.9,1.5c-0.4,0.8-0.8,1.8-1.2,2.8
						c-0.4,1-0.7,2.1-1,3.2c-0.3,1.1-0.5,2.3-0.6,3.4c-0.1,1.2-0.1,2.3,0,3.4c0.1,0.7,0.4,1.3,0.8,1.7c0.5,0.5,1.2,0.7,2.1,0.7
						c0.9,0,1.7-0.3,2.5-0.9c0.8-0.6,1.5-1.4,2.2-2.3c0.7-0.9,1.2-1.9,1.7-2.9c0.5-1,0.8-2,1-2.8c-1.1-0.6-2-1.4-2.7-2.5
						c-0.8-1.1-1.2-2.2-1.4-3.3c-0.1-0.5,0-0.9,0.2-1.4c0.2-0.4,0.4-0.8,0.7-1.2c0.3-0.3,0.7-0.6,1.1-0.8c0.4-0.2,0.8-0.3,1.2-0.3
						c1.2,0,2,0.3,2.6,0.8c0.6,0.5,1,1.2,1.2,2c0.2,0.8,0.2,1.7,0.1,2.7c-0.1,1-0.4,2-0.7,2.9c0.4,0.2,0.9,0.5,1.5,0.6
						c0.6,0.2,1.1,0.3,1.5,0.3c0.6,0,1.1-0.1,1.5-0.2c0.4-0.1,0.8-0.5,1.2-1.3c0.3-0.5,0.7-0.7,1.1-0.7c0.2,0,0.3,0.1,0.4,0.4
						C130.2,73.7,130,74.2,129.6,74.9z M121.4,73.4c0.3-0.7,0.4-1.4,0.4-2.1c0-0.7-0.1-1.3-0.2-1.8c-0.2-0.5-0.4-0.9-0.8-1.2
						c-0.4-0.3-0.8-0.3-1.2-0.1c-0.4,0.1-0.7,0.4-0.9,0.8c-0.2,0.3-0.2,0.7-0.1,1.1c0.1,0.4,0.3,0.8,0.6,1.3c0.3,0.4,0.6,0.8,1,1.2
						C120.5,72.9,120.9,73.2,121.4,73.4z"/>
					<path class="st1" d="M143.1,78.2c-0.3,0.8-0.7,1.7-1.3,2.8c-0.6,1-1.3,2-2.2,2.9c-0.9,0.9-1.9,1.6-3.2,2.3
						c-1.2,0.6-2.6,0.9-4.2,0.9c-1,0-1.9-0.2-2.6-0.6c-0.7-0.4-1.3-0.9-1.8-1.5c-0.5-0.6-0.8-1.3-1.1-2.1c-0.2-0.8-0.4-1.6-0.5-2.4
						c-0.2-1.7,0-3.4,0.6-5.1c0.6-1.7,1.5-3.3,2.5-4.7c1.1-1.4,2.2-2.5,3.5-3.4c1.3-0.9,2.5-1.3,3.7-1.3c0.4,0,1,0.2,1.5,0.6
						c0.3-0.2,0.7-0.3,1-0.4c0.3-0.1,0.6-0.1,0.9-0.1c1.3,0,2.3,0.4,3,1.1c0.7,0.7,1.1,1.6,1.4,2.6c0.2,1,0.2,2.1,0.1,3.3
						c-0.2,1.2-0.5,2.3-1,3.2c0.4,0.3,0.7,0.5,1.1,0.6c0.3,0.1,0.7,0.1,1.1,0.1c0.5,0,0.9-0.1,1.3-0.2c0.3-0.1,0.6-0.3,0.8-0.5
						c0.2-0.3,0.5-0.6,0.7-1c0.2-0.4,0.6-0.9,1-1.4c0-0.1,0.1-0.2,0.3-0.2c0.1,0,0.2,0.1,0.3,0.3c0.1,0.2,0.2,0.4,0.2,0.6
						c-0.1,0.5-0.2,1-0.4,1.5c-0.2,0.5-0.5,1.1-0.8,1.5c-0.4,0.5-0.8,0.8-1.4,1.2c-0.5,0.3-1.2,0.5-2,0.5c-0.4,0-0.9-0.1-1.5-0.2
						C144,78.7,143.5,78.5,143.1,78.2z M133.7,83.8c0.9,0,1.7-0.2,2.6-0.6c0.8-0.4,1.6-1,2.3-1.6c0.7-0.7,1.3-1.4,1.8-2.2
						c0.5-0.8,0.9-1.6,1.1-2.4c-0.3-0.2-0.7-0.5-1.1-1c-0.4-0.5-0.8-1-1.3-1.6c-0.4-0.6-0.8-1.3-1.1-2.1c-0.3-0.7-0.5-1.5-0.6-2.3
						c-0.1-0.5-0.1-1,0-1.4c0.1-0.4,0.2-0.7,0.2-0.8c-1,0-2,0.4-2.9,1.3c-0.9,0.8-1.8,1.9-2.5,3.1c-0.7,1.2-1.2,2.5-1.6,3.9
						c-0.4,1.4-0.5,2.7-0.4,3.8c0.2,1.3,0.6,2.3,1.2,3C132.1,83.4,132.8,83.8,133.7,83.8z M141.9,74.8c0.3-0.7,0.5-1.4,0.6-2.2
						c0.1-0.8,0.1-1.5,0-2.2c-0.1-0.7-0.4-1.3-0.7-1.7c-0.4-0.5-1-0.7-1.7-0.7c-0.3,0-0.6,0.2-0.7,0.6c-0.2,0.4-0.2,1-0.1,1.6
						c0.1,0.5,0.4,1.3,0.9,2.2C140.6,73.4,141.2,74.2,141.9,74.8z"/>
					<path class="st1" d="M171.2,79c0,0.8-0.4,1.7-1,2.6c-0.6,0.9-1.4,1.7-2.3,2.4c-0.9,0.7-1.9,1.3-3,1.8c-1.1,0.5-2.1,0.7-3.1,0.7
						c-1.1,0-2-0.3-2.6-0.8c-0.7-0.5-1.1-1.3-1.3-2.2c-0.1-0.9,0-1.9,0.4-3.1c0.4-1.2,0.8-2.4,1.4-3.6c0.5-1.2,1-2.4,1.4-3.6
						c0.4-1.2,0.5-2.2,0.4-3.1c-0.3-0.6-0.9-0.9-1.8-0.9c-1,0-1.9,0.3-2.7,1c-0.8,0.7-1.5,1.5-2.1,2.5c-0.6,1-1.1,2.1-1.6,3.4
						c-0.4,1.3-0.8,2.5-1.2,3.7c-0.4,1.2-0.7,2.4-1,3.4c-0.3,1.1-0.5,1.9-0.8,2.5c-0.2,0.4-0.3,0.6-0.5,0.7
						c-0.2,0.1-0.6,0.1-1.2,0.1c-0.2,0-0.5-0.2-0.7-0.5c-0.3-0.3-0.5-0.9-0.6-1.8c-0.1-0.4-0.1-1-0.1-1.6c0-0.6,0.1-1.2,0.2-1.9v0.1
						c0.3-1.7,0.8-3.5,1.3-5.4c0.5-1.9,1.1-3.6,1.7-5.2c0.6-1.6,1.2-2.9,1.9-3.9c0.6-1,1.2-1.6,1.8-1.6c0.4,0,0.9,0.1,1.3,0.3
						c0.4,0.2,0.6,0.4,0.7,0.8c-0.3,0.8-0.6,1.5-0.7,2.1c-0.2,0.6-0.4,1.2-0.6,1.9c-0.2,0.7-0.4,1.2-0.5,1.6
						c0.4-0.7,0.9-1.4,1.5-2.1c0.6-0.7,1.2-1.3,1.9-1.9c0.7-0.6,1.4-1,2.1-1.4c0.7-0.4,1.4-0.5,2.1-0.5c1,0,1.9,0.2,2.6,0.7
						c0.7,0.5,1.1,1.2,1.2,2.1c0.1,0.9-0.1,1.9-0.5,3.1c-0.4,1.1-0.9,2.3-1.5,3.5c-0.5,1.2-1,2.4-1.4,3.6c-0.4,1.2-0.5,2.4-0.4,3.5
						c0.1,0.6,0.3,1,0.6,1.3c0.3,0.3,0.9,0.5,1.6,0.5c0.9,0,1.8-0.4,2.9-1.3c1.1-0.9,2.1-1.9,3-3.1l0.7-1.1c0,0,0.1-0.1,0.2-0.1
						c0.2,0,0.3,0.1,0.5,0.2C171.2,78.6,171.2,78.8,171.2,79z"/>
				</g>
				<g>
					<path class="st1" d="M203.4,45.6c0,0-3.7,4.4-7.2,2.3l-8.4,18l0.1,0l-8,17c0,0,4.8,2.2,2.5,7.3l18.6,8.6c0,0,3.7-4.4,7.2-2.3
						l8.4-18l-0.1,0l8-17c0,0-4.8-2.2-2.5-7.3L203.4,45.6z"/>
				</g>
				<g>
					<path class="st1" d="M267.9,77.3c0.4,0,0.6,0.2,0.7,0.7c0,0.2,0,0.3-0.1,0.5c-0.1,0.2-0.1,0.4-0.2,0.6
						c-0.4,1.1-1.3,2.2-2.4,3.3c-1.2,1.1-2.6,2.2-4.3,3.1c-1.7,0.9-3.6,1.7-5.7,2.3c-2.1,0.6-4.3,0.9-6.6,0.9
						c-2.6,0-4.8-0.4-6.8-1.1c-2-0.7-3.6-1.7-5-2.9c-1.4-1.2-2.5-2.7-3.3-4.4c-0.8-1.7-1.3-3.6-1.5-5.6c-0.2-1.9-0.1-3.8,0.3-5.8
						c0.4-2,1.1-3.9,2-5.8c0.9-1.9,2.1-3.7,3.6-5.4c1.4-1.7,3.1-3.2,4.9-4.5c1.8-1.3,3.9-2.3,6.1-3.1c2.2-0.8,4.6-1.1,7.1-1.1
						c2.9,0,5.2,0.6,6.9,1.9c1.7,1.3,2.8,3.2,3.1,6c0.1,0.9,0.1,1.7-0.2,2.6c-0.2,0.9-0.5,1.7-1,2.4c-0.4,0.7-0.9,1.3-1.5,1.7
						c-0.6,0.4-1.2,0.7-1.8,0.7c-0.3,0-0.7-0.1-1.1-0.2c-0.4-0.1-0.7-0.3-1-0.5c-0.3-0.2-0.6-0.4-0.8-0.7c-0.2-0.3-0.4-0.5-0.4-0.8
						c0-0.2,0.1-0.4,0.2-0.5c0.1-0.1,0.3-0.3,0.6-0.4h-0.1c0.4-0.3,0.9-0.6,1.3-1c0.4-0.4,0.8-0.8,1.1-1.2c0.3-0.4,0.6-0.9,0.7-1.4
						c0.2-0.5,0.2-1,0.1-1.6c-0.2-1.4-0.8-2.6-1.8-3.4c-1-0.8-2.6-1.3-4.8-1.3c-2.2,0-4.1,0.4-5.9,1.2c-1.8,0.8-3.4,1.8-4.8,3.1
						c-1.4,1.3-2.7,2.8-3.7,4.4c-1.1,1.7-1.9,3.4-2.6,5.2c-0.7,1.8-1.1,3.6-1.3,5.3c-0.2,1.8-0.3,3.4-0.1,4.9c0.2,1.5,0.7,3,1.4,4.2
						c0.7,1.3,1.7,2.4,2.8,3.3c1.1,0.9,2.5,1.6,4.1,2.2c1.6,0.5,3.3,0.8,5.1,0.8c1.4,0,2.8-0.1,4.2-0.4c1.3-0.3,2.6-0.7,3.8-1.2
						c1.2-0.5,2.3-1,3.3-1.7c1-0.7,1.9-1.3,2.7-2.1c0.4-0.4,0.8-0.8,1.1-1.1c0.3-0.4,0.5-0.7,0.7-1c0.2-0.3,0.4-0.6,0.5-0.7
						C267.6,77.4,267.8,77.3,267.9,77.3z"/>
					<path class="st1" d="M278.3,79.1c0,0.7-0.3,1.5-0.9,2.4c-0.6,0.9-1.3,1.7-2.2,2.5c-0.9,0.8-1.9,1.4-2.9,1.9c-1,0.5-2,0.8-3,0.8
						c-1.3,0-2.2-0.3-2.7-0.8c-0.5-0.5-0.8-1.4-0.9-2.5c-0.1-0.5-0.1-1.3,0-2.3c0.1-1,0.2-2,0.4-3.2c0.2-1.1,0.4-2.3,0.7-3.5
						c0.3-1.2,0.7-2.4,1.1-3.5c0.4-1.1,0.8-2.1,1.3-2.9c0.5-0.9,1-1.5,1.5-1.9c0.4-0.3,0.8-0.4,1.2-0.4c0.6,0,1,0.1,1.2,0.4
						c0.2,0.3,0.3,0.5,0.3,0.8c-0.1,0.7-0.2,1.4-0.4,2.1c-0.2,0.7-0.4,1.3-0.6,2c-0.2,0.7-0.5,1.4-0.8,2.2c-0.3,0.8-0.5,1.6-0.8,2.5
						c-0.1,0.4-0.3,1-0.5,1.5c-0.2,0.6-0.4,1.1-0.5,1.7c-0.2,0.6-0.3,1.1-0.4,1.6c-0.1,0.5-0.1,0.9-0.1,1.3c0.2,1.2,0.9,1.8,2.2,1.8
						c0.9,0,1.8-0.4,2.7-1.2c0.9-0.8,1.8-1.7,2.7-2.8c0.2-0.3,0.4-0.6,0.6-0.9c0.2-0.3,0.4-0.5,0.5-0.5c0.2,0,0.3,0.1,0.3,0.2
						C278.2,78.7,278.2,78.9,278.3,79.1z M273.6,62.7c-0.4-0.1-0.7-0.3-1-0.7c-0.2-0.4-0.4-1-0.5-1.6c-0.1-1.2,0.1-2.3,0.6-3.1
						c0.5-0.8,1-1.2,1.6-1.2c0.3,0,0.6,0,1,0.1c0.4,0.1,0.7,0.2,1.1,0.4c0.3,0.2,0.6,0.4,0.9,0.6c0.3,0.2,0.4,0.5,0.4,0.8
						c0,0.2-0.1,0.4-0.3,0.6c-0.1,0.2-0.3,0.5-0.5,0.7c-0.5,0.7-0.8,1.2-1.1,1.7c-0.2,0.4-0.4,0.8-0.6,1.1c-0.2,0.3-0.3,0.5-0.5,0.6
						c-0.2,0.1-0.4,0.2-0.6,0.2c-0.1,0-0.2,0-0.3,0C273.8,62.7,273.7,62.7,273.6,62.7z"/>
					<path class="st1" d="M299.3,79c0,0.8-0.4,1.7-1,2.6c-0.6,0.9-1.4,1.7-2.3,2.4c-0.9,0.7-1.9,1.3-3,1.8c-1.1,0.5-2.1,0.7-3.1,0.7
						c-1.1,0-2-0.3-2.6-0.8c-0.7-0.5-1.1-1.3-1.3-2.2c-0.1-0.9,0-1.9,0.4-3.1c0.4-1.2,0.8-2.4,1.4-3.6c0.5-1.2,1-2.4,1.4-3.6
						c0.4-1.2,0.5-2.2,0.4-3.1c-0.3-0.6-0.9-0.9-1.8-0.9c-1,0-1.9,0.3-2.7,1c-0.8,0.7-1.5,1.5-2.1,2.5c-0.6,1-1.1,2.1-1.6,3.4
						c-0.4,1.3-0.8,2.5-1.2,3.7c-0.4,1.2-0.7,2.4-1,3.4c-0.3,1.1-0.5,1.9-0.8,2.5c-0.2,0.4-0.3,0.6-0.5,0.7
						c-0.2,0.1-0.6,0.1-1.2,0.1c-0.2,0-0.5-0.2-0.7-0.5c-0.3-0.3-0.5-0.9-0.6-1.8c-0.1-0.4-0.1-1-0.1-1.6c0-0.6,0.1-1.2,0.2-1.9v0.1
						c0.3-1.7,0.8-3.5,1.3-5.4c0.5-1.9,1.1-3.6,1.7-5.2c0.6-1.6,1.2-2.9,1.9-3.9c0.6-1,1.2-1.6,1.8-1.6c0.4,0,0.9,0.1,1.3,0.3
						c0.4,0.2,0.6,0.4,0.7,0.8c-0.3,0.8-0.6,1.5-0.7,2.1c-0.2,0.6-0.4,1.2-0.6,1.9c-0.2,0.7-0.4,1.2-0.5,1.6
						c0.4-0.7,0.9-1.4,1.5-2.1c0.6-0.7,1.2-1.3,1.9-1.9c0.7-0.6,1.4-1,2.1-1.4c0.7-0.4,1.4-0.5,2.1-0.5c1,0,1.9,0.2,2.6,0.7
						c0.7,0.5,1.1,1.2,1.2,2.1c0.1,0.9-0.1,1.9-0.5,3.1c-0.4,1.1-0.9,2.3-1.5,3.5c-0.5,1.2-1,2.4-1.4,3.6c-0.4,1.2-0.5,2.4-0.4,3.5
						c0.1,0.6,0.3,1,0.6,1.3c0.3,0.3,0.9,0.5,1.6,0.5c0.9,0,1.8-0.4,2.9-1.3c1.1-0.9,2.1-1.9,3-3.1l0.7-1.1c0,0,0.1-0.1,0.2-0.1
						c0.2,0,0.3,0.1,0.5,0.2C299.2,78.6,299.3,78.8,299.3,79z"/>
					<path class="st1" d="M315.8,78c0.2-0.1,0.3-0.2,0.4-0.2c0.2,0,0.3,0.1,0.4,0.3c0.1,0.2,0.1,0.4,0,0.6c-0.2,1-0.7,1.9-1.4,2.9
						c-0.7,0.9-1.6,1.8-2.7,2.5c-1.1,0.8-2.3,1.4-3.6,1.8c-1.3,0.5-2.6,0.7-4,0.7c-2.1,0-3.8-0.5-5.1-1.5c-1.4-1-2.1-2.5-2.3-4.4
						c-0.1-0.8-0.1-1.6,0-2.5c0.1-0.9,0.2-1.8,0.4-2.8c0.2-0.9,0.5-1.9,0.8-2.8c0.3-0.9,0.7-1.7,1.2-2.4c0.3-0.5,0.7-1,1.2-1.6
						c0.5-0.6,1.1-1.1,1.8-1.6c0.7-0.5,1.5-0.9,2.4-1.3c0.9-0.3,1.9-0.5,3-0.5c1.4,0,2.7,0.3,3.7,1c1,0.7,1.6,1.6,1.8,2.7
						c0.2,1.4-0.1,2.6-0.8,3.8c-0.7,1.2-1.6,2.2-2.8,3c-1.2,0.8-2.5,1.4-4,1.7c-1.5,0.3-3,0.3-4.5,0c-0.2,0.9-0.2,1.7-0.2,2.4
						c0.1,0.7,0.2,1.4,0.6,2c0.3,0.6,0.9,1,1.6,1.4c0.7,0.3,1.6,0.5,2.8,0.6c2.1-0.1,3.9-0.6,5.5-1.7
						C313.5,80.9,314.8,79.6,315.8,78z M301.9,75.6c1,0.3,1.9,0.4,3,0.2c1-0.2,1.9-0.7,2.7-1.3c0.8-0.6,1.4-1.4,1.9-2.3
						c0.5-0.9,0.7-1.9,0.5-2.9c-0.1-0.6-0.3-1.1-0.7-1.4c-0.4-0.4-1-0.5-1.7-0.5c-0.6,0-1.2,0.2-1.8,0.6c-0.6,0.4-1.1,1-1.6,1.7
						c-0.5,0.8-0.9,1.6-1.3,2.6C302.5,73.4,302.2,74.5,301.9,75.6z"/>
					<path class="st1" d="M315,76.5c0.2-1.1,0.5-2.2,0.8-3.5c0.3-1.3,0.7-2.5,1.1-3.7c0.4-1.1,0.8-2.1,1.3-3
						c0.4-0.8,0.9-1.3,1.3-1.4c0.1,0,0.2,0,0.3,0c0.1,0,0.2,0,0.4,0c0.4,0,0.9,0.1,1.3,0.3c0.4,0.2,0.6,0.5,0.6,0.9
						c0,0.2,0,0.4-0.1,0.6c-0.1,0.2-0.2,0.5-0.3,0.8c-0.1,0.3-0.3,0.7-0.5,1.2c-0.2,0.5-0.3,1.1-0.4,1.9c1.1-1.6,2.3-2.8,3.7-3.7
						c1.4-0.9,2.6-1.3,3.5-1.3c1.3,0,2.2,0.4,2.8,1.1c0.6,0.8,0.8,1.8,0.8,3c0.7-0.6,1.4-1.1,1.9-1.6c0.5-0.5,1.1-1,1.6-1.3
						c0.5-0.4,1-0.7,1.5-0.9c0.5-0.2,1.1-0.3,1.7-0.3c1,0,1.9,0.3,2.6,0.9c0.7,0.6,1.1,1.4,1.3,2.4c0.1,1-0.1,2.1-0.5,3.3
						c-0.5,1.2-1,2.3-1.5,3.5c-0.6,1.2-1.1,2.3-1.5,3.5c-0.5,1.1-0.6,2.2-0.5,3.2c0.1,0.5,0.3,1,0.6,1.2c0.4,0.3,1,0.4,1.8,0.4
						c0.6,0,1.2-0.2,1.8-0.7c0.6-0.4,1.3-1,1.9-1.6c0.6-0.6,1.1-1.2,1.6-1.9c0.5-0.6,0.8-1.1,1-1.5c0.1-0.1,0.2-0.1,0.3-0.1
						c0.2,0,0.3,0.1,0.3,0.2c0.1,0.1,0.1,0.2,0.1,0.4c0.1,0.7-0.1,1.4-0.6,2.3c-0.5,0.9-1.2,1.8-2.1,2.6c-0.9,0.8-1.9,1.6-3,2.1
						c-1.1,0.6-2.1,0.9-3,0.9c-1.2,0-2.2-0.3-3.1-0.8c-0.8-0.5-1.3-1.3-1.5-2.4c-0.1-0.9,0-1.8,0.4-3c0.4-1.1,0.8-2.3,1.3-3.4
						c0.5-1.2,0.9-2.3,1.3-3.5c0.4-1.1,0.5-2.2,0.4-3.1c0-0.3-0.2-0.5-0.5-0.6c-0.3-0.2-0.6-0.2-1.1-0.2c-0.8,0-1.6,0.3-2.3,0.8
						c-0.7,0.5-1.4,1.3-2,2.2c-0.6,0.9-1.2,1.9-1.7,3c-0.5,1.1-1,2.3-1.4,3.5c-0.4,1.2-0.8,2.4-1.1,3.5c-0.3,1.1-0.6,2.1-0.8,3
						c-0.1,0.4-0.2,0.7-0.3,0.9c-0.1,0.2-0.3,0.3-0.6,0.3c-0.5,0-0.9-0.1-1.4-0.3c-0.4-0.2-0.7-0.5-0.9-1c0-1.3,0.2-2.7,0.7-4
						c0.4-1.4,0.9-2.7,1.5-4c0.5-1.3,1-2.5,1.4-3.7c0.4-1.2,0.5-2.3,0.4-3.3c-0.1-0.3-0.3-0.6-0.8-0.8c-0.4-0.2-0.9-0.3-1.4-0.3
						c-0.9,0-1.6,0.3-2.4,0.8c-0.7,0.5-1.4,1.3-1.9,2.1c-0.6,0.9-1.1,1.8-1.5,2.9c-0.4,1.1-0.8,2.2-1.1,3.2c-0.3,1.1-0.6,2.1-0.8,3
						c-0.2,0.9-0.4,1.7-0.6,2.3c-0.1,0.3-0.2,0.7-0.3,1c-0.1,0.4-0.2,0.7-0.3,1c-0.1,0.3-0.3,0.6-0.5,0.8c-0.2,0.2-0.5,0.3-0.9,0.3
						c-0.1,0-0.1,0-0.2,0c-0.1,0-0.2-0.1-0.2-0.1c-0.5-0.2-0.8-0.8-0.9-1.8c0-0.3,0-0.9,0.1-1.7c0.1-0.8,0.2-1.6,0.3-2.4
						c0.1-0.8,0.2-1.6,0.4-2.4C314.8,77.4,314.9,76.8,315,76.5z"/>
					<path class="st1" d="M369.1,79.1c0,0.7-0.3,1.5-0.9,2.4c-0.5,0.9-1.2,1.7-2.1,2.5c-0.8,0.8-1.8,1.4-2.8,2
						c-1,0.5-2.1,0.8-3.1,0.8c-1.3,0-2.2-0.3-2.8-0.9c-0.5-0.6-0.9-1.7-1.1-3.3c-1,1.5-2,2.6-3.1,3.2c-1.1,0.6-2.1,0.9-3.1,0.9
						c-1.4,0-2.6-0.4-3.7-1.2c-1.1-0.8-1.7-1.9-1.8-3.3c-0.1-1.2-0.1-2.4,0.3-3.8c0.3-1.3,0.8-2.6,1.4-3.8c0.7-1.2,1.4-2.4,2.3-3.5
						c0.9-1.1,1.8-2.1,2.8-2.9c1-0.8,2-1.5,3.1-2c1-0.5,2-0.7,3-0.7c0.6,0,1.1,0.1,1.6,0.4c0.5,0.2,0.8,0.5,1.1,0.8l0.4-1.5
						c0.1-0.2,0.2-0.3,0.5-0.4c0.3,0,0.5-0.1,0.6-0.1c0.3,0,0.6,0,0.8,0.1c0.3,0.1,0.6,0.1,0.8,0.2c0.3,0.1,0.5,0.2,0.6,0.4
						c0.2,0.2,0.2,0.4,0.2,0.6c0,0.7-0.2,1.6-0.4,2.6c-0.3,1-0.6,2.1-1,3.3c-0.4,1.2-0.8,2.5-1.3,3.9c-0.5,1.4-0.9,2.9-1.4,4.5
						c-0.3,0.8-0.4,1.5-0.3,2c0.1,0.5,0.3,1,0.6,1.2c0.3,0.3,0.8,0.4,1.6,0.4c0.9,0,1.8-0.4,2.9-1.3c1-0.9,2-1.9,2.9-3.1l0.6-1.1
						c0,0,0.1-0.1,0.2-0.1c0.2,0,0.3,0.1,0.4,0.3C369,78.7,369,78.9,369.1,79.1z M351.8,83.6c1.3-0.1,2.4-0.7,3.2-1.7
						c0.8-1,1.5-2.3,2-3.9c0.4-1.7,0.9-3.4,1.4-4.9c0.5-1.6,0.9-3.1,1.3-4.7c-0.1-0.4-0.3-0.7-0.7-0.8c-0.3-0.2-0.8-0.2-1.4-0.2
						c-0.8,0-1.5,0.3-2.3,0.8c-0.8,0.5-1.5,1.2-2.1,2.1c-0.7,0.8-1.3,1.8-1.9,2.8c-0.6,1-1,2.1-1.4,3.1c-0.4,1-0.7,2-0.9,2.9
						c-0.2,0.9-0.2,1.7-0.2,2.3c0.1,0.8,0.4,1.4,0.9,1.8C350.2,83.4,350.9,83.6,351.8,83.6z"/>
				</g>
			</g>
		</g>
	</g>
	<g>
		<path class="st1" d="M148.1,156.6c-1.7-1.1-3-2.8-3.9-4.9c-0.9-2.1-1.4-4.7-1.4-7.7c0-3,0.5-5.6,1.4-7.8c0.9-2.2,2.2-3.8,3.9-5
			c1.7-1.1,3.7-1.7,6-1.7c2.1,0,4,0.5,5.5,1.4c1.6,1,2.9,2.4,4,4.2l-2.4,1.7c-1.7-3.1-4.1-4.6-7.1-4.6c-2.5,0-4.5,1-5.9,3.1
			s-2.1,4.9-2.1,8.6c0,3.6,0.7,6.5,2.1,8.6c1.4,2.1,3.4,3.1,5.9,3.1c1.4,0,2.7-0.3,3.8-1c1.1-0.7,2-1.7,2.6-3c0.6-1.3,1-2.9,1-4.9
			H155v-2.5h9.5v2.5c0,2.5-0.4,4.6-1.3,6.4s-2.1,3-3.7,3.9s-3.4,1.3-5.4,1.3C151.8,158.3,149.8,157.8,148.1,156.6z"/>
		<path class="st1" d="M170.1,134.4c-0.4-0.4-0.6-1-0.6-1.6c0-0.6,0.2-1.1,0.6-1.5s0.9-0.6,1.6-0.6c0.6,0,1.1,0.2,1.5,0.6
			c0.4,0.4,0.6,0.9,0.6,1.6c0,0.6-0.2,1.1-0.6,1.5c-0.4,0.4-0.9,0.6-1.5,0.6C171,135.1,170.5,134.9,170.1,134.4z M170.3,157.7v-18.9
			h2.8v18.9H170.3z"/>
		<path class="st1" d="M184.3,131.1c-0.6,0.6-0.9,1.5-0.9,2.5v5.1h4.4v2.5h-4.4v16.4h-2.8v-16.4h-2.4v-2.5h2.4v-5.1
			c0-1.8,0.6-3.2,1.7-4.3c1.1-1.1,2.6-1.7,4.3-1.7h1.1v2.5h-1.1C185.7,130.1,184.9,130.5,184.3,131.1z"/>
		<path class="st1" d="M191.7,157.7v-16.4h-3.2v-2.5h3.2v-6.3h2.8v6.3h4.4v2.5h-4.4v16.4H191.7z"/>
		<path class="st1" d="M215.8,156.6c-1.7-1.1-3-2.8-3.9-4.9c-0.9-2.1-1.4-4.7-1.4-7.7c0-3,0.4-5.6,1.3-7.8c0.9-2.2,2.1-3.8,3.8-5
			c1.6-1.1,3.6-1.7,5.8-1.7c2.3,0,4.3,0.5,5.9,1.5c1.6,1,2.9,2.4,3.8,4.3l-2.4,1.4c-0.9-1.6-1.9-2.7-3-3.4s-2.6-1-4.2-1
			c-2.4,0-4.3,1-5.6,3.1s-2,4.9-2,8.6c0,2.4,0.3,4.5,0.9,6.2c0.6,1.8,1.5,3.1,2.7,4c1.2,0.9,2.5,1.4,4,1.4c1.9,0,3.4-0.4,4.5-1.3
			c1.1-0.8,2.1-2.2,3-4l2.5,1.5c-1,2.1-2.3,3.7-3.9,4.8c-1.6,1.1-3.5,1.7-5.7,1.7C219.5,158.3,217.5,157.8,215.8,156.6z"/>
		<path class="st1" d="M252.9,138.8v18.9h-2.8v-2.8c-0.8,1.1-1.7,1.9-2.9,2.5s-2.4,0.9-3.7,0.9c-1.8,0-3.4-0.4-4.9-1.3
			c-1.4-0.9-2.5-2.1-3.4-3.6c-0.8-1.5-1.2-3.3-1.2-5.3c0-1.9,0.4-3.7,1.2-5.2c0.8-1.5,1.9-2.7,3.3-3.6c1.4-0.9,3-1.3,4.8-1.3
			c1.4,0,2.6,0.3,3.8,0.9s2.1,1.5,2.9,2.6v-2.8H252.9z M247,154.8c1-0.6,1.8-1.5,2.4-2.7c0.6-1.2,0.8-2.5,0.8-3.9s-0.3-2.8-0.8-3.9
			c-0.6-1.2-1.4-2.1-2.4-2.7c-1-0.6-2.2-1-3.5-1c-1.3,0-2.4,0.3-3.4,1c-1,0.6-1.8,1.5-2.3,2.7c-0.6,1.1-0.8,2.4-0.8,3.9
			c0,1.5,0.3,2.8,0.8,4s1.3,2.1,2.3,2.7c1,0.6,2.1,1,3.4,1C244.8,155.8,245.9,155.5,247,154.8z"/>
		<path class="st1" d="M269.2,138.4v2.5c-0.6-0.3-1.2-0.4-1.9-0.4c-1.2,0-2.2,0.3-3.2,1c-1,0.6-1.8,1.6-2.4,2.8
			c-0.6,1.2-0.9,2.7-0.9,4.3v9.1H258v-18.9h2.8v3.8c0.7-1.4,1.7-2.5,2.8-3.3c1.1-0.8,2.4-1.2,3.8-1.2
			C268,138.1,268.6,138.2,269.2,138.4z"/>
		<path class="st1" d="M288.9,128.3v29.4h-2.8v-2.8c-0.8,1.1-1.7,1.9-2.9,2.5s-2.4,0.9-3.7,0.9c-1.8,0-3.4-0.4-4.9-1.3
			c-1.4-0.9-2.5-2.1-3.4-3.6c-0.8-1.5-1.2-3.3-1.2-5.3c0-1.9,0.4-3.7,1.2-5.2c0.8-1.5,1.9-2.7,3.3-3.6c1.4-0.9,3-1.3,4.8-1.3
			c1.4,0,2.6,0.3,3.8,0.9s2.1,1.5,2.9,2.6v-13.3H288.9z M282.9,154.8c1-0.6,1.8-1.5,2.4-2.7c0.6-1.2,0.8-2.5,0.8-3.9
			s-0.3-2.8-0.8-3.9c-0.6-1.2-1.4-2.1-2.4-2.7c-1-0.6-2.2-1-3.5-1c-1.3,0-2.4,0.3-3.4,1c-1,0.6-1.8,1.5-2.3,2.7
			c-0.6,1.1-0.8,2.4-0.8,3.9c0,1.5,0.3,2.8,0.8,4s1.3,2.1,2.3,2.7c1,0.6,2.1,1,3.4,1C280.8,155.8,281.9,155.5,282.9,154.8z"/>
	</g>
	<g>
		<circle class="st1" cx="216.6" cy="223.1" r="20.3"/>
		<g>
			<g>
				<path class="st0" d="M217.9,207.2h2.8v27.6h-2.8v-23.1l-6.6,6.5l-1.5-1.5L217.9,207.2z"/>
			</g>
		</g>
	</g>
</g>
</svg>
