<?xml version="1.0" encoding="utf-8"?>
<!-- Generator: Adobe Illustrator 22.0.1, SVG Export Plug-In . SVG Version: 6.00 Build 0)  -->
<svg version="1.1" id="Layer_1" xmlns="http://www.w3.org/2000/svg" xmlns:xlink="http://www.w3.org/1999/xlink" x="0px" y="0px"
	 viewBox="0 0 432 288" style="enable-background:new 0 0 432 288;" xml:space="preserve">
<style type="text/css">
	.st0{fill:#CB597C;}
	.st1{fill:#FFFFFF;}
</style>
<g>
	<rect x="35.8" y="21.9" class="st0" width="359.1" height="244.1"/>
	<g>
		<g>
			<g>
				<path class="st1" d="M96.4,53.7c-1.3-0.7-2.9-1.2-4.7-1.4c-1.8-0.3-3.5-0.4-5.2-0.4c-2.8,0-5.6,0.3-8.1,1
					c-2.6,0.7-4.8,1.6-6.7,2.8c-1.9,1.2-3.4,2.6-4.4,4.3c-1,1.7-1.4,3.5-1.2,5.6c0.1,0.4,0.2,0.9,0.3,1.3c0.1,0.4,0.2,0.8,0.4,1.1
					c0,0,0,0.1,0,0.1c0,0,0,0.1,0,0.1c0,0.6-0.1,1-0.5,1.4c-0.3,0.3-0.7,0.5-1.2,0.6c-0.4,0.1-0.9-0.1-1.3-0.4
					c-0.4-0.3-0.7-0.9-0.8-1.7c0-0.3-0.1-0.6-0.1-0.9c0-0.3,0-0.6,0-0.9c0-2.6,0.5-5,1.7-7.1c1.2-2.1,2.9-3.9,5.1-5.4
					c2.3-1.5,5-2.6,8.4-3.4c3.3-0.8,7.1-1.2,11.4-1.2c0.4,0,0.9,0.1,1.5,0.1c0.6,0.1,1.3,0.1,2,0.2c0.7,0.1,1.4,0.2,2.1,0.3
					c0.7,0.1,1.3,0.3,1.9,0.4c1.4,0.4,2.5,0.9,3.3,1.2c0.8,0.4,1.3,0.8,1.6,1.3c0.3,0.5,0.4,1.1,0.4,1.8c0,0.7-0.2,1.5-0.4,2.6
					c-0.4,1.8-0.8,3.9-1.2,6.2c-0.4,2.3-0.8,4.7-1.2,7.1c-0.4,2.4-0.7,4.7-1.1,7c-0.3,2.3-0.7,4.3-0.9,6.1c-0.2,1.4,0,2.4,0.6,3
					c0.6,0.6,1.4,0.9,2.4,0.9c1.1,0,2.2-0.5,3.2-1.4c1-0.9,1.9-2.1,2.6-3.6c0.1-0.1,0.2-0.3,0.3-0.4c0.1-0.1,0.2-0.2,0.3-0.3
					c0.2-0.1,0.3-0.2,0.5-0.2c0.2,0,0.3,0.2,0.3,0.5c-0.2,0.9-0.5,1.8-1.1,2.8c-0.5,1-1.2,1.9-2,2.7c-0.8,0.8-1.7,1.5-2.8,2
					c-1,0.5-2.1,0.7-3.3,0.7c-1,0-1.7-0.2-2.4-0.7c-0.6-0.4-1.1-1-1.4-1.7c-0.3-0.7-0.6-1.5-0.7-2.4c-0.1-0.9-0.1-1.8,0-2.8
					c-1.1-0.3-2.1-0.6-3.1-0.9c-1-0.3-2.1-0.6-3.1-0.9c-1-0.3-2.1-0.5-3.2-0.7c-1.1-0.2-2.2-0.3-3.4-0.4l-3.8,4.8
					c-0.5,0.7-1.2,1.4-1.8,2.2c-0.7,0.8-1.3,1.5-2,2.2c-0.6,0.7-1.2,1.3-1.8,1.9c-0.6,0.5-1.1,0.8-1.5,1c-0.2,0-0.4-0.1-0.6-0.3
					c-0.2-0.2-0.4-0.4-0.6-0.7c-0.2-0.3-0.4-0.6-0.5-0.9c-0.1-0.3-0.2-0.7-0.3-1c-0.1-0.8,0-1.3,0.2-1.6c1.4-0.9,2.7-2,3.9-3.3
					c1.2-1.4,2.6-2.9,4.1-4.7c-0.2,0-0.5,0-1,0c-0.5,0-0.9,0.1-1.4,0.1c-0.5,0-0.9,0-1.3,0c-0.4,0-0.6-0.1-0.6-0.3
					c-0.1-0.7,0-1.3,0.4-1.8c0.4-0.5,0.9-0.9,1.4-1.2c0.6-0.3,1.2-0.4,1.9-0.5c0.7-0.1,1.3,0,1.9,0.1c0.3,0.1,0.5,0.1,0.7,0.2
					c0.2,0,0.5,0.1,0.7,0.2c0.7-0.8,1.5-1.8,2.4-3c0.9-1.2,1.9-2.4,2.9-3.8c1-1.4,2.1-2.7,3.2-4.2c1.1-1.4,2.1-2.8,3.2-4.2
					c1-1.4,2-2.6,2.9-3.8C94.9,55.5,95.7,54.5,96.4,53.7z M98.2,56.3c-2.3,3.2-4.7,6.5-7.1,9.9c-2.4,3.5-5.1,6.9-7.9,10.3
					c2,0.4,3.9,0.8,5.7,1.3c1.9,0.5,3.7,1,5.6,1.6c0.5-3.9,1-7.8,1.6-11.8C96.7,63.6,97.4,59.8,98.2,56.3z"/>
				<path class="st1" d="M128.4,78.2c-0.9,1.3-2.1,2-3.6,2c-0.6,0-1.2-0.1-1.8-0.2c-0.6-0.1-1.2-0.3-1.8-0.6
					c-0.8,2.1-1.6,3.8-2.5,5.2c-0.9,1.4-1.9,2.5-2.8,3.3c-1,0.8-1.9,1.4-2.9,1.7c-1,0.3-1.9,0.5-2.7,0.5c-1.1,0-1.9-0.2-2.6-0.6
					c-0.7-0.4-1.2-0.9-1.6-1.5c-0.4-0.6-0.7-1.4-0.8-2.2c-0.2-0.9-0.2-1.7-0.1-2.7c0.1-1.2,0.2-2.6,0.5-4.2c0.3-1.7,0.6-3.3,1.1-4.8
					c0.4-1.5,1-2.9,1.6-4c0.6-1.1,1.3-1.6,2.1-1.6c0.1,0,0.4,0,0.7,0.1c0.3,0.1,0.7,0.1,1,0.3c0.3,0.1,0.6,0.3,0.9,0.5
					c0.3,0.2,0.4,0.4,0.4,0.7c0,0.2-0.1,0.4-0.4,0.6c-0.3,0.3-0.6,0.8-0.9,1.5c-0.4,0.8-0.8,1.8-1.2,2.8c-0.4,1-0.7,2.1-1,3.2
					c-0.3,1.1-0.5,2.3-0.6,3.4c-0.1,1.2-0.1,2.3,0,3.4c0.1,0.7,0.4,1.3,0.8,1.7c0.5,0.5,1.2,0.7,2.1,0.7c0.9,0,1.7-0.3,2.5-0.9
					c0.8-0.6,1.5-1.4,2.2-2.3c0.7-0.9,1.2-1.9,1.7-2.9c0.5-1,0.8-2,1-2.8c-1.1-0.6-2-1.4-2.7-2.5c-0.8-1.1-1.2-2.2-1.4-3.3
					c-0.1-0.5,0-0.9,0.2-1.4c0.2-0.4,0.4-0.8,0.7-1.2c0.3-0.3,0.7-0.6,1.1-0.8c0.4-0.2,0.8-0.3,1.2-0.3c1.2,0,2,0.3,2.6,0.8
					c0.6,0.5,1,1.2,1.2,2c0.2,0.8,0.2,1.7,0.1,2.7c-0.1,1-0.4,2-0.7,2.9c0.4,0.2,0.9,0.5,1.5,0.6c0.6,0.2,1.1,0.3,1.5,0.3
					c0.6,0,1.1-0.1,1.5-0.2c0.4-0.1,0.8-0.5,1.2-1.3c0.3-0.5,0.7-0.7,1.1-0.7c0.2,0,0.3,0.1,0.4,0.4
					C128.9,77.1,128.8,77.6,128.4,78.2z M120.1,76.7c0.3-0.7,0.4-1.4,0.4-2.1c0-0.7-0.1-1.3-0.2-1.8c-0.2-0.5-0.4-0.9-0.8-1.2
					c-0.4-0.3-0.8-0.3-1.2-0.1c-0.4,0.1-0.7,0.4-0.9,0.8c-0.2,0.3-0.2,0.7-0.1,1.1c0.1,0.4,0.3,0.8,0.6,1.3c0.3,0.4,0.6,0.8,1,1.2
					C119.3,76.2,119.7,76.5,120.1,76.7z"/>
				<path class="st1" d="M141.8,81.5c-0.3,0.8-0.7,1.7-1.3,2.8c-0.6,1-1.3,2-2.2,2.9c-0.9,0.9-1.9,1.6-3.2,2.3
					c-1.2,0.6-2.6,0.9-4.2,0.9c-1,0-1.9-0.2-2.6-0.6c-0.7-0.4-1.3-0.9-1.8-1.5c-0.5-0.6-0.8-1.3-1.1-2.1c-0.2-0.8-0.4-1.6-0.5-2.4
					c-0.2-1.7,0-3.4,0.6-5.1c0.6-1.7,1.5-3.3,2.5-4.7c1.1-1.4,2.2-2.5,3.5-3.4c1.3-0.9,2.5-1.3,3.7-1.3c0.4,0,1,0.2,1.5,0.6
					c0.3-0.2,0.7-0.3,1-0.4c0.3-0.1,0.6-0.1,0.9-0.1c1.3,0,2.3,0.4,3,1.1c0.7,0.7,1.1,1.6,1.4,2.6c0.2,1,0.2,2.1,0.1,3.3
					c-0.2,1.2-0.5,2.3-1,3.2c0.4,0.3,0.7,0.5,1.1,0.6c0.3,0.1,0.7,0.1,1.1,0.1c0.5,0,0.9-0.1,1.3-0.2c0.3-0.1,0.6-0.3,0.8-0.5
					c0.2-0.3,0.5-0.6,0.7-1c0.2-0.4,0.6-0.9,1-1.4c0-0.1,0.1-0.2,0.3-0.2c0.1,0,0.2,0.1,0.3,0.3c0.1,0.2,0.2,0.4,0.2,0.6
					c-0.1,0.5-0.2,1-0.4,1.5c-0.2,0.5-0.5,1.1-0.8,1.5c-0.4,0.5-0.8,0.8-1.4,1.2c-0.5,0.3-1.2,0.5-2,0.5c-0.4,0-0.9-0.1-1.5-0.2
					C142.8,82,142.3,81.8,141.8,81.5z M132.5,87.1c0.9,0,1.7-0.2,2.6-0.6c0.8-0.4,1.6-1,2.3-1.6c0.7-0.7,1.3-1.4,1.8-2.2
					c0.5-0.8,0.9-1.6,1.1-2.4c-0.3-0.2-0.7-0.5-1.1-1c-0.4-0.5-0.8-1-1.3-1.6c-0.4-0.6-0.8-1.3-1.1-2.1c-0.3-0.7-0.5-1.5-0.6-2.3
					c-0.1-0.5-0.1-1,0-1.4c0.1-0.4,0.2-0.7,0.2-0.8c-1,0-2,0.4-2.9,1.3c-0.9,0.8-1.8,1.9-2.5,3.1c-0.7,1.2-1.2,2.5-1.6,3.9
					c-0.4,1.4-0.5,2.7-0.4,3.8c0.2,1.3,0.6,2.3,1.2,3C130.8,86.8,131.6,87.1,132.5,87.1z M140.7,78.1c0.3-0.7,0.5-1.4,0.6-2.2
					c0.1-0.8,0.1-1.5,0-2.2c-0.1-0.7-0.4-1.3-0.7-1.7c-0.4-0.5-1-0.7-1.7-0.7c-0.3,0-0.6,0.2-0.7,0.6c-0.2,0.4-0.2,1-0.1,1.6
					c0.1,0.5,0.4,1.3,0.9,2.2C139.4,76.7,140,77.5,140.7,78.1z"/>
				<path class="st1" d="M170,82.3c0,0.8-0.4,1.7-1,2.6c-0.6,0.9-1.4,1.7-2.3,2.4c-0.9,0.7-1.9,1.3-3,1.8c-1.1,0.5-2.1,0.7-3.1,0.7
					c-1.1,0-2-0.3-2.6-0.8c-0.7-0.5-1.1-1.3-1.3-2.2c-0.1-0.9,0-1.9,0.4-3.1c0.4-1.2,0.8-2.4,1.4-3.6c0.5-1.2,1-2.4,1.4-3.6
					c0.4-1.2,0.5-2.2,0.4-3.1c-0.3-0.6-0.9-0.9-1.8-0.9c-1,0-1.9,0.3-2.7,1c-0.8,0.7-1.5,1.5-2.1,2.5c-0.6,1-1.1,2.1-1.6,3.4
					c-0.4,1.3-0.8,2.5-1.2,3.7c-0.4,1.2-0.7,2.4-1,3.4c-0.3,1.1-0.5,1.9-0.8,2.5c-0.2,0.4-0.3,0.6-0.5,0.7c-0.2,0.1-0.6,0.1-1.2,0.1
					c-0.2,0-0.5-0.2-0.7-0.5c-0.3-0.3-0.5-0.9-0.6-1.8c-0.1-0.4-0.1-1-0.1-1.6c0-0.6,0.1-1.2,0.2-1.9v0.1c0.3-1.7,0.8-3.5,1.3-5.4
					c0.5-1.9,1.1-3.6,1.7-5.2c0.6-1.6,1.2-2.9,1.9-3.9c0.6-1,1.2-1.6,1.8-1.6c0.4,0,0.9,0.1,1.3,0.3c0.4,0.2,0.6,0.4,0.7,0.8
					c-0.3,0.8-0.6,1.5-0.7,2.1c-0.2,0.6-0.4,1.2-0.6,1.9c-0.2,0.7-0.4,1.2-0.5,1.6c0.4-0.7,0.9-1.4,1.5-2.1c0.6-0.7,1.2-1.3,1.9-1.9
					c0.7-0.6,1.4-1,2.1-1.4c0.7-0.4,1.4-0.5,2.1-0.5c1,0,1.9,0.2,2.6,0.7c0.7,0.5,1.1,1.2,1.2,2.1c0.1,0.9-0.1,1.9-0.5,3.1
					c-0.4,1.1-0.9,2.3-1.5,3.5c-0.5,1.2-1,2.4-1.4,3.6c-0.4,1.2-0.5,2.4-0.4,3.5c0.1,0.6,0.3,1,0.6,1.3c0.3,0.3,0.9,0.5,1.6,0.5
					c0.9,0,1.8-0.4,2.9-1.3c1.1-0.9,2.1-1.9,3-3.1l0.7-1.1c0,0,0.1-0.1,0.2-0.1c0.2,0,0.3,0.1,0.5,0.2C169.9,82,170,82.1,170,82.3z"
					/>
			</g>
			<g>
				<path class="st1" d="M202.1,48.9c0,0-3.7,4.4-7.2,2.3l-8.4,18l0.1,0l-8,17c0,0,4.8,2.2,2.5,7.3l18.6,8.6c0,0,3.7-4.4,7.2-2.3
					l8.4-18l-0.1,0l8-17c0,0-4.8-2.2-2.5-7.3L202.1,48.9z"/>
			</g>
			<g>
				<path class="st1" d="M266.7,80.6c0.4,0,0.6,0.2,0.7,0.7c0,0.2,0,0.3-0.1,0.5c-0.1,0.2-0.1,0.4-0.2,0.6c-0.4,1.1-1.3,2.2-2.4,3.3
					c-1.2,1.1-2.6,2.2-4.3,3.1c-1.7,0.9-3.6,1.7-5.7,2.3c-2.1,0.6-4.3,0.9-6.6,0.9c-2.6,0-4.8-0.4-6.8-1.1c-2-0.7-3.6-1.7-5-2.9
					c-1.4-1.2-2.5-2.7-3.3-4.4c-0.8-1.7-1.3-3.6-1.5-5.6c-0.2-1.9-0.1-3.8,0.3-5.8c0.4-2,1.1-3.9,2-5.8c0.9-1.9,2.1-3.7,3.6-5.4
					c1.4-1.7,3.1-3.2,4.9-4.5c1.8-1.3,3.9-2.3,6.1-3.1c2.2-0.8,4.6-1.1,7.1-1.1c2.9,0,5.2,0.6,6.9,1.9c1.7,1.3,2.8,3.2,3.1,6
					c0.1,0.9,0.1,1.7-0.2,2.6c-0.2,0.9-0.5,1.7-1,2.4c-0.4,0.7-0.9,1.3-1.5,1.7c-0.6,0.4-1.2,0.7-1.8,0.7c-0.3,0-0.7-0.1-1.1-0.2
					c-0.4-0.1-0.7-0.3-1-0.5c-0.3-0.2-0.6-0.4-0.8-0.7c-0.2-0.3-0.4-0.5-0.4-0.8c0-0.2,0.1-0.4,0.2-0.5c0.1-0.1,0.3-0.3,0.6-0.4
					h-0.1c0.4-0.3,0.9-0.6,1.3-1c0.4-0.4,0.8-0.8,1.1-1.2c0.3-0.4,0.6-0.9,0.7-1.4c0.2-0.5,0.2-1,0.1-1.6c-0.2-1.4-0.8-2.6-1.8-3.4
					c-1-0.8-2.6-1.3-4.8-1.3c-2.2,0-4.1,0.4-5.9,1.2c-1.8,0.8-3.4,1.8-4.8,3.1c-1.4,1.3-2.7,2.8-3.7,4.4c-1.1,1.7-1.9,3.4-2.6,5.2
					c-0.7,1.8-1.1,3.6-1.3,5.3c-0.2,1.8-0.3,3.4-0.1,4.9c0.2,1.5,0.7,3,1.4,4.2c0.7,1.3,1.7,2.4,2.8,3.3c1.1,0.9,2.5,1.6,4.1,2.2
					c1.6,0.5,3.3,0.8,5.1,0.8c1.4,0,2.8-0.1,4.2-0.4c1.3-0.3,2.6-0.7,3.8-1.2c1.2-0.5,2.3-1,3.3-1.7c1-0.7,1.9-1.3,2.7-2.1
					c0.4-0.4,0.8-0.8,1.1-1.1c0.3-0.4,0.5-0.7,0.7-1c0.2-0.3,0.4-0.6,0.5-0.7C266.4,80.7,266.5,80.6,266.7,80.6z"/>
				<path class="st1" d="M277,82.4c0,0.7-0.3,1.5-0.9,2.4c-0.6,0.9-1.3,1.7-2.2,2.5c-0.9,0.8-1.9,1.4-2.9,1.9c-1,0.5-2,0.8-3,0.8
					c-1.3,0-2.2-0.3-2.7-0.8c-0.5-0.5-0.8-1.4-0.9-2.5c-0.1-0.5-0.1-1.3,0-2.3c0.1-1,0.2-2,0.4-3.2c0.2-1.1,0.4-2.3,0.7-3.5
					c0.3-1.2,0.7-2.4,1.1-3.5c0.4-1.1,0.8-2.1,1.3-2.9c0.5-0.9,1-1.5,1.5-1.9c0.4-0.3,0.8-0.4,1.2-0.4c0.6,0,1,0.1,1.2,0.4
					c0.2,0.3,0.3,0.5,0.3,0.8c-0.1,0.7-0.2,1.4-0.4,2.1c-0.2,0.7-0.4,1.3-0.6,2c-0.2,0.7-0.5,1.4-0.8,2.2c-0.3,0.8-0.5,1.6-0.8,2.5
					c-0.1,0.4-0.3,1-0.5,1.5c-0.2,0.6-0.4,1.1-0.5,1.7c-0.2,0.6-0.3,1.1-0.4,1.6c-0.1,0.5-0.1,0.9-0.1,1.3c0.2,1.2,0.9,1.8,2.2,1.8
					c0.9,0,1.8-0.4,2.7-1.2c0.9-0.8,1.8-1.7,2.7-2.8c0.2-0.3,0.4-0.6,0.6-0.9c0.2-0.3,0.4-0.5,0.5-0.5c0.2,0,0.3,0.1,0.3,0.2
					C276.9,82,277,82.2,277,82.4z M272.3,66c-0.4-0.1-0.7-0.3-1-0.7c-0.2-0.4-0.4-1-0.5-1.6c-0.1-1.2,0.1-2.3,0.6-3.1
					c0.5-0.8,1-1.2,1.6-1.2c0.3,0,0.6,0,1,0.1c0.4,0.1,0.7,0.2,1.1,0.4c0.3,0.2,0.6,0.4,0.9,0.6c0.3,0.2,0.4,0.5,0.4,0.8
					c0,0.2-0.1,0.4-0.3,0.6c-0.1,0.2-0.3,0.5-0.5,0.7c-0.5,0.7-0.8,1.2-1.1,1.7c-0.2,0.4-0.4,0.8-0.6,1.1c-0.2,0.3-0.3,0.5-0.5,0.6
					c-0.2,0.1-0.4,0.2-0.6,0.2c-0.1,0-0.2,0-0.3,0C272.6,66.1,272.5,66,272.3,66z"/>
				<path class="st1" d="M298,82.3c0,0.8-0.4,1.7-1,2.6c-0.6,0.9-1.4,1.7-2.3,2.4c-0.9,0.7-1.9,1.3-3,1.8c-1.1,0.5-2.1,0.7-3.1,0.7
					c-1.1,0-2-0.3-2.6-0.8c-0.7-0.5-1.1-1.3-1.3-2.2c-0.1-0.9,0-1.9,0.4-3.1c0.4-1.2,0.8-2.4,1.4-3.6c0.5-1.2,1-2.4,1.4-3.6
					c0.4-1.2,0.5-2.2,0.4-3.1c-0.3-0.6-0.9-0.9-1.8-0.9c-1,0-1.9,0.3-2.7,1c-0.8,0.7-1.5,1.5-2.1,2.5c-0.6,1-1.1,2.1-1.6,3.4
					c-0.4,1.3-0.8,2.5-1.2,3.7c-0.4,1.2-0.7,2.4-1,3.4c-0.3,1.1-0.5,1.9-0.8,2.5c-0.2,0.4-0.3,0.6-0.5,0.7c-0.2,0.1-0.6,0.1-1.2,0.1
					c-0.2,0-0.5-0.2-0.7-0.5c-0.3-0.3-0.5-0.9-0.6-1.8c-0.1-0.4-0.1-1-0.1-1.6c0-0.6,0.1-1.2,0.2-1.9v0.1c0.3-1.7,0.8-3.5,1.3-5.4
					c0.5-1.9,1.1-3.6,1.7-5.2c0.6-1.6,1.2-2.9,1.9-3.9c0.6-1,1.2-1.6,1.8-1.6c0.4,0,0.9,0.1,1.3,0.3c0.4,0.2,0.6,0.4,0.7,0.8
					c-0.3,0.8-0.6,1.5-0.7,2.1c-0.2,0.6-0.4,1.2-0.6,1.9c-0.2,0.7-0.4,1.2-0.5,1.6c0.4-0.7,0.9-1.4,1.5-2.1c0.6-0.7,1.2-1.3,1.9-1.9
					c0.7-0.6,1.4-1,2.1-1.4c0.7-0.4,1.4-0.5,2.1-0.5c1,0,1.9,0.2,2.6,0.7c0.7,0.5,1.1,1.2,1.2,2.1c0.1,0.9-0.1,1.9-0.5,3.1
					c-0.4,1.1-0.9,2.3-1.5,3.5c-0.5,1.2-1,2.4-1.4,3.6c-0.4,1.2-0.5,2.4-0.4,3.5c0.1,0.6,0.3,1,0.6,1.3c0.3,0.3,0.9,0.5,1.6,0.5
					c0.9,0,1.8-0.4,2.9-1.3c1.1-0.9,2.1-1.9,3-3.1l0.7-1.1c0,0,0.1-0.1,0.2-0.1c0.2,0,0.3,0.1,0.5,0.2C297.9,82,298,82.1,298,82.3z"
					/>
				<path class="st1" d="M314.6,81.3c0.2-0.1,0.3-0.2,0.4-0.2c0.2,0,0.3,0.1,0.4,0.3c0.1,0.2,0.1,0.4,0,0.6c-0.2,1-0.7,1.9-1.4,2.9
					c-0.7,0.9-1.6,1.8-2.7,2.5c-1.1,0.8-2.3,1.4-3.6,1.8c-1.3,0.5-2.6,0.7-4,0.7c-2.1,0-3.8-0.5-5.1-1.5c-1.4-1-2.1-2.5-2.3-4.4
					c-0.1-0.8-0.1-1.6,0-2.5c0.1-0.9,0.2-1.8,0.4-2.8c0.2-0.9,0.5-1.9,0.8-2.8c0.3-0.9,0.7-1.7,1.2-2.4c0.3-0.5,0.7-1,1.2-1.6
					c0.5-0.6,1.1-1.1,1.8-1.6c0.7-0.5,1.5-0.9,2.4-1.3c0.9-0.3,1.9-0.5,3-0.5c1.4,0,2.7,0.3,3.7,1c1,0.7,1.6,1.6,1.8,2.7
					c0.2,1.4-0.1,2.6-0.8,3.8c-0.7,1.2-1.6,2.2-2.8,3c-1.2,0.8-2.5,1.4-4,1.7c-1.5,0.3-3,0.3-4.5,0c-0.2,0.9-0.2,1.7-0.2,2.4
					c0.1,0.7,0.2,1.4,0.6,2c0.3,0.6,0.9,1,1.6,1.4c0.7,0.3,1.6,0.5,2.8,0.6c2.1-0.1,3.9-0.6,5.5-1.7
					C312.2,84.3,313.5,82.9,314.6,81.3z M300.7,78.9c1,0.3,1.9,0.4,3,0.2c1-0.2,1.9-0.7,2.7-1.3c0.8-0.6,1.4-1.4,1.9-2.3
					c0.5-0.9,0.7-1.9,0.5-2.9c-0.1-0.6-0.3-1.1-0.7-1.4c-0.4-0.4-1-0.5-1.7-0.5c-0.6,0-1.2,0.2-1.8,0.6c-0.6,0.4-1.1,1-1.6,1.7
					c-0.5,0.8-0.9,1.6-1.3,2.6C301.2,76.7,300.9,77.8,300.7,78.9z"/>
				<path class="st1" d="M313.7,79.8c0.2-1.1,0.5-2.2,0.8-3.5c0.3-1.3,0.7-2.5,1.1-3.7c0.4-1.1,0.8-2.1,1.3-3
					c0.4-0.8,0.9-1.3,1.3-1.4c0.1,0,0.2,0,0.3,0c0.1,0,0.2,0,0.4,0c0.4,0,0.9,0.1,1.3,0.3c0.4,0.2,0.6,0.5,0.6,0.9
					c0,0.2,0,0.4-0.1,0.6c-0.1,0.2-0.2,0.5-0.3,0.8c-0.1,0.3-0.3,0.7-0.5,1.2c-0.2,0.5-0.3,1.1-0.4,1.9c1.1-1.6,2.3-2.8,3.7-3.7
					c1.4-0.9,2.6-1.3,3.5-1.3c1.3,0,2.2,0.4,2.8,1.1c0.6,0.8,0.8,1.8,0.8,3c0.7-0.6,1.4-1.1,1.9-1.6c0.5-0.5,1.1-1,1.6-1.3
					c0.5-0.4,1-0.7,1.5-0.9c0.5-0.2,1.1-0.3,1.7-0.3c1,0,1.9,0.3,2.6,0.9c0.7,0.6,1.1,1.4,1.3,2.4c0.1,1-0.1,2.1-0.5,3.3
					c-0.5,1.2-1,2.3-1.5,3.5c-0.6,1.2-1.1,2.3-1.5,3.5c-0.5,1.1-0.6,2.2-0.5,3.2c0.1,0.5,0.3,1,0.6,1.2c0.4,0.3,1,0.4,1.8,0.4
					c0.6,0,1.2-0.2,1.8-0.7c0.6-0.4,1.3-1,1.9-1.6c0.6-0.6,1.1-1.2,1.6-1.9c0.5-0.6,0.8-1.1,1-1.5c0.1-0.1,0.2-0.1,0.3-0.1
					c0.2,0,0.3,0.1,0.3,0.2c0.1,0.1,0.1,0.2,0.1,0.4c0.1,0.7-0.1,1.4-0.6,2.3c-0.5,0.9-1.2,1.8-2.1,2.6c-0.9,0.8-1.9,1.6-3,2.1
					c-1.1,0.6-2.1,0.9-3,0.9c-1.2,0-2.2-0.3-3.1-0.8c-0.8-0.5-1.3-1.3-1.5-2.4c-0.1-0.9,0-1.8,0.4-3c0.4-1.1,0.8-2.3,1.3-3.4
					c0.5-1.2,0.9-2.3,1.3-3.5c0.4-1.1,0.5-2.2,0.4-3.1c0-0.3-0.2-0.5-0.5-0.6c-0.3-0.2-0.6-0.2-1.1-0.2c-0.8,0-1.6,0.3-2.3,0.8
					c-0.7,0.5-1.4,1.3-2,2.2c-0.6,0.9-1.2,1.9-1.7,3c-0.5,1.1-1,2.3-1.4,3.5c-0.4,1.2-0.8,2.4-1.1,3.5c-0.3,1.1-0.6,2.1-0.8,3
					c-0.1,0.4-0.2,0.7-0.3,0.9c-0.1,0.2-0.3,0.3-0.6,0.3c-0.5,0-0.9-0.1-1.4-0.3c-0.4-0.2-0.7-0.5-0.9-1c0-1.3,0.2-2.7,0.7-4
					c0.4-1.4,0.9-2.7,1.5-4c0.5-1.3,1-2.5,1.4-3.7c0.4-1.2,0.5-2.3,0.4-3.3c-0.1-0.3-0.3-0.6-0.8-0.8c-0.4-0.2-0.9-0.3-1.4-0.3
					c-0.9,0-1.6,0.3-2.4,0.8c-0.7,0.5-1.4,1.3-1.9,2.1c-0.6,0.9-1.1,1.8-1.5,2.9c-0.4,1.1-0.8,2.2-1.1,3.2c-0.3,1.1-0.6,2.1-0.8,3
					c-0.2,0.9-0.4,1.7-0.6,2.3c-0.1,0.3-0.2,0.7-0.3,1c-0.1,0.4-0.2,0.7-0.3,1c-0.1,0.3-0.3,0.6-0.5,0.8c-0.2,0.2-0.5,0.3-0.9,0.3
					c-0.1,0-0.1,0-0.2,0c-0.1,0-0.2-0.1-0.2-0.1c-0.5-0.2-0.8-0.8-0.9-1.8c0-0.3,0-0.9,0.1-1.7c0.1-0.8,0.2-1.6,0.3-2.4
					c0.1-0.8,0.2-1.6,0.4-2.4C313.6,80.7,313.7,80.1,313.7,79.8z"/>
				<path class="st1" d="M367.8,82.4c0,0.7-0.3,1.5-0.9,2.4c-0.5,0.9-1.2,1.7-2.1,2.5c-0.8,0.8-1.8,1.4-2.8,2
					c-1,0.5-2.1,0.8-3.1,0.8c-1.3,0-2.2-0.3-2.8-0.9c-0.5-0.6-0.9-1.7-1.1-3.3c-1,1.5-2,2.6-3.1,3.2c-1.1,0.6-2.1,0.9-3.1,0.9
					c-1.4,0-2.6-0.4-3.7-1.2c-1.1-0.8-1.7-1.9-1.8-3.3c-0.1-1.2-0.1-2.4,0.3-3.8c0.3-1.3,0.8-2.6,1.4-3.8c0.7-1.2,1.4-2.4,2.3-3.5
					c0.9-1.1,1.8-2.1,2.8-2.9c1-0.8,2-1.5,3.1-2c1-0.5,2-0.7,3-0.7c0.6,0,1.1,0.1,1.6,0.4c0.5,0.2,0.8,0.5,1.1,0.8l0.4-1.5
					c0.1-0.2,0.2-0.3,0.5-0.4c0.3,0,0.5-0.1,0.6-0.1c0.3,0,0.6,0,0.8,0.1c0.3,0.1,0.6,0.1,0.8,0.2c0.3,0.1,0.5,0.2,0.6,0.4
					c0.2,0.2,0.2,0.4,0.2,0.6c0,0.7-0.2,1.6-0.4,2.6c-0.3,1-0.6,2.1-1,3.3c-0.4,1.2-0.8,2.5-1.3,3.9c-0.5,1.4-0.9,2.9-1.4,4.5
					c-0.3,0.8-0.4,1.5-0.3,2c0.1,0.5,0.3,1,0.6,1.2c0.3,0.3,0.8,0.4,1.6,0.4c0.9,0,1.8-0.4,2.9-1.3c1-0.9,2-1.9,2.9-3.1l0.6-1.1
					c0,0,0.1-0.1,0.2-0.1c0.2,0,0.3,0.1,0.4,0.3C367.7,82,367.8,82.2,367.8,82.4z M350.6,86.9c1.3-0.1,2.4-0.7,3.2-1.7
					c0.8-1,1.5-2.3,2-3.9c0.4-1.7,0.9-3.4,1.4-4.9c0.5-1.6,0.9-3.1,1.3-4.7c-0.1-0.4-0.3-0.7-0.7-0.8c-0.3-0.2-0.8-0.2-1.4-0.2
					c-0.8,0-1.5,0.3-2.3,0.8c-0.8,0.5-1.5,1.2-2.1,2.1c-0.7,0.8-1.3,1.8-1.9,2.8c-0.6,1-1,2.1-1.4,3.1c-0.4,1-0.7,2-0.9,2.9
					c-0.2,0.9-0.2,1.7-0.2,2.3c0.1,0.8,0.4,1.4,0.9,1.8C349,86.7,349.7,86.9,350.6,86.9z"/>
			</g>
		</g>
	</g>
	<g>
		<g>
			<circle class="st1" cx="75" cy="230.8" r="20.3"/>
			<g>
				<g>
					<path class="st0" d="M76.3,214.8H79v27.6h-2.8v-23.1l-6.6,6.5l-1.5-1.5L76.3,214.8z"/>
				</g>
			</g>
		</g>
		<g>
			<circle class="st1" cx="129.1" cy="230.8" r="20.3"/>
			<g>
				<g>
					<path class="st0" d="M120.6,240.6c0-1.2,0.3-2.3,0.8-3.3c0.6-1,1.2-1.9,2-2.7c0.8-0.8,1.9-1.8,3.3-2.9c0.9-0.7,1.3-1.1,1.4-1.1
						c1.8-1.5,3.1-2.9,4.1-4.4c1-1.4,1.5-3.1,1.5-4.9c0-1.3-0.4-2.3-1.3-3.1c-0.9-0.8-2-1.2-3.5-1.2c-1.3,0-2.5,0.3-3.6,1
						c-1.1,0.7-2.1,1.6-3.1,2.9l-2.2-1.9c1.1-1.5,2.4-2.6,4-3.5s3.2-1.3,4.9-1.3c2.4,0,4.3,0.6,5.7,1.9c1.4,1.3,2.1,3,2.1,5.2
						c0,2.3-0.6,4.3-1.9,6.1s-3.1,3.6-5.3,5.5c-0.6,0.5-0.8,0.7-0.8,0.7c-1.7,1.4-2.9,2.5-3.7,3.4c-0.8,0.9-1.2,1.8-1.2,2.7h13.4
						v2.8h-16.6V240.6z"/>
				</g>
			</g>
		</g>
		<g>
			<circle class="st1" cx="183.2" cy="230.8" r="20.3"/>
			<g>
				<g>
					<path class="st0" d="M190.1,230.3c0.9,1.3,1.4,2.8,1.4,4.5c0,1.6-0.4,3-1.2,4.2c-0.8,1.3-1.8,2.2-3.2,2.9
						c-1.3,0.7-2.8,1.1-4.4,1.1c-2,0-3.7-0.5-5.1-1.5c-1.4-1-2.5-2.4-3.2-4.1l2.4-1.4c0.6,1.4,1.5,2.5,2.5,3.3
						c1,0.8,2.2,1.2,3.5,1.2c1.6,0,2.9-0.5,4-1.6c1.1-1.1,1.6-2.4,1.6-4c0-1.7-0.5-3-1.6-4.1c-1.1-1.1-2.5-1.6-4.1-1.6h-1.9v-2.5
						h1.8c1.5,0,2.7-0.5,3.6-1.4c0.9-1,1.3-2.2,1.3-3.7c0-1.4-0.4-2.5-1.3-3.4c-0.8-0.9-1.9-1.3-3.3-1.3c-1.4,0-2.6,0.4-3.6,1.2
						c-1,0.8-1.8,1.9-2.5,3.3l-2.2-1.2c0.8-1.8,1.9-3.2,3.3-4.2c1.4-1,3.1-1.6,5-1.6c1.4,0,2.7,0.3,3.8,0.9c1.1,0.6,2,1.5,2.6,2.6
						c0.6,1.1,1,2.3,1,3.7c0,1.5-0.3,2.7-1,3.9c-0.7,1.1-1.6,1.9-2.9,2.4C188,228.2,189.2,229,190.1,230.3z"/>
				</g>
			</g>
		</g>
		<g>
			<circle class="st1" cx="237.3" cy="230.8" r="20.3"/>
			<g>
				<g>
					<path class="st0" d="M247,233.5v2.8h-3.5v6.1h-2.8v-6.1h-13.8v-2.8l13.8-18.7h2.8v18.7H247z M229.8,233.5h10.9v-14.4
						L229.8,233.5z"/>
				</g>
			</g>
		</g>
		<g>
			<circle class="st1" cx="291.4" cy="230.8" r="20.3"/>
			<g>
				<g>
					<path class="st0" d="M297.9,226.9c1.5,1.6,2.2,3.9,2.2,6.8c0,2.9-0.8,5.2-2.4,6.9s-3.8,2.5-6.6,2.5c-1.8,0-3.5-0.3-5.1-1
						c-1.6-0.6-2.8-1.5-3.8-2.7l2.1-1.5c0.7,0.8,1.6,1.5,2.8,1.9c1.2,0.5,2.5,0.7,4,0.7c1.9,0,3.5-0.6,4.5-1.8
						c1.1-1.2,1.6-2.9,1.6-5c0-2.1-0.6-3.7-1.6-4.9c-1.1-1.2-2.5-1.8-4.4-1.8c-1.2,0-2.4,0.2-3.8,0.6c-1.3,0.4-2.6,0.9-3.7,1.6
						v-14.4h14.8v2.8h-12.1v7.8c1.7-0.6,3.4-0.9,5-0.9C294.3,224.5,296.4,225.3,297.9,226.9z"/>
				</g>
			</g>
		</g>
		<g>
			<circle class="st1" cx="345.5" cy="230.8" r="20.3"/>
			<g>
				<g>
					<path class="st0" d="M349.9,224.9c1.4,0.8,2.5,2,3.3,3.5c0.8,1.5,1.2,3.1,1.2,5s-0.4,3.5-1.2,5c-0.8,1.5-1.9,2.6-3.3,3.5
						c-1.4,0.8-2.9,1.3-4.7,1.3c-1.7,0-3.3-0.5-4.7-1.4c-1.4-0.9-2.5-2.2-3.3-3.9c-0.8-1.7-1.2-3.6-1.2-5.7c0-3.9,0.7-7.2,2-9.9
						s3.2-4.7,5.5-6c2.3-1.3,4.9-2,7.8-2v2.6c-3.3,0-6,0.9-8.1,2.6c-2.1,1.7-3.5,4.2-4.1,7.4c0.6-1,1.4-1.8,2.6-2.3s2.3-0.8,3.5-0.8
						C346.9,223.6,348.5,224,349.9,224.9z M348.5,239.6c1-0.6,1.8-1.5,2.3-2.6c0.6-1.1,0.8-2.3,0.8-3.7s-0.3-2.6-0.8-3.7
						c-0.6-1.1-1.3-1.9-2.3-2.6c-1-0.6-2.1-0.9-3.3-0.9c-2,0-3.5,0.6-4.7,1.9c-1.1,1.3-1.7,2.9-1.7,4.8c0,1.5,0.3,2.8,0.8,3.9
						c0.6,1.2,1.3,2.1,2.3,2.7c1,0.6,2,1,3.2,1C346.4,240.5,347.5,240.2,348.5,239.6z"/>
				</g>
			</g>
		</g>
	</g>
	<g>
		<path class="st1" d="M140.9,143h2.6l-6.4,17.6h-2.8l-6.4-17.6h2.7l5.2,14.9L140.9,143z"/>
		<path class="st1" d="M162.2,143v17.6h-2.6V158c-0.7,1-1.6,1.8-2.7,2.4c-1.1,0.6-2.2,0.8-3.5,0.8c-1.7,0-3.2-0.4-4.5-1.2
			c-1.3-0.8-2.4-1.9-3.1-3.4s-1.1-3.1-1.1-4.9c0-1.8,0.4-3.4,1.1-4.8c0.7-1.4,1.8-2.5,3.1-3.3c1.3-0.8,2.8-1.2,4.5-1.2
			c1.3,0,2.5,0.3,3.5,0.8c1.1,0.6,2,1.4,2.7,2.4V143H162.2z M156.7,157.9c0.9-0.6,1.7-1.4,2.2-2.5c0.5-1.1,0.8-2.3,0.8-3.7
			c0-1.4-0.3-2.6-0.8-3.7c-0.5-1.1-1.3-1.9-2.2-2.5c-0.9-0.6-2-0.9-3.2-0.9c-1.2,0-2.2,0.3-3.2,0.9c-0.9,0.6-1.7,1.4-2.2,2.5
			c-0.5,1.1-0.8,2.3-0.8,3.6c0,1.4,0.3,2.6,0.8,3.7c0.5,1.1,1.3,1.9,2.2,2.5c0.9,0.6,2,0.9,3.2,0.9
			C154.7,158.9,155.7,158.5,156.7,157.9z"/>
		<path class="st1" d="M167.2,160.6v-27.3h2.6v27.3H167.2z"/>
		<path class="st1" d="M190.1,143v17.6h-2.6v-2.9c-0.6,1.1-1.4,2-2.4,2.6c-1,0.6-2.1,0.9-3.4,0.9c-1.2,0-2.4-0.3-3.4-0.8
			c-1-0.5-1.9-1.2-2.5-2.2c-0.6-1-0.9-2.1-0.9-3.5V143h2.6v10.7c0,3.5,1.6,5.2,4.7,5.2c1.8,0,3.2-0.6,4.1-1.9c0.9-1.3,1.4-3,1.4-5.2
			V143H190.1z"/>
		<path class="st1" d="M206.7,143.5c1.3,0.8,2.3,1.8,3,3.2c0.7,1.3,1.1,2.8,1.1,4.5c0,0.5,0,0.8,0,1.1h-14.5
			c0.1,1.8,0.7,3.4,1.8,4.6c1.1,1.3,2.5,1.9,4.4,1.9c1.5,0,2.8-0.3,3.7-0.8c1-0.6,1.8-1.3,2.4-2.4l2,1.4c-0.8,1.3-1.9,2.3-3.3,3.1
			c-1.4,0.7-3,1.1-4.8,1.1c-1.7,0-3.2-0.4-4.6-1.2c-1.3-0.8-2.4-1.9-3.1-3.4s-1.1-3-1.1-4.9c0-1.8,0.4-3.4,1.1-4.9
			c0.7-1.4,1.8-2.5,3.1-3.4c1.3-0.8,2.8-1.2,4.5-1.2C204,142.4,205.4,142.7,206.7,143.5z M208.3,150.2c-0.3-1.8-0.9-3.2-1.8-4.1
			c-1-0.9-2.3-1.4-4-1.4c-1.6,0-3,0.5-4,1.6c-1,1-1.7,2.4-2,3.9H208.3z"/>
		<path class="st1" d="M226.1,160c-1.3-0.8-2.4-1.9-3.1-3.4c-0.8-1.4-1.1-3-1.1-4.9c0-1.8,0.4-3.4,1.1-4.9c0.7-1.4,1.8-2.5,3.1-3.4
			c1.3-0.8,2.8-1.2,4.5-1.2c1.4,0,2.7,0.3,3.7,0.9c1.1,0.6,2,1.5,2.9,2.6l-1.9,1.5c-1.2-1.8-2.8-2.7-4.8-2.7c-1.2,0-2.2,0.3-3.2,0.9
			c-0.9,0.6-1.7,1.4-2.2,2.5c-0.5,1.1-0.8,2.3-0.8,3.7c0,1.4,0.3,2.6,0.8,3.7c0.5,1.1,1.3,1.9,2.2,2.5c0.9,0.6,2,0.9,3.2,0.9
			c1.2,0,2.2-0.2,3-0.6c0.8-0.4,1.5-1,2.1-1.8l2,1.4c-0.8,1-1.9,1.9-3.1,2.5c-1.2,0.6-2.5,0.9-3.9,0.9
			C228.9,161.2,227.4,160.8,226.1,160z"/>
		<path class="st1" d="M257.3,143v17.6h-2.6V158c-0.7,1-1.6,1.8-2.7,2.4c-1.1,0.6-2.2,0.8-3.5,0.8c-1.7,0-3.2-0.4-4.5-1.2
			c-1.3-0.8-2.4-1.9-3.1-3.4s-1.1-3.1-1.1-4.9c0-1.8,0.4-3.4,1.1-4.8c0.7-1.4,1.8-2.5,3.1-3.3c1.3-0.8,2.8-1.2,4.5-1.2
			c1.3,0,2.5,0.3,3.5,0.8c1.1,0.6,2,1.4,2.7,2.4V143H257.3z M251.8,157.9c0.9-0.6,1.7-1.4,2.2-2.5c0.5-1.1,0.8-2.3,0.8-3.7
			c0-1.4-0.3-2.6-0.8-3.7c-0.5-1.1-1.3-1.9-2.2-2.5c-0.9-0.6-2-0.9-3.2-0.9c-1.2,0-2.2,0.3-3.2,0.9c-0.9,0.6-1.7,1.4-2.2,2.5
			c-0.5,1.1-0.8,2.3-0.8,3.6c0,1.4,0.3,2.6,0.8,3.7c0.5,1.1,1.3,1.9,2.2,2.5c0.9,0.6,2,0.9,3.2,0.9
			C249.8,158.9,250.8,158.5,251.8,157.9z"/>
		<path class="st1" d="M272.5,142.6v2.3c-0.5-0.2-1.1-0.4-1.7-0.4c-1.1,0-2.1,0.3-3,0.9c-0.9,0.6-1.7,1.5-2.2,2.6
			c-0.6,1.1-0.8,2.5-0.8,4v8.4h-2.6V143h2.6v3.5c0.7-1.3,1.5-2.3,2.6-3c1-0.7,2.2-1.1,3.5-1.1C271.3,142.4,271.9,142.4,272.5,142.6z
			"/>
		<path class="st1" d="M290.8,133.2v27.3h-2.6V158c-0.7,1-1.6,1.8-2.7,2.4c-1.1,0.6-2.2,0.8-3.5,0.8c-1.7,0-3.2-0.4-4.5-1.2
			c-1.3-0.8-2.4-1.9-3.1-3.4s-1.1-3.1-1.1-4.9c0-1.8,0.4-3.4,1.1-4.8c0.7-1.4,1.8-2.5,3.1-3.3c1.3-0.8,2.8-1.2,4.5-1.2
			c1.3,0,2.5,0.3,3.5,0.8c1.1,0.6,2,1.4,2.7,2.4v-12.3H290.8z M285.3,157.9c0.9-0.6,1.7-1.4,2.2-2.5c0.5-1.1,0.8-2.3,0.8-3.7
			c0-1.4-0.3-2.6-0.8-3.7c-0.5-1.1-1.3-1.9-2.2-2.5c-0.9-0.6-2-0.9-3.2-0.9c-1.2,0-2.2,0.3-3.2,0.9c-0.9,0.6-1.7,1.4-2.2,2.5
			c-0.5,1.1-0.8,2.3-0.8,3.6c0,1.4,0.3,2.6,0.8,3.7c0.5,1.1,1.3,1.9,2.2,2.5c0.9,0.6,2,0.9,3.2,0.9
			C283.3,158.9,284.3,158.5,285.3,157.9z"/>
	</g>
</g>
</svg>
