<?xml version="1.0" encoding="utf-8"?>
<!-- Generator: Adobe Illustrator 22.0.1, SVG Export Plug-In . SVG Version: 6.00 Build 0)  -->
<svg version="1.1" id="Layer_1" xmlns="http://www.w3.org/2000/svg" xmlns:xlink="http://www.w3.org/1999/xlink" x="0px" y="0px"
	 viewBox="0 0 360 648" style="enable-background:new 0 0 360 648;" xml:space="preserve">
<style type="text/css">
	.st0{fill:#CB597C;}
	.st1{fill:none;stroke:#FFFFFF;stroke-width:2;stroke-miterlimit:10;}
	.st2{fill:none;stroke:#FFFFFF;stroke-width:6;stroke-miterlimit:10;}
	.st3{fill:#FFFFFF;}
</style>
<g>
	<g>
		<g>
			<path class="st0" d="M330.6,43.9c0,0-33.3-9-30.5-33.2L181.5,9.9l0,0.4L69.2,9.5c0,0,0.1,31.5-33.4,32.1L36,163.9
				c0,0,33.3,9,30.5,33.2l118.5,0.7l0-0.4l112.3,0.8c0,0-0.1-31.5,33.4-32.1L330.6,43.9z"/>
			<path class="st1" d="M276.6,179.4H90c-16.1,0-29.1-13-29.1-29.1V55.5c0-16.1,13-29.1,29.1-29.1h186.5c16.1,0,29.1,13,29.1,29.1
				v94.7C305.7,166.4,292.6,179.4,276.6,179.4z"/>
			<line class="st2" x1="187.7" y1="49.1" x2="187.7" y2="158.6"/>
		</g>
		<g>
			<path class="st3" d="M91.7,95.1c-0.7-0.5-1.3-1.2-1.7-2.2c-0.4-0.9-0.6-2.1-0.6-3.4c0-1.3,0.2-2.5,0.6-3.4c0.4-1,1-1.7,1.7-2.2
				c0.7-0.5,1.6-0.8,2.6-0.8c0.9,0,1.7,0.2,2.4,0.6c0.7,0.4,1.3,1,1.7,1.9l-1,0.7c-0.7-1.3-1.8-2-3.1-2c-1.1,0-2,0.5-2.6,1.4
				c-0.6,0.9-0.9,2.2-0.9,3.8c0,1.6,0.3,2.8,0.9,3.8c0.6,0.9,1.5,1.4,2.6,1.4c0.6,0,1.2-0.1,1.7-0.4c0.5-0.3,0.9-0.7,1.2-1.3
				c0.3-0.6,0.4-1.3,0.4-2.1h-2.9v-1.1h4.2v1.1c0,1.1-0.2,2-0.6,2.8c-0.4,0.8-0.9,1.3-1.6,1.7c-0.7,0.4-1.5,0.6-2.4,0.6
				C93.4,95.9,92.5,95.6,91.7,95.1z"/>
			<path class="st3" d="M106.4,87.5c0.6,0.4,1.1,0.9,1.4,1.5c0.3,0.6,0.5,1.3,0.5,2.1c0,0.2,0,0.4,0,0.5h-6.8c0,0.9,0.3,1.6,0.8,2.2
				c0.5,0.6,1.2,0.9,2.1,0.9c0.7,0,1.3-0.1,1.8-0.4c0.5-0.3,0.8-0.6,1.1-1.1l1,0.6c-0.4,0.6-0.9,1.1-1.5,1.4
				c-0.6,0.3-1.4,0.5-2.3,0.5c-0.8,0-1.5-0.2-2.1-0.6c-0.6-0.4-1.1-0.9-1.5-1.6c-0.4-0.7-0.5-1.4-0.5-2.3c0-0.9,0.2-1.6,0.5-2.3
				c0.3-0.7,0.8-1.2,1.5-1.6s1.3-0.6,2.1-0.6C105.1,87,105.8,87.2,106.4,87.5z M107.1,90.7c-0.1-0.9-0.4-1.5-0.9-1.9
				c-0.5-0.4-1.1-0.6-1.9-0.6c-0.8,0-1.4,0.2-1.9,0.7c-0.5,0.5-0.8,1.1-0.9,1.9H107.1z"/>
			<path class="st3" d="M115.7,87.3c0.5,0.2,0.9,0.6,1.2,1c0.3,0.5,0.4,1,0.4,1.6v5.6h-1.2v-5c0-1.6-0.7-2.5-2.2-2.5
				c-0.9,0-1.5,0.3-1.9,0.9s-0.6,1.4-0.6,2.4v4.2h-1.2v-8.3h1.2v1.4c0.3-0.5,0.7-0.9,1.1-1.2c0.5-0.3,1-0.4,1.6-0.4
				C114.7,87,115.2,87.1,115.7,87.3z"/>
			<path class="st3" d="M125.2,87.5c0.6,0.4,1.1,0.9,1.4,1.5c0.3,0.6,0.5,1.3,0.5,2.1c0,0.2,0,0.4,0,0.5h-6.8c0,0.9,0.3,1.6,0.8,2.2
				c0.5,0.6,1.2,0.9,2.1,0.9c0.7,0,1.3-0.1,1.8-0.4c0.5-0.3,0.8-0.6,1.1-1.1l1,0.6c-0.4,0.6-0.9,1.1-1.5,1.4
				c-0.6,0.3-1.4,0.5-2.3,0.5c-0.8,0-1.5-0.2-2.1-0.6c-0.6-0.4-1.1-0.9-1.5-1.6c-0.4-0.7-0.5-1.4-0.5-2.3c0-0.9,0.2-1.6,0.5-2.3
				c0.3-0.7,0.8-1.2,1.5-1.6c0.6-0.4,1.3-0.6,2.1-0.6C124,87,124.6,87.2,125.2,87.5z M126,90.7c-0.1-0.9-0.4-1.5-0.9-1.9
				c-0.5-0.4-1.1-0.6-1.9-0.6c-0.8,0-1.4,0.2-1.9,0.7c-0.5,0.5-0.8,1.1-0.9,1.9H126z"/>
			<path class="st3" d="M133.9,87.1v1.1c-0.2-0.1-0.5-0.2-0.8-0.2c-0.5,0-1,0.1-1.4,0.4c-0.4,0.3-0.8,0.7-1.1,1.2
				c-0.3,0.5-0.4,1.2-0.4,1.9v4H129v-8.3h1.2v1.7c0.3-0.6,0.7-1.1,1.2-1.4c0.5-0.3,1-0.5,1.7-0.5C133.3,87,133.6,87,133.9,87.1z"/>
			<path class="st3" d="M142.7,87.3v8.3h-1.2v-1.2c-0.3,0.5-0.8,0.8-1.3,1.1s-1,0.4-1.6,0.4c-0.8,0-1.5-0.2-2.1-0.6
				c-0.6-0.4-1.1-0.9-1.5-1.6c-0.4-0.7-0.5-1.4-0.5-2.3c0-0.9,0.2-1.6,0.5-2.3c0.3-0.7,0.8-1.2,1.5-1.6s1.3-0.6,2.1-0.6
				c0.6,0,1.2,0.1,1.7,0.4c0.5,0.3,0.9,0.6,1.3,1.1v-1.2H142.7z M140.1,94.3c0.4-0.3,0.8-0.7,1-1.2c0.2-0.5,0.4-1.1,0.4-1.7
				c0-0.6-0.1-1.2-0.4-1.7c-0.2-0.5-0.6-0.9-1-1.2c-0.4-0.3-0.9-0.4-1.5-0.4c-0.6,0-1.1,0.1-1.5,0.4c-0.4,0.3-0.8,0.7-1,1.2
				c-0.2,0.5-0.4,1.1-0.4,1.7c0,0.7,0.1,1.2,0.4,1.7c0.2,0.5,0.6,0.9,1,1.2c0.4,0.3,0.9,0.4,1.5,0.4
				C139.1,94.8,139.6,94.6,140.1,94.3z"/>
			<path class="st3" d="M145,95.6V82.7h1.2v12.9H145z"/>
			<path class="st3" d="M97.9,116.9l-1.2-3.4h-5l-1.1,3.4h-1.3l4.3-12.1h1.2l4.4,12.1H97.9z M92,112.4h4.2l-2.2-5.9L92,112.4z"/>
			<path class="st3" d="M108.1,104v12.9h-1.2v-1.2c-0.3,0.5-0.8,0.8-1.3,1.1c-0.5,0.3-1,0.4-1.6,0.4c-0.8,0-1.5-0.2-2.1-0.6
				c-0.6-0.4-1.1-0.9-1.5-1.6s-0.5-1.4-0.5-2.3c0-0.9,0.2-1.6,0.5-2.3c0.3-0.7,0.8-1.2,1.5-1.6c0.6-0.4,1.3-0.6,2.1-0.6
				c0.6,0,1.2,0.1,1.7,0.4c0.5,0.3,0.9,0.6,1.3,1.1V104H108.1z M105.5,115.6c0.4-0.3,0.8-0.7,1-1.2c0.2-0.5,0.4-1.1,0.4-1.7
				c0-0.6-0.1-1.2-0.4-1.7c-0.2-0.5-0.6-0.9-1-1.2c-0.4-0.3-0.9-0.4-1.5-0.4c-0.6,0-1.1,0.1-1.5,0.4c-0.4,0.3-0.8,0.7-1,1.2
				c-0.2,0.5-0.4,1.1-0.4,1.7c0,0.7,0.1,1.2,0.4,1.7c0.2,0.5,0.6,0.9,1,1.2c0.4,0.3,0.9,0.4,1.5,0.4
				C104.6,116,105.1,115.9,105.5,115.6z"/>
			<path class="st3" d="M121.1,109.1c0.5,0.5,0.8,1.3,0.8,2.2v5.6h-1.2v-5c0-0.9-0.2-1.5-0.5-1.9c-0.3-0.4-0.8-0.6-1.3-0.6
				c-0.7,0-1.2,0.3-1.5,0.8c-0.4,0.5-0.6,1.2-0.6,2v4.7h-1.2v-5c0-0.9-0.2-1.5-0.5-1.9c-0.3-0.4-0.8-0.6-1.3-0.6
				c-0.7,0-1.3,0.3-1.6,0.9c-0.4,0.6-0.5,1.4-0.5,2.4v4.2h-1.2v-8.3h1.2v1.3c0.3-0.5,0.6-0.9,1-1.2s0.9-0.4,1.4-0.4
				c0.6,0,1.1,0.2,1.6,0.5c0.4,0.3,0.8,0.8,0.9,1.4c0.3-0.6,0.6-1.1,1.1-1.4c0.4-0.3,1-0.5,1.6-0.5
				C120,108.3,120.6,108.5,121.1,109.1z"/>
			<path class="st3" d="M124.6,106.7c-0.2-0.2-0.3-0.4-0.3-0.7c0-0.3,0.1-0.5,0.3-0.7c0.2-0.2,0.4-0.3,0.7-0.3
				c0.3,0,0.5,0.1,0.7,0.3c0.2,0.2,0.3,0.4,0.3,0.7c0,0.3-0.1,0.5-0.3,0.7c-0.2,0.2-0.4,0.3-0.7,0.3
				C125,106.9,124.8,106.9,124.6,106.7z M124.7,116.9v-8.3h1.2v8.3H124.7z"/>
			<path class="st3" d="M129.6,116.6c-0.6-0.3-1.1-0.8-1.4-1.5l1.1-0.5c0.4,0.9,1.3,1.4,2.6,1.4c0.6,0,1.1-0.1,1.5-0.3
				c0.4-0.2,0.6-0.6,0.6-1c0-0.5-0.2-0.8-0.5-1.1c-0.3-0.2-0.9-0.4-1.7-0.5c-1.1-0.1-1.9-0.3-2.4-0.8c-0.5-0.4-0.7-1-0.7-1.6
				c0-0.8,0.3-1.4,0.8-1.8c0.6-0.4,1.3-0.6,2.3-0.6c1.6,0,2.8,0.7,3.4,2l-1.1,0.5c-0.2-0.5-0.5-0.8-0.9-1c-0.4-0.2-0.9-0.3-1.5-0.3
				c-0.6,0-1.1,0.1-1.4,0.3c-0.3,0.2-0.5,0.5-0.5,1c0,0.4,0.2,0.7,0.5,0.9c0.3,0.2,0.9,0.4,1.8,0.5c1.1,0.1,1.8,0.4,2.4,0.8
				s0.8,1,0.8,1.7c0,0.6-0.2,1-0.5,1.4c-0.3,0.4-0.7,0.7-1.3,0.9c-0.5,0.2-1.1,0.3-1.7,0.3C130.9,117.1,130.2,117,129.6,116.6z"/>
			<path class="st3" d="M137.8,116.6c-0.6-0.3-1.1-0.8-1.4-1.5l1.1-0.5c0.4,0.9,1.3,1.4,2.6,1.4c0.6,0,1.1-0.1,1.5-0.3
				c0.4-0.2,0.6-0.6,0.6-1c0-0.5-0.2-0.8-0.5-1.1c-0.3-0.2-0.9-0.4-1.7-0.5c-1.1-0.1-1.9-0.3-2.4-0.8c-0.5-0.4-0.7-1-0.7-1.6
				c0-0.8,0.3-1.4,0.8-1.8c0.6-0.4,1.3-0.6,2.3-0.6c1.6,0,2.8,0.7,3.4,2l-1.1,0.5c-0.2-0.5-0.5-0.8-0.9-1c-0.4-0.2-0.9-0.3-1.5-0.3
				c-0.6,0-1.1,0.1-1.4,0.3c-0.3,0.2-0.5,0.5-0.5,1c0,0.4,0.2,0.7,0.5,0.9c0.3,0.2,0.9,0.4,1.8,0.5c1.1,0.1,1.8,0.4,2.4,0.8
				c0.5,0.4,0.8,1,0.8,1.7c0,0.6-0.2,1-0.5,1.4c-0.3,0.4-0.7,0.7-1.3,0.9c-0.5,0.2-1.1,0.3-1.7,0.3
				C139.2,117.1,138.4,117,137.8,116.6z"/>
			<path class="st3" d="M145.8,106.7c-0.2-0.2-0.3-0.4-0.3-0.7c0-0.3,0.1-0.5,0.3-0.7c0.2-0.2,0.4-0.3,0.7-0.3
				c0.3,0,0.5,0.1,0.7,0.3c0.2,0.2,0.3,0.4,0.3,0.7c0,0.3-0.1,0.5-0.3,0.7c-0.2,0.2-0.4,0.3-0.7,0.3
				C146.2,106.9,146,106.9,145.8,106.7z M145.9,116.9v-8.3h1.2v8.3H145.9z"/>
			<path class="st3" d="M151.5,116.6c-0.6-0.4-1.1-0.9-1.5-1.6c-0.4-0.7-0.5-1.4-0.5-2.3s0.2-1.6,0.5-2.3c0.3-0.7,0.8-1.2,1.5-1.6
				s1.3-0.6,2.1-0.6c0.8,0,1.5,0.2,2.1,0.6c0.6,0.4,1.1,0.9,1.5,1.6c0.4,0.7,0.5,1.4,0.5,2.3c0,0.9-0.2,1.6-0.5,2.3
				c-0.3,0.7-0.8,1.2-1.5,1.6c-0.6,0.4-1.3,0.6-2.1,0.6C152.8,117.1,152.1,117,151.5,116.6z M155.1,115.6c0.4-0.3,0.8-0.7,1-1.2
				c0.2-0.5,0.4-1.1,0.4-1.7c0-0.6-0.1-1.2-0.4-1.7c-0.2-0.5-0.6-0.9-1-1.2c-0.4-0.3-0.9-0.4-1.5-0.4c-0.6,0-1.1,0.1-1.5,0.4
				c-0.4,0.3-0.8,0.7-1,1.2c-0.2,0.5-0.4,1.1-0.4,1.7c0,0.7,0.1,1.2,0.4,1.7c0.2,0.5,0.6,0.9,1,1.2c0.4,0.3,0.9,0.4,1.5,0.4
				C154.2,116,154.7,115.9,155.1,115.6z"/>
			<path class="st3" d="M165,108.6c0.5,0.2,0.9,0.6,1.2,1c0.3,0.5,0.4,1,0.4,1.6v5.6h-1.2v-5c0-1.6-0.7-2.5-2.2-2.5
				c-0.9,0-1.5,0.3-1.9,0.9c-0.4,0.6-0.6,1.4-0.6,2.4v4.2h-1.2v-8.3h1.2v1.4c0.3-0.5,0.7-0.9,1.1-1.2c0.5-0.3,1-0.4,1.6-0.4
				C164,108.3,164.5,108.4,165,108.6z"/>
		</g>
		<g>
			<path class="st3" d="M215.4,103.3c1,0.9,1.6,2.2,1.6,3.9c0,1.5-0.6,2.7-1.7,3.7c-1.1,1-2.6,1.5-4.5,1.6v2.9h-1.2v-2.9
				c-1.4-0.1-2.7-0.5-4-1.2c-1.3-0.7-2.3-1.6-3.2-2.8l1.8-1.5c0.6,1,1.4,1.8,2.4,2.4c1,0.6,2,1,3.1,1.1V103c-4.1-1-6.1-2.8-6.1-5.5
				c0-1.7,0.6-3,1.7-3.9c1.1-0.9,2.6-1.4,4.6-1.4v-2.8h1.2v2.9c2.4,0.2,4.4,1.3,6,3.2l-1.7,1.5c-0.6-0.8-1.3-1.4-1.9-1.9
				c-0.7-0.4-1.5-0.7-2.4-0.8v7C212.9,101.7,214.3,102.4,215.4,103.3z M206.6,99.4c0.6,0.5,1.6,1,3.1,1.4v-6.8
				c-1.2,0-2.1,0.3-2.9,0.9c-0.7,0.6-1.1,1.3-1.1,2.2C205.7,98.1,206,98.9,206.6,99.4z M213.8,109.6c0.7-0.6,1-1.4,1-2.4
				c0-1-0.3-1.8-1-2.4c-0.6-0.6-1.6-1.1-2.9-1.5v7.2C212.1,110.5,213.1,110.2,213.8,109.6z"/>
			<path class="st3" d="M225.2,92h2.1v20.7h-2.1V95.4l-4.9,4.9l-1.2-1.2L225.2,92z"/>
			<path class="st3" d="M237.8,92h2.1v20.7h-2.1V95.4l-4.9,4.9l-1.2-1.2L237.8,92z"/>
			<path class="st3" d="M245,112.4c-0.3-0.3-0.5-0.7-0.5-1.2c0-0.4,0.2-0.8,0.5-1.2c0.3-0.3,0.7-0.5,1.1-0.5c0.5,0,0.9,0.2,1.2,0.5
				c0.3,0.3,0.5,0.7,0.5,1.2c0,0.4-0.2,0.8-0.5,1.2c-0.3,0.3-0.7,0.5-1.2,0.5C245.6,112.9,245.3,112.8,245,112.4z"/>
			<path class="st3" d="M253.4,111.8c-1.1-0.9-2-2.2-2.7-3.9c-0.6-1.6-1-3.5-1-5.6c0-2.1,0.3-3.9,1-5.6c0.6-1.6,1.5-2.9,2.7-3.9
				c1.1-0.9,2.4-1.4,3.7-1.4c1.4,0,2.6,0.5,3.7,1.4c1.1,0.9,2,2.2,2.7,3.9c0.6,1.6,1,3.5,1,5.6c0,2.1-0.3,3.9-1,5.6
				c-0.6,1.6-1.5,2.9-2.6,3.9c-1.1,0.9-2.3,1.4-3.7,1.4C255.8,113.2,254.5,112.7,253.4,111.8z M259.7,110c0.7-0.7,1.3-1.8,1.8-3.1
				c0.4-1.3,0.6-2.9,0.6-4.6c0-1.7-0.2-3.2-0.6-4.6c-0.4-1.3-1-2.4-1.8-3.1c-0.7-0.7-1.6-1.1-2.6-1.1s-1.8,0.4-2.6,1.1
				c-0.8,0.7-1.3,1.8-1.8,3.1c-0.4,1.3-0.6,2.9-0.6,4.6c0,1.7,0.2,3.3,0.6,4.6c0.4,1.3,1,2.4,1.8,3.1c0.8,0.7,1.6,1.1,2.6,1.1
				S258.9,110.8,259.7,110z"/>
			<path class="st3" d="M270.4,111.8c-1.1-0.9-2-2.2-2.7-3.9c-0.6-1.6-1-3.5-1-5.6c0-2.1,0.3-3.9,1-5.6c0.6-1.6,1.5-2.9,2.7-3.9
				c1.1-0.9,2.4-1.4,3.7-1.4c1.4,0,2.6,0.5,3.7,1.4c1.1,0.9,2,2.2,2.7,3.9c0.6,1.6,1,3.5,1,5.6c0,2.1-0.3,3.9-1,5.6
				c-0.6,1.6-1.5,2.9-2.6,3.9c-1.1,0.9-2.3,1.4-3.7,1.4C272.8,113.2,271.5,112.7,270.4,111.8z M276.7,110c0.7-0.7,1.3-1.8,1.8-3.1
				c0.4-1.3,0.6-2.9,0.6-4.6c0-1.7-0.2-3.2-0.6-4.6c-0.4-1.3-1-2.4-1.8-3.1c-0.7-0.7-1.6-1.1-2.6-1.1s-1.8,0.4-2.6,1.1
				c-0.8,0.7-1.3,1.8-1.8,3.1c-0.4,1.3-0.6,2.9-0.6,4.6c0,1.7,0.2,3.3,0.6,4.6c0.4,1.3,1,2.4,1.8,3.1c0.8,0.7,1.6,1.1,2.6,1.1
				S275.9,110.8,276.7,110z"/>
		</g>
	</g>
	<g>
		<g>
			<path class="st0" d="M330.6,266.2c0,0-33.3-9-30.5-33.2l-118.5-0.7l0,0.4l-112.3-0.8c0,0,0.1,31.5-33.4,32.1L36,386.2
				c0,0,33.3,9,30.5,33.2l118.5,0.7l0-0.4l112.3,0.8c0,0-0.1-31.5,33.4-32.1L330.6,266.2z"/>
			<path class="st1" d="M276.6,401.8H90c-16.1,0-29.1-13-29.1-29.1v-94.8c0-16.1,13-29.1,29.1-29.1h186.6c16.1,0,29.1,13,29.1,29.1
				v94.8C305.7,388.7,292.6,401.8,276.6,401.8z"/>
			<line class="st2" x1="187.7" y1="271.5" x2="187.7" y2="381"/>
		</g>
		<g>
			<path class="st3" d="M100.3,304.4h1.5v12.1h-1.3v-9.7l-4,9.7h-1.2l-3.9-9.6v9.6H90v-12.1h1.6l4.2,10.6L100.3,304.4z"/>
			<path class="st3" d="M112.1,308.2v8.3h-1.2v-1.2c-0.3,0.5-0.8,0.8-1.3,1.1c-0.5,0.3-1,0.4-1.6,0.4c-0.8,0-1.5-0.2-2.1-0.6
				c-0.6-0.4-1.1-0.9-1.5-1.6s-0.5-1.4-0.5-2.3c0-0.9,0.2-1.6,0.5-2.3c0.3-0.7,0.8-1.2,1.5-1.6c0.6-0.4,1.3-0.6,2.1-0.6
				c0.6,0,1.2,0.1,1.7,0.4c0.5,0.3,0.9,0.6,1.3,1.1v-1.2H112.1z M109.5,315.2c0.4-0.3,0.8-0.7,1-1.2c0.2-0.5,0.4-1.1,0.4-1.7
				c0-0.6-0.1-1.2-0.4-1.7c-0.2-0.5-0.6-0.9-1-1.2c-0.4-0.3-0.9-0.4-1.5-0.4c-0.6,0-1.1,0.1-1.5,0.4c-0.4,0.3-0.8,0.7-1,1.2
				c-0.2,0.5-0.4,1.1-0.4,1.7c0,0.7,0.1,1.2,0.4,1.7c0.2,0.5,0.6,0.9,1,1.2c0.4,0.3,0.9,0.4,1.5,0.4
				C108.5,315.7,109,315.5,109.5,315.2z"/>
			<path class="st3" d="M114.7,316.5v-7.2h-1.4v-1.1h1.4v-2.7h1.2v2.7h1.9v1.1H116v7.2H114.7z"/>
			<path class="st3" d="M119.8,306.3c-0.2-0.2-0.3-0.4-0.3-0.7c0-0.3,0.1-0.5,0.3-0.7c0.2-0.2,0.4-0.3,0.7-0.3
				c0.3,0,0.5,0.1,0.7,0.3c0.2,0.2,0.3,0.4,0.3,0.7c0,0.3-0.1,0.5-0.3,0.7c-0.2,0.2-0.4,0.3-0.7,0.3
				C120.2,306.5,119.9,306.5,119.8,306.3z M119.8,316.5v-8.3h1.2v8.3H119.8z"/>
			<path class="st3" d="M129.5,308.2c0.5,0.2,0.9,0.6,1.2,1c0.3,0.5,0.4,1,0.4,1.6v5.6h-1.2v-5c0-1.6-0.7-2.5-2.2-2.5
				c-0.9,0-1.5,0.3-1.9,0.9s-0.6,1.4-0.6,2.4v4.2h-1.2v-8.3h1.2v1.4c0.3-0.5,0.7-0.9,1.1-1.2c0.5-0.3,1-0.4,1.6-0.4
				C128.5,307.9,129,308,129.5,308.2z"/>
			<path class="st3" d="M139.1,308.4c0.6,0.4,1.1,0.9,1.4,1.5c0.3,0.6,0.5,1.3,0.5,2.1c0,0.2,0,0.4,0,0.5h-6.8
				c0,0.9,0.3,1.6,0.8,2.2c0.5,0.6,1.2,0.9,2.1,0.9c0.7,0,1.3-0.1,1.8-0.4c0.5-0.3,0.8-0.6,1.1-1.1l1,0.6c-0.4,0.6-0.9,1.1-1.5,1.4
				c-0.6,0.3-1.4,0.5-2.3,0.5c-0.8,0-1.5-0.2-2.1-0.6c-0.6-0.4-1.1-0.9-1.5-1.6s-0.5-1.4-0.5-2.3c0-0.9,0.2-1.6,0.5-2.3
				c0.3-0.7,0.8-1.2,1.5-1.6c0.6-0.4,1.3-0.6,2.1-0.6C137.8,307.9,138.5,308.1,139.1,308.4z M139.8,311.6c-0.1-0.9-0.4-1.5-0.9-1.9
				c-0.5-0.4-1.1-0.6-1.9-0.6c-0.8,0-1.4,0.2-1.9,0.7c-0.5,0.5-0.8,1.1-0.9,1.9H139.8z"/>
			<path class="st3" d="M148.4,308.4c0.6,0.4,1.1,0.9,1.4,1.5c0.3,0.6,0.5,1.3,0.5,2.1c0,0.2,0,0.4,0,0.5h-6.8
				c0,0.9,0.3,1.6,0.8,2.2c0.5,0.6,1.2,0.9,2.1,0.9c0.7,0,1.3-0.1,1.8-0.4c0.5-0.3,0.8-0.6,1.1-1.1l1,0.6c-0.4,0.6-0.9,1.1-1.5,1.4
				c-0.6,0.3-1.4,0.5-2.3,0.5c-0.8,0-1.5-0.2-2.1-0.6c-0.6-0.4-1.1-0.9-1.5-1.6c-0.4-0.7-0.5-1.4-0.5-2.3c0-0.9,0.2-1.6,0.5-2.3
				s0.8-1.2,1.5-1.6c0.6-0.4,1.3-0.6,2.1-0.6C147.1,307.9,147.8,308.1,148.4,308.4z M149.1,311.6c-0.1-0.9-0.4-1.5-0.9-1.9
				c-0.5-0.4-1.1-0.6-1.9-0.6c-0.8,0-1.4,0.2-1.9,0.7c-0.5,0.5-0.8,1.1-0.9,1.9H149.1z"/>
			<path class="st3" d="M152.9,316.2c-0.6-0.3-1.1-0.8-1.4-1.5l1.1-0.5c0.4,0.9,1.3,1.4,2.6,1.4c0.6,0,1.1-0.1,1.5-0.3
				c0.4-0.2,0.6-0.6,0.6-1c0-0.5-0.2-0.8-0.5-1.1c-0.3-0.2-0.9-0.4-1.7-0.5c-1.1-0.1-1.9-0.3-2.4-0.8c-0.5-0.4-0.7-1-0.7-1.6
				c0-0.8,0.3-1.4,0.8-1.8c0.6-0.4,1.3-0.6,2.3-0.6c1.6,0,2.8,0.7,3.4,2l-1.1,0.5c-0.2-0.5-0.5-0.8-0.9-1c-0.4-0.2-0.9-0.3-1.5-0.3
				c-0.6,0-1.1,0.1-1.4,0.3c-0.3,0.2-0.5,0.5-0.5,1c0,0.4,0.2,0.7,0.5,0.9c0.3,0.2,0.9,0.4,1.8,0.5c1.1,0.1,1.8,0.4,2.4,0.8
				c0.5,0.4,0.8,1,0.8,1.7c0,0.6-0.2,1-0.5,1.4c-0.3,0.4-0.7,0.7-1.3,0.9s-1.1,0.3-1.7,0.3C154.2,316.8,153.5,316.6,152.9,316.2z"/>
			<path class="st3" d="M92.1,337.2c-0.8-0.5-1.4-1.3-1.8-2.2c-0.4-1-0.7-2-0.7-3.3s0.2-2.3,0.7-3.3c0.4-1,1.1-1.7,1.8-2.3
				c0.8-0.5,1.7-0.8,2.7-0.8c1,0,1.9,0.3,2.7,0.8c0.8,0.5,1.4,1.3,1.8,2.3c0.4,1,0.7,2.1,0.7,3.3c0,1.2-0.2,2.3-0.7,3.3
				c-0.4,1-1.1,1.7-1.8,2.2c-0.8,0.5-1.7,0.8-2.7,0.8C93.8,338,92.9,337.8,92.1,337.2z M96.7,336.2c0.6-0.4,1-1,1.4-1.8
				c0.3-0.8,0.5-1.7,0.5-2.6c0-1-0.2-1.9-0.5-2.6c-0.3-0.8-0.8-1.4-1.4-1.8c-0.6-0.4-1.2-0.7-2-0.7c-0.7,0-1.4,0.2-2,0.7
				c-0.6,0.4-1,1-1.4,1.8c-0.3,0.8-0.5,1.7-0.5,2.6c0,1,0.2,1.9,0.5,2.6c0.3,0.8,0.8,1.4,1.4,1.8c0.6,0.4,1.2,0.6,2,0.6
				C95.5,336.8,96.2,336.6,96.7,336.2z"/>
			<path class="st3" d="M107.6,329.5c0.5,0.2,0.9,0.6,1.2,1c0.3,0.5,0.4,1,0.4,1.6v5.6H108v-5c0-1.6-0.7-2.5-2.2-2.5
				c-0.9,0-1.5,0.3-1.9,0.9c-0.4,0.6-0.6,1.4-0.6,2.4v4.2h-1.2v-8.3h1.2v1.4c0.3-0.5,0.7-0.9,1.1-1.2c0.5-0.3,1-0.4,1.6-0.4
				C106.6,329.2,107.1,329.3,107.6,329.5z"/>
			<path class="st3" d="M111.7,337.8v-12.9h1.2v12.9H111.7z"/>
			<path class="st3" d="M120.9,329.5h1.1l-4.5,11.9h-1.2l1.3-3.4l-3.4-8.5h1.3l2.7,6.9L120.9,329.5z"/>
		</g>
		<g>
			<path class="st3" d="M216.9,323c1,0.9,1.6,2.2,1.6,3.9c0,1.5-0.6,2.7-1.7,3.7c-1.1,1-2.6,1.5-4.5,1.6v2.9H211v-2.9
				c-1.4-0.1-2.7-0.5-4-1.2c-1.3-0.7-2.3-1.6-3.2-2.8l1.8-1.5c0.6,1,1.4,1.8,2.4,2.4c1,0.6,2,1,3.1,1.1v-7.5c-4.1-1-6.1-2.8-6.1-5.5
				c0-1.7,0.6-3,1.7-3.9c1.1-0.9,2.6-1.4,4.6-1.4V309h1.2v2.9c2.4,0.2,4.4,1.3,6,3.2l-1.7,1.5c-0.6-0.8-1.3-1.4-1.9-1.9
				c-0.7-0.4-1.5-0.7-2.4-0.8v7C214.3,321.4,215.8,322.1,216.9,323z M208.1,319.1c0.6,0.5,1.6,1,3.1,1.4v-6.8
				c-1.2,0-2.1,0.3-2.9,0.9c-0.7,0.6-1.1,1.3-1.1,2.2C207.2,317.8,207.5,318.6,208.1,319.1z M215.2,329.3c0.7-0.6,1-1.4,1-2.4
				c0-1-0.3-1.8-1-2.4c-0.6-0.6-1.6-1.1-2.9-1.5v7.2C213.6,330.2,214.6,329.9,215.2,329.3z"/>
			<path class="st3" d="M224.2,332.1c-1.1-0.5-1.9-1.3-2.5-2.2c-0.6-1-0.9-2.1-0.9-3.3c0-1.4,0.4-2.5,1.1-3.5c0.7-0.9,1.8-1.6,3.1-2
				c-2.2-0.8-3.3-2.3-3.3-4.4c0-1.1,0.3-2.1,0.8-2.9c0.6-0.8,1.3-1.4,2.2-1.9c0.9-0.4,2-0.7,3.1-0.7c1.1,0,2.2,0.2,3.1,0.7
				c0.9,0.4,1.7,1.1,2.2,1.9c0.5,0.8,0.8,1.8,0.8,2.9c0,2.2-1.1,3.6-3.3,4.4c1.4,0.5,2.4,1.1,3.1,2c0.7,0.9,1,2,1,3.4
				c0,1.2-0.3,2.3-0.9,3.3c-0.6,1-1.4,1.7-2.5,2.3c-1.1,0.5-2.3,0.8-3.6,0.8C226.5,332.8,225.3,332.6,224.2,332.1z M231.3,329.7
				c0.9-0.8,1.3-1.8,1.3-3.2c0-1.4-0.4-2.5-1.3-3.2c-0.8-0.7-2-1.1-3.5-1.1c-1.5,0-2.7,0.4-3.5,1.1c-0.9,0.7-1.3,1.8-1.3,3.2
				c0,1.4,0.4,2.5,1.3,3.3c0.9,0.8,2,1.1,3.5,1.1C229.3,330.8,230.5,330.4,231.3,329.7z M230.7,319.2c0.7-0.6,1-1.4,1-2.5
				c0-1.2-0.3-2-1-2.6c-0.7-0.6-1.7-0.8-2.9-0.8c-1.2,0-2.2,0.3-2.9,0.8c-0.7,0.6-1.1,1.4-1.1,2.5c0,1.2,0.4,2,1.1,2.6
				c0.7,0.6,1.7,0.8,2.9,0.8C229,320,230,319.8,230.7,319.2z"/>
			<path class="st3" d="M238.1,332.1c-0.3-0.3-0.5-0.7-0.5-1.2c0-0.4,0.2-0.8,0.5-1.2c0.3-0.3,0.7-0.5,1.1-0.5
				c0.5,0,0.9,0.2,1.2,0.5c0.3,0.3,0.5,0.7,0.5,1.2c0,0.4-0.2,0.8-0.5,1.2c-0.3,0.3-0.7,0.5-1.2,0.5
				C238.8,332.6,238.4,332.4,238.1,332.1z"/>
			<path class="st3" d="M255.7,320.8c1.1,1.2,1.7,2.9,1.7,5.1c0,2.2-0.6,3.9-1.8,5.2c-1.2,1.2-2.8,1.8-5,1.8c-1.4,0-2.6-0.2-3.8-0.7
				c-1.2-0.5-2.1-1.1-2.8-2l1.6-1.1c0.5,0.6,1.2,1.1,2.1,1.5c0.9,0.3,1.9,0.5,3,0.5c1.5,0,2.6-0.4,3.4-1.3c0.8-0.9,1.2-2.2,1.2-3.8
				c0-1.6-0.4-2.8-1.2-3.7c-0.8-0.9-1.9-1.3-3.3-1.3c-0.9,0-1.8,0.1-2.8,0.4c-1,0.3-1.9,0.7-2.8,1.2v-10.8h11.1v2.1h-9v5.8
				c1.3-0.4,2.5-0.7,3.7-0.7C253,319,254.6,319.6,255.7,320.8z"/>
			<path class="st3" d="M263.9,331.5c-1.1-0.9-2-2.2-2.7-3.9c-0.6-1.6-1-3.5-1-5.6c0-2.1,0.3-3.9,1-5.6c0.6-1.6,1.5-2.9,2.7-3.9
				c1.1-0.9,2.4-1.4,3.7-1.4c1.4,0,2.6,0.5,3.7,1.4c1.1,0.9,2,2.2,2.7,3.9c0.6,1.6,1,3.5,1,5.6c0,2.1-0.3,3.9-1,5.6
				c-0.6,1.6-1.5,2.9-2.6,3.9c-1.1,0.9-2.3,1.4-3.7,1.4C266.2,332.8,265,332.4,263.9,331.5z M270.1,329.7c0.7-0.7,1.3-1.8,1.8-3.1
				c0.4-1.3,0.6-2.9,0.6-4.6c0-1.7-0.2-3.2-0.6-4.6c-0.4-1.3-1-2.4-1.8-3.1c-0.7-0.7-1.6-1.1-2.6-1.1s-1.8,0.4-2.6,1.1
				c-0.8,0.7-1.3,1.8-1.8,3.1c-0.4,1.3-0.6,2.9-0.6,4.6c0,1.7,0.2,3.2,0.6,4.6c0.4,1.3,1,2.4,1.8,3.1c0.8,0.7,1.6,1.1,2.6,1.1
				S269.4,330.5,270.1,329.7z"/>
		</g>
	</g>
	<g>
		<g>
			<path class="st0" d="M330.6,488.6c0,0-33.3-9-30.5-33.2l-118.5-0.7l0,0.4l-112.3-0.8c0,0,0.1,31.5-33.4,32.1L36,608.6
				c0,0,33.3,9,30.5,33.2l118.5,0.7l0-0.4l112.3,0.8c0,0-0.1-31.5,33.4-32.1L330.6,488.6z"/>
			<path class="st1" d="M277.1,624.1H89.4c-15.8,0-28.6-12.8-28.6-28.6v-95.9c0-15.8,12.8-28.6,28.6-28.6h187.7
				c15.8,0,28.6,12.8,28.6,28.6v95.9C305.7,611.3,292.9,624.1,277.1,624.1z"/>
			<line class="st2" x1="187.7" y1="493.8" x2="187.7" y2="603.3"/>
		</g>
		<g>
			<path class="st3" d="M91.6,532l-1.2-3.4h-5l-1.1,3.4h-1.3l4.3-12.1h1.2l4.4,12.1H91.6z M85.8,527.5H90l-2.2-5.9L85.8,527.5z"/>
			<path class="st3" d="M101.9,519.1V532h-1.2v-1.2c-0.3,0.5-0.8,0.8-1.3,1.1c-0.5,0.3-1,0.4-1.6,0.4c-0.8,0-1.5-0.2-2.1-0.6
				c-0.6-0.4-1.1-0.9-1.5-1.6c-0.4-0.7-0.5-1.4-0.5-2.3c0-0.9,0.2-1.6,0.5-2.3c0.3-0.7,0.8-1.2,1.5-1.6c0.6-0.4,1.3-0.6,2.1-0.6
				c0.6,0,1.2,0.1,1.7,0.4c0.5,0.3,0.9,0.6,1.3,1.1v-5.8H101.9z M99.3,530.8c0.4-0.3,0.8-0.7,1-1.2c0.2-0.5,0.4-1.1,0.4-1.7
				s-0.1-1.2-0.4-1.7c-0.2-0.5-0.6-0.9-1-1.2c-0.4-0.3-0.9-0.4-1.5-0.4c-0.6,0-1.1,0.1-1.5,0.4c-0.4,0.3-0.8,0.7-1,1.2
				c-0.2,0.5-0.4,1.1-0.4,1.7c0,0.7,0.1,1.2,0.4,1.7c0.2,0.5,0.6,0.9,1,1.2c0.4,0.3,0.9,0.4,1.5,0.4
				C98.3,531.2,98.8,531.1,99.3,530.8z"/>
			<path class="st3" d="M114.9,524.2c0.5,0.5,0.8,1.3,0.8,2.2v5.6h-1.2v-5c0-0.9-0.2-1.5-0.5-1.9c-0.3-0.4-0.8-0.6-1.3-0.6
				c-0.7,0-1.2,0.3-1.5,0.8c-0.4,0.5-0.6,1.2-0.6,2v4.7h-1.2v-5c0-0.9-0.2-1.5-0.5-1.9c-0.3-0.4-0.8-0.6-1.3-0.6
				c-0.7,0-1.3,0.3-1.6,0.9c-0.4,0.6-0.5,1.4-0.5,2.4v4.2h-1.2v-8.3h1.2v1.3c0.3-0.5,0.6-0.9,1-1.2c0.4-0.3,0.9-0.4,1.4-0.4
				c0.6,0,1.1,0.2,1.6,0.5c0.4,0.3,0.8,0.8,0.9,1.4c0.3-0.6,0.6-1.1,1.1-1.4c0.4-0.3,1-0.5,1.6-0.5
				C113.7,523.4,114.4,523.7,114.9,524.2z"/>
			<path class="st3" d="M118.4,521.8c-0.2-0.2-0.3-0.4-0.3-0.7c0-0.3,0.1-0.5,0.3-0.7c0.2-0.2,0.4-0.3,0.7-0.3
				c0.3,0,0.5,0.1,0.7,0.3c0.2,0.2,0.3,0.4,0.3,0.7c0,0.3-0.1,0.5-0.3,0.7c-0.2,0.2-0.4,0.3-0.7,0.3
				C118.8,522.1,118.6,522,118.4,521.8z M118.4,532v-8.3h1.2v8.3H118.4z"/>
			<path class="st3" d="M123.4,531.8c-0.6-0.3-1.1-0.8-1.4-1.5l1.1-0.5c0.4,0.9,1.3,1.4,2.6,1.4c0.6,0,1.1-0.1,1.5-0.3
				c0.4-0.2,0.6-0.6,0.6-1c0-0.5-0.2-0.8-0.5-1.1c-0.3-0.2-0.9-0.4-1.7-0.5c-1.1-0.1-1.9-0.3-2.4-0.8c-0.5-0.4-0.7-1-0.7-1.6
				c0-0.8,0.3-1.4,0.8-1.8c0.6-0.4,1.3-0.6,2.3-0.6c1.6,0,2.8,0.7,3.4,2l-1.1,0.5c-0.2-0.5-0.5-0.8-0.9-1c-0.4-0.2-0.9-0.3-1.5-0.3
				c-0.6,0-1.1,0.1-1.4,0.3c-0.3,0.2-0.5,0.5-0.5,1c0,0.4,0.2,0.7,0.5,0.9c0.3,0.2,0.9,0.4,1.8,0.5c1.1,0.1,1.8,0.4,2.4,0.8
				c0.5,0.4,0.8,1,0.8,1.7c0,0.6-0.2,1-0.5,1.4c-0.3,0.4-0.7,0.7-1.3,0.9c-0.5,0.2-1.1,0.3-1.7,0.3
				C124.7,532.3,124,532.1,123.4,531.8z"/>
			<path class="st3" d="M131.6,531.8c-0.6-0.3-1.1-0.8-1.4-1.5l1.1-0.5c0.4,0.9,1.3,1.4,2.6,1.4c0.6,0,1.1-0.1,1.5-0.3
				c0.4-0.2,0.6-0.6,0.6-1c0-0.5-0.2-0.8-0.5-1.1c-0.3-0.2-0.9-0.4-1.7-0.5c-1.1-0.1-1.9-0.3-2.4-0.8c-0.5-0.4-0.7-1-0.7-1.6
				c0-0.8,0.3-1.4,0.8-1.8c0.6-0.4,1.3-0.6,2.3-0.6c1.6,0,2.8,0.7,3.4,2l-1.1,0.5c-0.2-0.5-0.5-0.8-0.9-1c-0.4-0.2-0.9-0.3-1.5-0.3
				c-0.6,0-1.1,0.1-1.4,0.3c-0.3,0.2-0.5,0.5-0.5,1c0,0.4,0.2,0.7,0.5,0.9c0.3,0.2,0.9,0.4,1.8,0.5c1.1,0.1,1.8,0.4,2.4,0.8
				c0.5,0.4,0.8,1,0.8,1.7c0,0.6-0.2,1-0.5,1.4c-0.3,0.4-0.7,0.7-1.3,0.9c-0.5,0.2-1.1,0.3-1.7,0.3
				C132.9,532.3,132.2,532.1,131.6,531.8z"/>
			<path class="st3" d="M139.6,521.8c-0.2-0.2-0.3-0.4-0.3-0.7c0-0.3,0.1-0.5,0.3-0.7c0.2-0.2,0.4-0.3,0.7-0.3
				c0.3,0,0.5,0.1,0.7,0.3c0.2,0.2,0.3,0.4,0.3,0.7c0,0.3-0.1,0.5-0.3,0.7c-0.2,0.2-0.4,0.3-0.7,0.3
				C140,522.1,139.8,522,139.6,521.8z M139.7,532v-8.3h1.2v8.3H139.7z"/>
			<path class="st3" d="M145.3,531.7c-0.6-0.4-1.1-0.9-1.5-1.6c-0.4-0.7-0.5-1.4-0.5-2.3s0.2-1.6,0.5-2.3c0.3-0.7,0.8-1.2,1.5-1.6
				c0.6-0.4,1.3-0.6,2.1-0.6c0.8,0,1.5,0.2,2.1,0.6c0.6,0.4,1.1,0.9,1.5,1.6c0.4,0.7,0.5,1.4,0.5,2.3s-0.2,1.6-0.5,2.3
				c-0.3,0.7-0.8,1.2-1.5,1.6c-0.6,0.4-1.3,0.6-2.1,0.6C146.6,532.3,145.9,532.1,145.3,531.7z M148.9,530.8c0.4-0.3,0.8-0.7,1-1.2
				c0.2-0.5,0.4-1.1,0.4-1.7s-0.1-1.2-0.4-1.7c-0.2-0.5-0.6-0.9-1-1.2c-0.4-0.3-0.9-0.4-1.5-0.4c-0.6,0-1.1,0.1-1.5,0.4
				c-0.4,0.3-0.8,0.7-1,1.2c-0.2,0.5-0.4,1.1-0.4,1.7c0,0.7,0.1,1.2,0.4,1.7c0.2,0.5,0.6,0.9,1,1.2c0.4,0.3,0.9,0.4,1.5,0.4
				C147.9,531.2,148.4,531.1,148.9,530.8z"/>
			<path class="st3" d="M158.7,523.8c0.5,0.2,0.9,0.6,1.2,1c0.3,0.5,0.4,1,0.4,1.6v5.6h-1.2v-5c0-1.6-0.7-2.5-2.2-2.5
				c-0.9,0-1.5,0.3-1.9,0.9s-0.6,1.4-0.6,2.4v4.2h-1.2v-8.3h1.2v1.4c0.3-0.5,0.7-0.9,1.1-1.2c0.5-0.3,1-0.4,1.6-0.4
				C157.7,523.4,158.3,523.6,158.7,523.8z"/>
			<path class="st3" d="M85.9,541.7c-0.3,0.3-0.4,0.7-0.4,1.1v2.3h1.9v1.1h-1.9v7.2h-1.2v-7.2h-1.1V545h1.1v-2.3
				c0-0.8,0.2-1.4,0.7-1.9c0.5-0.5,1.1-0.7,1.9-0.7h0.5v1.1h-0.5C86.5,541.2,86.1,541.4,85.9,541.7z"/>
			<path class="st3" d="M90.2,553c-0.6-0.4-1.1-0.9-1.5-1.6c-0.4-0.7-0.5-1.4-0.5-2.3s0.2-1.6,0.5-2.3c0.3-0.7,0.8-1.2,1.5-1.6
				c0.6-0.4,1.3-0.6,2.1-0.6c0.8,0,1.5,0.2,2.1,0.6c0.6,0.4,1.1,0.9,1.5,1.6c0.4,0.7,0.5,1.4,0.5,2.3s-0.2,1.6-0.5,2.3
				c-0.3,0.7-0.8,1.2-1.5,1.6c-0.6,0.4-1.3,0.6-2.1,0.6C91.5,553.6,90.8,553.4,90.2,553z M93.8,552.1c0.4-0.3,0.8-0.7,1-1.2
				c0.2-0.5,0.4-1.1,0.4-1.7s-0.1-1.2-0.4-1.7c-0.2-0.5-0.6-0.9-1-1.2c-0.4-0.3-0.9-0.4-1.5-0.4c-0.6,0-1.1,0.1-1.5,0.4
				c-0.4,0.3-0.8,0.7-1,1.2c-0.2,0.5-0.4,1.1-0.4,1.7c0,0.7,0.1,1.2,0.4,1.7c0.2,0.5,0.6,0.9,1,1.2c0.4,0.3,0.9,0.4,1.5,0.4
				C92.8,552.5,93.3,552.4,93.8,552.1z"/>
			<path class="st3" d="M103,544.9v1.1c-0.2-0.1-0.5-0.2-0.8-0.2c-0.5,0-1,0.1-1.4,0.4c-0.4,0.3-0.8,0.7-1.1,1.2
				c-0.3,0.5-0.4,1.2-0.4,1.9v4h-1.2V545h1.2v1.7c0.3-0.6,0.7-1.1,1.2-1.4c0.5-0.3,1-0.5,1.7-0.5C102.5,544.7,102.7,544.8,103,544.9
				z"/>
			<path class="st3" d="M110.2,552.8c-0.7-0.5-1.3-1.2-1.7-2.2c-0.4-0.9-0.6-2.1-0.6-3.4c0-1.3,0.2-2.5,0.6-3.4
				c0.4-1,0.9-1.7,1.6-2.2c0.7-0.5,1.6-0.8,2.5-0.8c1,0,1.9,0.2,2.6,0.7c0.7,0.4,1.3,1.1,1.7,1.9l-1.1,0.6c-0.4-0.7-0.8-1.2-1.3-1.5
				c-0.5-0.3-1.1-0.5-1.9-0.5c-1.1,0-1.9,0.5-2.5,1.4c-0.6,0.9-0.9,2.2-0.9,3.8c0,1.1,0.1,2,0.4,2.7c0.3,0.8,0.7,1.4,1.2,1.8
				c0.5,0.4,1.1,0.6,1.8,0.6c0.8,0,1.5-0.2,2-0.6c0.5-0.4,0.9-1,1.3-1.7l1.1,0.7c-0.4,0.9-1,1.6-1.7,2.1c-0.7,0.5-1.5,0.7-2.5,0.7
				C111.8,553.6,111,553.3,110.2,552.8z"/>
			<path class="st3" d="M124.4,545.1c0.5,0.2,0.9,0.6,1.2,1c0.3,0.5,0.4,1,0.4,1.6v5.6h-1.2v-5c0-1.6-0.7-2.5-2.2-2.5
				c-0.9,0-1.5,0.3-1.9,0.9s-0.6,1.4-0.6,2.4v4.2h-1.2v-12.9h1.2v6c0.3-0.5,0.7-0.9,1.1-1.2c0.5-0.3,1-0.4,1.6-0.4
				C123.3,544.7,123.9,544.8,124.4,545.1z"/>
			<path class="st3" d="M128.9,543.1c-0.2-0.2-0.3-0.4-0.3-0.7c0-0.3,0.1-0.5,0.3-0.7c0.2-0.2,0.4-0.3,0.7-0.3
				c0.3,0,0.5,0.1,0.7,0.3c0.2,0.2,0.3,0.4,0.3,0.7c0,0.3-0.1,0.5-0.3,0.7c-0.2,0.2-0.4,0.3-0.7,0.3
				C129.3,543.4,129,543.3,128.9,543.1z M128.9,553.3V545h1.2v8.3H128.9z"/>
			<path class="st3" d="M133.1,553.3v-12.9h1.2v12.9H133.1z"/>
			<path class="st3" d="M144.3,540.4v12.9h-1.2v-1.2c-0.3,0.5-0.8,0.8-1.3,1.1c-0.5,0.3-1,0.4-1.6,0.4c-0.8,0-1.5-0.2-2.1-0.6
				c-0.6-0.4-1.1-0.9-1.5-1.6c-0.4-0.7-0.5-1.4-0.5-2.3c0-0.9,0.2-1.6,0.5-2.3c0.3-0.7,0.8-1.2,1.5-1.6c0.6-0.4,1.3-0.6,2.1-0.6
				c0.6,0,1.2,0.1,1.7,0.4c0.5,0.3,0.9,0.6,1.3,1.1v-5.8H144.3z M141.7,552.1c0.4-0.3,0.8-0.7,1-1.2c0.2-0.5,0.4-1.1,0.4-1.7
				s-0.1-1.2-0.4-1.7c-0.2-0.5-0.6-0.9-1-1.2c-0.4-0.3-0.9-0.4-1.5-0.4c-0.6,0-1.1,0.1-1.5,0.4c-0.4,0.3-0.8,0.7-1,1.2
				c-0.2,0.5-0.4,1.1-0.4,1.7c0,0.7,0.1,1.2,0.4,1.7c0.2,0.5,0.6,0.9,1,1.2c0.4,0.3,0.9,0.4,1.5,0.4
				C140.8,552.5,141.3,552.4,141.7,552.1z"/>
			<path class="st3" d="M151.5,544.9v1.1c-0.2-0.1-0.5-0.2-0.8-0.2c-0.5,0-1,0.1-1.4,0.4c-0.4,0.3-0.8,0.7-1.1,1.2
				c-0.3,0.5-0.4,1.2-0.4,1.9v4h-1.2V545h1.2v1.7c0.3-0.6,0.7-1.1,1.2-1.4c0.5-0.3,1-0.5,1.7-0.5
				C150.9,544.7,151.2,544.8,151.5,544.9z"/>
			<path class="st3" d="M158,545.3c0.6,0.4,1.1,0.9,1.4,1.5c0.3,0.6,0.5,1.3,0.5,2.1c0,0.2,0,0.4,0,0.5h-6.8c0,0.9,0.3,1.6,0.8,2.2
				c0.5,0.6,1.2,0.9,2.1,0.9c0.7,0,1.3-0.1,1.8-0.4c0.5-0.3,0.8-0.6,1.1-1.1l1,0.6c-0.4,0.6-0.9,1.1-1.5,1.4
				c-0.6,0.3-1.4,0.5-2.3,0.5c-0.8,0-1.5-0.2-2.1-0.6c-0.6-0.4-1.1-0.9-1.5-1.6c-0.4-0.7-0.5-1.4-0.5-2.3s0.2-1.6,0.5-2.3
				c0.3-0.7,0.8-1.2,1.5-1.6c0.6-0.4,1.3-0.6,2.1-0.6C156.7,544.7,157.4,544.9,158,545.3z M158.8,548.4c-0.1-0.9-0.4-1.5-0.9-1.9
				c-0.5-0.4-1.1-0.6-1.9-0.6c-0.8,0-1.4,0.2-1.9,0.7c-0.5,0.5-0.8,1.1-0.9,1.9H158.8z"/>
			<path class="st3" d="M167.3,545.1c0.5,0.2,0.9,0.6,1.2,1c0.3,0.5,0.4,1,0.4,1.6v5.6h-1.2v-5c0-1.6-0.7-2.5-2.2-2.5
				c-0.9,0-1.5,0.3-1.9,0.9s-0.6,1.4-0.6,2.4v4.2h-1.2V545h1.2v1.4c0.3-0.5,0.7-0.9,1.1-1.2c0.5-0.3,1-0.4,1.6-0.4
				C166.3,544.7,166.8,544.8,167.3,545.1z"/>
			<path class="st3" d="M91.1,566.3v8.3h-1.2v-1.4c-0.3,0.5-0.7,0.9-1.1,1.2c-0.5,0.3-1,0.4-1.6,0.4c-0.6,0-1.1-0.1-1.6-0.4
				c-0.5-0.2-0.9-0.6-1.2-1c-0.3-0.5-0.4-1-0.4-1.6v-5.6h1.2v5c0,1.6,0.7,2.5,2.2,2.5c0.9,0,1.5-0.3,1.9-0.9
				c0.4-0.6,0.6-1.4,0.6-2.4v-4.2H91.1z"/>
			<path class="st3" d="M98.9,566.4c0.5,0.2,0.9,0.6,1.2,1c0.3,0.5,0.4,1,0.4,1.6v5.6h-1.2v-5c0-1.6-0.7-2.5-2.2-2.5
				c-0.9,0-1.5,0.3-1.9,0.9c-0.4,0.6-0.6,1.4-0.6,2.4v4.2h-1.2v-8.3h1.2v1.4c0.3-0.5,0.7-0.9,1.1-1.2c0.5-0.3,1-0.4,1.6-0.4
				C97.9,566,98.4,566.1,98.9,566.4z"/>
			<path class="st3" d="M110.6,561.7v12.9h-1.2v-1.2c-0.3,0.5-0.8,0.8-1.3,1.1c-0.5,0.3-1,0.4-1.6,0.4c-0.8,0-1.5-0.2-2.1-0.6
				c-0.6-0.4-1.1-0.9-1.5-1.6c-0.4-0.7-0.5-1.4-0.5-2.3c0-0.9,0.2-1.6,0.5-2.3c0.3-0.7,0.8-1.2,1.5-1.6c0.6-0.4,1.3-0.6,2.1-0.6
				c0.6,0,1.2,0.1,1.7,0.4c0.5,0.3,0.9,0.6,1.3,1.1v-5.8H110.6z M108,573.4c0.4-0.3,0.8-0.7,1-1.2c0.2-0.5,0.4-1.1,0.4-1.7
				s-0.1-1.2-0.4-1.7c-0.2-0.5-0.6-0.9-1-1.2c-0.4-0.3-0.9-0.4-1.5-0.4c-0.6,0-1.1,0.1-1.5,0.4c-0.4,0.3-0.8,0.7-1,1.2
				c-0.2,0.5-0.4,1.1-0.4,1.7c0,0.7,0.1,1.2,0.4,1.7c0.2,0.5,0.6,0.9,1,1.2c0.4,0.3,0.9,0.4,1.5,0.4
				C107,573.8,107.5,573.6,108,573.4z"/>
			<path class="st3" d="M118.4,566.6c0.6,0.4,1.1,0.9,1.4,1.5c0.3,0.6,0.5,1.3,0.5,2.1c0,0.2,0,0.4,0,0.5h-6.8
				c0,0.9,0.3,1.6,0.8,2.2c0.5,0.6,1.2,0.9,2.1,0.9c0.7,0,1.3-0.1,1.8-0.4c0.5-0.3,0.8-0.6,1.1-1.1l1,0.6c-0.4,0.6-0.9,1.1-1.5,1.4
				c-0.6,0.3-1.4,0.5-2.3,0.5c-0.8,0-1.5-0.2-2.1-0.6c-0.6-0.4-1.1-0.9-1.5-1.6s-0.5-1.4-0.5-2.3s0.2-1.6,0.5-2.3
				c0.3-0.7,0.8-1.2,1.5-1.6c0.6-0.4,1.3-0.6,2.1-0.6C117.1,566,117.8,566.2,118.4,566.6z M119.1,569.7c-0.1-0.9-0.4-1.5-0.9-1.9
				c-0.5-0.4-1.1-0.6-1.9-0.6c-0.8,0-1.4,0.2-1.9,0.7c-0.5,0.5-0.8,1.1-0.9,1.9H119.1z"/>
			<path class="st3" d="M127,566.1v1.1c-0.2-0.1-0.5-0.2-0.8-0.2c-0.5,0-1,0.1-1.4,0.4c-0.4,0.3-0.8,0.7-1.1,1.2
				c-0.3,0.5-0.4,1.2-0.4,1.9v4h-1.2v-8.3h1.2v1.7c0.3-0.6,0.7-1.1,1.2-1.4c0.5-0.3,1-0.5,1.7-0.5C126.5,566,126.8,566.1,127,566.1z
				"/>
			<path class="st3" d="M135.2,562.5h1.2v12.1h-1.2v-10.1l-2.9,2.8l-0.7-0.7L135.2,562.5z"/>
			<path class="st3" d="M139,573.8c0-0.5,0.1-1,0.4-1.4c0.2-0.4,0.5-0.8,0.9-1.2c0.4-0.3,0.8-0.8,1.5-1.3c0.4-0.3,0.6-0.5,0.6-0.5
				c0.8-0.7,1.4-1.3,1.8-1.9c0.4-0.6,0.6-1.3,0.6-2.2c0-0.6-0.2-1-0.6-1.4c-0.4-0.3-0.9-0.5-1.5-0.5c-0.6,0-1.1,0.1-1.6,0.4
				c-0.5,0.3-0.9,0.7-1.3,1.3l-1-0.8c0.5-0.7,1.1-1.2,1.7-1.5c0.7-0.4,1.4-0.6,2.2-0.6c1.1,0,1.9,0.3,2.5,0.8
				c0.6,0.6,0.9,1.3,0.9,2.3c0,1-0.3,1.9-0.9,2.7c-0.6,0.8-1.3,1.6-2.3,2.4c-0.2,0.2-0.4,0.3-0.4,0.3c-0.7,0.6-1.3,1.1-1.6,1.5
				c-0.4,0.4-0.5,0.8-0.5,1.2h5.9v1.2H139V573.8z"/>
		</g>
		<g>
			<path class="st3" d="M223.5,545.4c1,0.9,1.6,2.2,1.6,3.9c0,1.5-0.6,2.7-1.7,3.7c-1.1,1-2.6,1.5-4.5,1.6v2.9h-1.2v-2.9
				c-1.4-0.1-2.7-0.5-4-1.2c-1.3-0.7-2.3-1.6-3.2-2.8l1.8-1.5c0.6,1,1.4,1.8,2.4,2.4c1,0.6,2,1,3.1,1.1V545c-4.1-1-6.1-2.8-6.1-5.5
				c0-1.7,0.6-3,1.7-3.9c1.1-0.9,2.6-1.4,4.6-1.4v-2.8h1.2v2.9c2.4,0.2,4.4,1.3,6,3.2l-1.7,1.5c-0.6-0.8-1.3-1.4-1.9-1.9
				c-0.7-0.4-1.5-0.7-2.4-0.8v7C221,543.7,222.5,544.5,223.5,545.4z M214.8,541.4c0.6,0.5,1.6,1,3.1,1.4v-6.8
				c-1.2,0-2.1,0.3-2.9,0.9c-0.7,0.6-1.1,1.3-1.1,2.2C213.9,540.2,214.2,540.9,214.8,541.4z M221.9,551.6c0.7-0.6,1-1.4,1-2.4
				c0-1-0.3-1.8-1-2.4c-0.6-0.6-1.6-1.1-2.9-1.5v7.2C220.3,552.5,221.3,552.2,221.9,551.6z"/>
			<path class="st3" d="M230.9,554.4c-1.1-0.5-1.9-1.3-2.5-2.2c-0.6-1-0.9-2.1-0.9-3.3c0-1.4,0.4-2.5,1.1-3.5c0.7-0.9,1.8-1.6,3.1-2
				c-2.2-0.8-3.3-2.3-3.3-4.4c0-1.1,0.3-2.1,0.8-2.9c0.6-0.8,1.3-1.4,2.2-1.9c0.9-0.4,2-0.7,3.1-0.7c1.1,0,2.2,0.2,3.1,0.7
				c0.9,0.4,1.7,1.1,2.2,1.9c0.5,0.8,0.8,1.8,0.8,2.9c0,2.2-1.1,3.6-3.3,4.4c1.4,0.5,2.4,1.1,3.1,2c0.7,0.9,1,2,1,3.4
				c0,1.2-0.3,2.3-0.9,3.3c-0.6,1-1.4,1.7-2.5,2.3c-1.1,0.5-2.3,0.8-3.6,0.8C233.2,555.2,232,554.9,230.9,554.4z M238,552
				c0.9-0.8,1.3-1.8,1.3-3.2c0-1.4-0.4-2.5-1.3-3.2c-0.8-0.7-2-1.1-3.5-1.1c-1.5,0-2.7,0.4-3.5,1.1c-0.9,0.7-1.3,1.8-1.3,3.2
				c0,1.4,0.4,2.5,1.3,3.3c0.9,0.8,2,1.1,3.5,1.1C236,553.2,237.2,552.8,238,552z M237.4,541.5c0.7-0.6,1-1.4,1-2.5
				c0-1.2-0.3-2-1-2.6c-0.7-0.6-1.7-0.8-2.9-0.8c-1.2,0-2.2,0.3-2.9,0.8c-0.7,0.6-1.1,1.4-1.1,2.5c0,1.2,0.4,2,1.1,2.6
				c0.7,0.6,1.7,0.8,2.9,0.8C235.7,542.4,236.7,542.1,237.4,541.5z"/>
			<path class="st3" d="M244.8,554.5c-0.3-0.3-0.5-0.7-0.5-1.2c0-0.4,0.2-0.8,0.5-1.2c0.3-0.3,0.7-0.5,1.1-0.5
				c0.5,0,0.9,0.2,1.2,0.5c0.3,0.3,0.5,0.7,0.5,1.2c0,0.4-0.2,0.8-0.5,1.2c-0.3,0.3-0.7,0.5-1.2,0.5
				C245.5,554.9,245.1,554.8,244.8,554.5z"/>
			<path class="st3" d="M262.4,543.1c1.1,1.2,1.7,2.9,1.7,5.1c0,2.2-0.6,3.9-1.8,5.2c-1.2,1.2-2.8,1.8-5,1.8c-1.4,0-2.6-0.2-3.8-0.7
				c-1.2-0.5-2.1-1.1-2.8-2l1.6-1.1c0.5,0.6,1.2,1.1,2.1,1.5c0.9,0.3,1.9,0.5,3,0.5c1.5,0,2.6-0.4,3.4-1.3c0.8-0.9,1.2-2.2,1.2-3.8
				c0-1.6-0.4-2.8-1.2-3.7c-0.8-0.9-1.9-1.3-3.3-1.3c-0.9,0-1.8,0.1-2.8,0.4c-1,0.3-1.9,0.7-2.8,1.2V534H263v2.1h-9v5.8
				c1.3-0.4,2.5-0.7,3.7-0.7C259.7,541.3,261.3,541.9,262.4,543.1z"/>
			<path class="st3" d="M270.6,553.8c-1.1-0.9-2-2.2-2.7-3.9c-0.6-1.6-1-3.5-1-5.6c0-2.1,0.3-3.9,1-5.6c0.6-1.6,1.5-2.9,2.7-3.9
				c1.1-0.9,2.4-1.4,3.7-1.4c1.4,0,2.6,0.5,3.7,1.4c1.1,0.9,2,2.2,2.7,3.9c0.6,1.6,1,3.5,1,5.6c0,2.1-0.3,3.9-1,5.6
				c-0.6,1.6-1.5,2.9-2.6,3.9c-1.1,0.9-2.3,1.4-3.7,1.4C272.9,555.2,271.7,554.7,270.6,553.8z M276.8,552.1c0.7-0.7,1.3-1.8,1.8-3.1
				c0.4-1.3,0.6-2.9,0.6-4.6s-0.2-3.2-0.6-4.6c-0.4-1.3-1-2.4-1.8-3.1c-0.7-0.7-1.6-1.1-2.6-1.1s-1.8,0.4-2.6,1.1
				c-0.8,0.7-1.3,1.8-1.8,3.1c-0.4,1.3-0.6,2.9-0.6,4.6s0.2,3.2,0.6,4.6c0.4,1.3,1,2.4,1.8,3.1c0.8,0.7,1.6,1.1,2.6,1.1
				S276.1,552.8,276.8,552.1z"/>
		</g>
	</g>
</g>
</svg>
