<?xml version="1.0" encoding="utf-8"?>
<!-- Generator: Adobe Illustrator 22.0.1, SVG Export Plug-In . SVG Version: 6.00 Build 0)  -->
<svg version="1.1" id="Layer_1" xmlns="http://www.w3.org/2000/svg" xmlns:xlink="http://www.w3.org/1999/xlink" x="0px" y="0px"
	 viewBox="0 0 360 216" style="enable-background:new 0 0 360 216;" xml:space="preserve">
<style type="text/css">
	.st0{fill:#CB597C;}
	.st1{fill:none;stroke:#FFFFFF;stroke-width:2;stroke-miterlimit:10;}
	.st2{fill:none;stroke:#FFFFFF;stroke-width:6;stroke-miterlimit:10;}
	.st3{fill:#FFFFFF;}
</style>
<g>
	<g>
		<path class="st0" d="M327.3,46.8c0,0-33.3-9-30.5-33.2l-118.5-0.7l0,0.4L65.9,12.4c0,0,0.1,31.5-33.4,32.1l0.2,122.2
			c0,0,33.3,9,30.5,33.2l118.5,0.7l0-0.4l112.3,0.8c0,0-0.1-31.5,33.4-32.1L327.3,46.8z"/>
		<path class="st1" d="M273.8,182.3H86.2c-15.8,0-28.6-12.8-28.6-28.6V57.9c0-15.8,12.8-28.6,28.6-28.6h187.7
			c15.8,0,28.6,12.8,28.6,28.6v95.9C302.4,169.5,289.6,182.3,273.8,182.3z"/>
		<line class="st2" x1="184.4" y1="52" x2="184.4" y2="161.5"/>
	</g>
	<g>
		<path class="st3" d="M88.3,90.2l-1.2-3.4h-5l-1.1,3.4h-1.3l4.3-12.1h1.2l4.4,12.1H88.3z M82.5,85.7h4.2l-2.2-5.9L82.5,85.7z"/>
		<path class="st3" d="M98.6,77.4v12.9h-1.2V89c-0.3,0.5-0.8,0.8-1.3,1.1c-0.5,0.3-1,0.4-1.6,0.4c-0.8,0-1.5-0.2-2.1-0.6
			c-0.6-0.4-1.1-0.9-1.5-1.6c-0.4-0.7-0.5-1.4-0.5-2.3c0-0.9,0.2-1.6,0.5-2.3c0.3-0.7,0.8-1.2,1.5-1.6c0.6-0.4,1.3-0.6,2.1-0.6
			c0.6,0,1.2,0.1,1.7,0.4c0.5,0.3,0.9,0.6,1.3,1.1v-5.8H98.6z M96,89c0.4-0.3,0.8-0.7,1-1.2c0.2-0.5,0.4-1.1,0.4-1.7
			s-0.1-1.2-0.4-1.7c-0.2-0.5-0.6-0.9-1-1.2c-0.4-0.3-0.9-0.4-1.5-0.4c-0.6,0-1.1,0.1-1.5,0.4c-0.4,0.3-0.8,0.7-1,1.2
			c-0.2,0.5-0.4,1.1-0.4,1.7c0,0.7,0.1,1.2,0.4,1.7c0.2,0.5,0.6,0.9,1,1.2c0.4,0.3,0.9,0.4,1.5,0.4C95.1,89.4,95.6,89.3,96,89z"/>
		<path class="st3" d="M111.6,82.5c0.5,0.5,0.8,1.3,0.8,2.2v5.6h-1.2v-5c0-0.9-0.2-1.5-0.5-1.9c-0.3-0.4-0.8-0.6-1.3-0.6
			c-0.7,0-1.2,0.3-1.5,0.8c-0.4,0.5-0.6,1.2-0.6,2v4.7H106v-5c0-0.9-0.2-1.5-0.5-1.9c-0.3-0.4-0.8-0.6-1.3-0.6
			c-0.7,0-1.3,0.3-1.6,0.9c-0.4,0.6-0.5,1.4-0.5,2.4v4.2h-1.2v-8.3h1.2v1.3c0.3-0.5,0.6-0.9,1-1.2c0.4-0.3,0.9-0.4,1.4-0.4
			c0.6,0,1.1,0.2,1.6,0.5c0.4,0.3,0.8,0.8,0.9,1.4c0.3-0.6,0.6-1.1,1.1-1.4c0.4-0.3,1-0.5,1.6-0.5C110.5,81.6,111.1,81.9,111.6,82.5
			z"/>
		<path class="st3" d="M115.1,80c-0.2-0.2-0.3-0.4-0.3-0.7c0-0.3,0.1-0.5,0.3-0.7c0.2-0.2,0.4-0.3,0.7-0.3c0.3,0,0.5,0.1,0.7,0.3
			c0.2,0.2,0.3,0.4,0.3,0.7c0,0.3-0.1,0.5-0.3,0.7c-0.2,0.2-0.4,0.3-0.7,0.3C115.5,80.3,115.3,80.2,115.1,80z M115.2,90.2v-8.3h1.2
			v8.3H115.2z"/>
		<path class="st3" d="M120.1,90c-0.6-0.3-1.1-0.8-1.4-1.5l1.1-0.5c0.4,0.9,1.3,1.4,2.6,1.4c0.6,0,1.1-0.1,1.5-0.3
			c0.4-0.2,0.6-0.6,0.6-1c0-0.5-0.2-0.8-0.5-1.1c-0.3-0.2-0.9-0.4-1.7-0.5c-1.1-0.1-1.9-0.3-2.4-0.8c-0.5-0.4-0.7-1-0.7-1.6
			c0-0.8,0.3-1.4,0.8-1.8c0.6-0.4,1.3-0.6,2.3-0.6c1.6,0,2.8,0.7,3.4,2l-1.1,0.5c-0.2-0.5-0.5-0.8-0.9-1c-0.4-0.2-0.9-0.3-1.5-0.3
			c-0.6,0-1.1,0.1-1.4,0.3c-0.3,0.2-0.5,0.5-0.5,1c0,0.4,0.2,0.7,0.5,0.9c0.3,0.2,0.9,0.4,1.8,0.5c1.1,0.1,1.8,0.4,2.4,0.8
			c0.5,0.4,0.8,1,0.8,1.7c0,0.6-0.2,1-0.5,1.4c-0.3,0.4-0.7,0.7-1.3,0.9s-1.1,0.3-1.7,0.3C121.4,90.5,120.7,90.3,120.1,90z"/>
		<path class="st3" d="M128.3,90c-0.6-0.3-1.1-0.8-1.4-1.5L128,88c0.4,0.9,1.3,1.4,2.6,1.4c0.6,0,1.1-0.1,1.5-0.3
			c0.4-0.2,0.6-0.6,0.6-1c0-0.5-0.2-0.8-0.5-1.1c-0.3-0.2-0.9-0.4-1.7-0.5c-1.1-0.1-1.9-0.3-2.4-0.8c-0.5-0.4-0.7-1-0.7-1.6
			c0-0.8,0.3-1.4,0.8-1.8c0.6-0.4,1.3-0.6,2.3-0.6c1.6,0,2.8,0.7,3.4,2l-1.1,0.5c-0.2-0.5-0.5-0.8-0.9-1c-0.4-0.2-0.9-0.3-1.5-0.3
			c-0.6,0-1.1,0.1-1.4,0.3c-0.3,0.2-0.5,0.5-0.5,1c0,0.4,0.2,0.7,0.5,0.9c0.3,0.2,0.9,0.4,1.8,0.5c1.1,0.1,1.8,0.4,2.4,0.8
			c0.5,0.4,0.8,1,0.8,1.7c0,0.6-0.2,1-0.5,1.4c-0.3,0.4-0.7,0.7-1.3,0.9c-0.5,0.2-1.1,0.3-1.7,0.3C129.6,90.5,128.9,90.3,128.3,90z"
			/>
		<path class="st3" d="M136.3,80c-0.2-0.2-0.3-0.4-0.3-0.7c0-0.3,0.1-0.5,0.3-0.7c0.2-0.2,0.4-0.3,0.7-0.3c0.3,0,0.5,0.1,0.7,0.3
			c0.2,0.2,0.3,0.4,0.3,0.7c0,0.3-0.1,0.5-0.3,0.7c-0.2,0.2-0.4,0.3-0.7,0.3C136.7,80.3,136.5,80.2,136.3,80z M136.4,90.2v-8.3h1.2
			v8.3H136.4z"/>
		<path class="st3" d="M142,90c-0.6-0.4-1.1-0.9-1.5-1.6c-0.4-0.7-0.5-1.4-0.5-2.3s0.2-1.6,0.5-2.3c0.3-0.7,0.8-1.2,1.5-1.6
			c0.6-0.4,1.3-0.6,2.1-0.6c0.8,0,1.5,0.2,2.1,0.6c0.6,0.4,1.1,0.9,1.5,1.6c0.4,0.7,0.5,1.4,0.5,2.3c0,0.9-0.2,1.6-0.5,2.3
			c-0.3,0.7-0.8,1.2-1.5,1.6c-0.6,0.4-1.3,0.6-2.1,0.6C143.3,90.5,142.6,90.3,142,90z M145.6,89c0.4-0.3,0.8-0.7,1-1.2
			c0.2-0.5,0.4-1.1,0.4-1.7s-0.1-1.2-0.4-1.7c-0.2-0.5-0.6-0.9-1-1.2c-0.4-0.3-0.9-0.4-1.5-0.4c-0.6,0-1.1,0.1-1.5,0.4
			c-0.4,0.3-0.8,0.7-1,1.2c-0.2,0.5-0.4,1.1-0.4,1.7c0,0.7,0.1,1.2,0.4,1.7c0.2,0.5,0.6,0.9,1,1.2c0.4,0.3,0.9,0.4,1.5,0.4
			C144.6,89.4,145.1,89.3,145.6,89z"/>
		<path class="st3" d="M155.5,82c0.5,0.2,0.9,0.6,1.2,1c0.3,0.5,0.4,1,0.4,1.6v5.6h-1.2v-5c0-1.6-0.7-2.5-2.2-2.5
			c-0.9,0-1.5,0.3-1.9,0.9c-0.4,0.6-0.6,1.4-0.6,2.4v4.2h-1.2v-8.3h1.2v1.4c0.3-0.5,0.7-0.9,1.1-1.2c0.5-0.3,1-0.4,1.6-0.4
			C154.4,81.6,155,81.8,155.5,82z"/>
		<path class="st3" d="M82.6,99.9c-0.3,0.3-0.4,0.7-0.4,1.1v2.3h1.9v1.1h-1.9v7.2H81v-7.2h-1.1v-1.1H81V101c0-0.8,0.2-1.4,0.7-1.9
			c0.5-0.5,1.1-0.7,1.9-0.7h0.5v1.1h-0.5C83.2,99.4,82.8,99.6,82.6,99.9z"/>
		<path class="st3" d="M86.9,111.2c-0.6-0.4-1.1-0.9-1.5-1.6c-0.4-0.7-0.5-1.4-0.5-2.3c0-0.9,0.2-1.6,0.5-2.3
			c0.3-0.7,0.8-1.2,1.5-1.6c0.6-0.4,1.3-0.6,2.1-0.6c0.8,0,1.5,0.2,2.1,0.6c0.6,0.4,1.1,0.9,1.5,1.6c0.4,0.7,0.5,1.4,0.5,2.3
			s-0.2,1.6-0.5,2.3c-0.3,0.7-0.8,1.2-1.5,1.6c-0.6,0.4-1.3,0.6-2.1,0.6C88.2,111.8,87.5,111.6,86.9,111.2z M90.5,110.3
			c0.4-0.3,0.8-0.7,1-1.2c0.2-0.5,0.4-1.1,0.4-1.7s-0.1-1.2-0.4-1.7c-0.2-0.5-0.6-0.9-1-1.2c-0.4-0.3-0.9-0.4-1.5-0.4
			c-0.6,0-1.1,0.1-1.5,0.4c-0.4,0.3-0.8,0.7-1,1.2c-0.2,0.5-0.4,1.1-0.4,1.7c0,0.7,0.1,1.2,0.4,1.7c0.2,0.5,0.6,0.9,1,1.2
			c0.4,0.3,0.9,0.4,1.5,0.4C89.6,110.7,90.1,110.6,90.5,110.3z"/>
		<path class="st3" d="M99.7,103.1v1.1c-0.2-0.1-0.5-0.2-0.8-0.2c-0.5,0-1,0.1-1.4,0.4c-0.4,0.3-0.8,0.7-1.1,1.2
			c-0.3,0.5-0.4,1.2-0.4,1.9v4h-1.2v-8.3H96v1.7c0.3-0.6,0.7-1.1,1.2-1.4c0.5-0.3,1-0.5,1.7-0.5C99.2,102.9,99.5,103,99.7,103.1z"/>
		<path class="st3" d="M106.9,111.1c-0.7-0.5-1.3-1.2-1.7-2.2c-0.4-0.9-0.6-2.1-0.6-3.4c0-1.3,0.2-2.5,0.6-3.4
			c0.4-1,0.9-1.7,1.6-2.2c0.7-0.5,1.6-0.8,2.5-0.8c1,0,1.9,0.2,2.6,0.7c0.7,0.4,1.3,1.1,1.7,1.9l-1.1,0.6c-0.4-0.7-0.8-1.2-1.3-1.5
			c-0.5-0.3-1.1-0.5-1.9-0.5c-1.1,0-1.9,0.5-2.5,1.4c-0.6,0.9-0.9,2.2-0.9,3.8c0,1.1,0.1,2,0.4,2.7c0.3,0.8,0.7,1.4,1.2,1.8
			c0.5,0.4,1.1,0.6,1.8,0.6c0.8,0,1.5-0.2,2-0.6c0.5-0.4,0.9-1,1.3-1.7l1.1,0.7c-0.4,0.9-1,1.6-1.7,2.1c-0.7,0.5-1.5,0.7-2.5,0.7
			C108.6,111.8,107.7,111.6,106.9,111.1z"/>
		<path class="st3" d="M121.1,103.3c0.5,0.2,0.9,0.6,1.2,1c0.3,0.5,0.4,1,0.4,1.6v5.6h-1.2v-5c0-1.6-0.7-2.5-2.2-2.5
			c-0.9,0-1.5,0.3-1.9,0.9c-0.4,0.6-0.6,1.4-0.6,2.4v4.2h-1.2V98.6h1.2v6c0.3-0.5,0.7-0.9,1.1-1.2c0.5-0.3,1-0.4,1.6-0.4
			C120.1,102.9,120.6,103.1,121.1,103.3z"/>
		<path class="st3" d="M125.6,101.3c-0.2-0.2-0.3-0.4-0.3-0.7c0-0.3,0.1-0.5,0.3-0.7c0.2-0.2,0.4-0.3,0.7-0.3c0.3,0,0.5,0.1,0.7,0.3
			c0.2,0.2,0.3,0.4,0.3,0.7c0,0.3-0.1,0.5-0.3,0.7c-0.2,0.2-0.4,0.3-0.7,0.3C126,101.6,125.8,101.5,125.6,101.3z M125.7,111.5v-8.3
			h1.2v8.3H125.7z"/>
		<path class="st3" d="M129.8,111.5V98.6h1.2v12.9H129.8z"/>
		<path class="st3" d="M141.1,98.6v12.9h-1.2v-1.2c-0.3,0.5-0.8,0.8-1.3,1.1s-1,0.4-1.6,0.4c-0.8,0-1.5-0.2-2.1-0.6
			c-0.6-0.4-1.1-0.9-1.5-1.6c-0.4-0.7-0.5-1.4-0.5-2.3c0-0.9,0.2-1.6,0.5-2.3c0.3-0.7,0.8-1.2,1.5-1.6c0.6-0.4,1.3-0.6,2.1-0.6
			c0.6,0,1.2,0.1,1.7,0.4c0.5,0.3,0.9,0.6,1.3,1.1v-5.8H141.1z M138.5,110.3c0.4-0.3,0.8-0.7,1-1.2c0.2-0.5,0.4-1.1,0.4-1.7
			s-0.1-1.2-0.4-1.7c-0.2-0.5-0.6-0.9-1-1.2c-0.4-0.3-0.9-0.4-1.5-0.4c-0.6,0-1.1,0.1-1.5,0.4c-0.4,0.3-0.8,0.7-1,1.2
			c-0.2,0.5-0.4,1.1-0.4,1.7c0,0.7,0.1,1.2,0.4,1.7c0.2,0.5,0.6,0.9,1,1.2c0.4,0.3,0.9,0.4,1.5,0.4
			C137.5,110.7,138,110.6,138.5,110.3z"/>
		<path class="st3" d="M148.2,103.1v1.1c-0.2-0.1-0.5-0.2-0.8-0.2c-0.5,0-1,0.1-1.4,0.4c-0.4,0.3-0.8,0.7-1.1,1.2
			c-0.3,0.5-0.4,1.2-0.4,1.9v4h-1.2v-8.3h1.2v1.7c0.3-0.6,0.7-1.1,1.2-1.4c0.5-0.3,1-0.5,1.7-0.5C147.7,102.9,147.9,103,148.2,103.1
			z"/>
		<path class="st3" d="M154.7,103.5c0.6,0.4,1.1,0.9,1.4,1.5c0.3,0.6,0.5,1.3,0.5,2.1c0,0.2,0,0.4,0,0.5h-6.8c0,0.9,0.3,1.6,0.8,2.2
			c0.5,0.6,1.2,0.9,2.1,0.9c0.7,0,1.3-0.1,1.8-0.4c0.5-0.3,0.8-0.6,1.1-1.1l1,0.6c-0.4,0.6-0.9,1.1-1.5,1.4
			c-0.6,0.3-1.4,0.5-2.3,0.5c-0.8,0-1.5-0.2-2.1-0.6c-0.6-0.4-1.1-0.9-1.5-1.6c-0.4-0.7-0.5-1.4-0.5-2.3s0.2-1.6,0.5-2.3
			c0.3-0.7,0.8-1.2,1.5-1.6c0.6-0.4,1.3-0.6,2.1-0.6C153.5,102.9,154.1,103.1,154.7,103.5z M155.5,106.6c-0.1-0.9-0.4-1.5-0.9-1.9
			c-0.5-0.4-1.1-0.6-1.9-0.6c-0.8,0-1.4,0.2-1.9,0.7c-0.5,0.5-0.8,1.1-0.9,1.9H155.5z"/>
		<path class="st3" d="M164,103.3c0.5,0.2,0.9,0.6,1.2,1c0.3,0.5,0.4,1,0.4,1.6v5.6h-1.2v-5c0-1.6-0.7-2.5-2.2-2.5
			c-0.9,0-1.5,0.3-1.9,0.9c-0.4,0.6-0.6,1.4-0.6,2.4v4.2h-1.2v-8.3h1.2v1.4c0.3-0.5,0.7-0.9,1.1-1.2c0.5-0.3,1-0.4,1.6-0.4
			C163,102.9,163.5,103.1,164,103.3z"/>
		<path class="st3" d="M87.8,124.5v8.3h-1.2v-1.4c-0.3,0.5-0.7,0.9-1.1,1.2c-0.5,0.3-1,0.4-1.6,0.4c-0.6,0-1.1-0.1-1.6-0.4
			c-0.5-0.2-0.9-0.6-1.2-1c-0.3-0.5-0.4-1-0.4-1.6v-5.6h1.2v5c0,1.6,0.7,2.5,2.2,2.5c0.9,0,1.5-0.3,1.9-0.9c0.4-0.6,0.6-1.4,0.6-2.4
			v-4.2H87.8z"/>
		<path class="st3" d="M95.6,124.6c0.5,0.2,0.9,0.6,1.2,1c0.3,0.5,0.4,1,0.4,1.6v5.6H96v-5c0-1.6-0.7-2.5-2.2-2.5
			c-0.9,0-1.5,0.3-1.9,0.9c-0.4,0.6-0.6,1.4-0.6,2.4v4.2h-1.2v-8.3h1.2v1.4c0.3-0.5,0.7-0.9,1.1-1.2c0.5-0.3,1-0.4,1.6-0.4
			C94.6,124.2,95.1,124.3,95.6,124.6z"/>
		<path class="st3" d="M107.3,119.9v12.9h-1.2v-1.2c-0.3,0.5-0.8,0.8-1.3,1.1c-0.5,0.3-1,0.4-1.6,0.4c-0.8,0-1.5-0.2-2.1-0.6
			c-0.6-0.4-1.1-0.9-1.5-1.6c-0.4-0.7-0.5-1.4-0.5-2.3c0-0.9,0.2-1.6,0.5-2.3c0.3-0.7,0.8-1.2,1.5-1.6c0.6-0.4,1.3-0.6,2.1-0.6
			c0.6,0,1.2,0.1,1.7,0.4c0.5,0.3,0.9,0.6,1.3,1.1v-5.8H107.3z M104.7,131.6c0.4-0.3,0.8-0.7,1-1.2c0.2-0.5,0.4-1.1,0.4-1.7
			s-0.1-1.2-0.4-1.7c-0.2-0.5-0.6-0.9-1-1.2c-0.4-0.3-0.9-0.4-1.5-0.4c-0.6,0-1.1,0.1-1.5,0.4c-0.4,0.3-0.8,0.7-1,1.2
			c-0.2,0.5-0.4,1.1-0.4,1.7c0,0.7,0.1,1.2,0.4,1.7c0.2,0.5,0.6,0.9,1,1.2c0.4,0.3,0.9,0.4,1.5,0.4
			C103.7,132,104.2,131.9,104.7,131.6z"/>
		<path class="st3" d="M115.1,124.8c0.6,0.4,1.1,0.9,1.4,1.5c0.3,0.6,0.5,1.3,0.5,2.1c0,0.2,0,0.4,0,0.5h-6.8c0,0.9,0.3,1.6,0.8,2.2
			c0.5,0.6,1.2,0.9,2.1,0.9c0.7,0,1.3-0.1,1.8-0.4c0.5-0.3,0.8-0.6,1.1-1.1l1,0.6c-0.4,0.6-0.9,1.1-1.5,1.4
			c-0.6,0.3-1.4,0.5-2.3,0.5c-0.8,0-1.5-0.2-2.1-0.6c-0.6-0.4-1.1-0.9-1.5-1.6c-0.4-0.7-0.5-1.4-0.5-2.3s0.2-1.6,0.5-2.3
			c0.3-0.7,0.8-1.2,1.5-1.6c0.6-0.4,1.3-0.6,2.1-0.6C113.9,124.2,114.5,124.4,115.1,124.8z M115.9,127.9c-0.1-0.9-0.4-1.5-0.9-1.9
			c-0.5-0.4-1.1-0.6-1.9-0.6c-0.8,0-1.4,0.2-1.9,0.7c-0.5,0.5-0.8,1.1-0.9,1.9H115.9z"/>
		<path class="st3" d="M123.7,124.4v1.1c-0.2-0.1-0.5-0.2-0.8-0.2c-0.5,0-1,0.1-1.4,0.4c-0.4,0.3-0.8,0.7-1.1,1.2
			c-0.3,0.5-0.4,1.2-0.4,1.9v4h-1.2v-8.3h1.2v1.7c0.3-0.6,0.7-1.1,1.2-1.4c0.5-0.3,1-0.5,1.7-0.5
			C123.2,124.2,123.5,124.3,123.7,124.4z"/>
		<path class="st3" d="M132,120.7h1.2v12.1H132v-10.1l-2.9,2.8l-0.7-0.7L132,120.7z"/>
		<path class="st3" d="M135.7,132c0-0.5,0.1-1,0.4-1.4c0.2-0.4,0.5-0.8,0.9-1.2c0.4-0.3,0.8-0.8,1.5-1.3c0.4-0.3,0.6-0.5,0.6-0.5
			c0.8-0.7,1.4-1.3,1.8-1.9c0.4-0.6,0.6-1.3,0.6-2.2c0-0.6-0.2-1-0.6-1.4c-0.4-0.3-0.9-0.5-1.5-0.5c-0.6,0-1.1,0.1-1.6,0.4
			c-0.5,0.3-0.9,0.7-1.3,1.3l-1-0.8c0.5-0.7,1.1-1.2,1.7-1.5c0.7-0.4,1.4-0.6,2.2-0.6c1.1,0,1.9,0.3,2.5,0.8
			c0.6,0.6,0.9,1.3,0.9,2.3c0,1-0.3,1.9-0.9,2.7c-0.6,0.8-1.3,1.6-2.3,2.4c-0.2,0.2-0.4,0.3-0.4,0.3c-0.7,0.6-1.3,1.1-1.6,1.5
			c-0.4,0.4-0.5,0.8-0.5,1.2h5.9v1.2h-7.3V132z"/>
	</g>
	<g>
		<path class="st3" d="M220.3,103.6c1,0.9,1.6,2.2,1.6,3.9c0,1.5-0.6,2.7-1.7,3.7c-1.1,1-2.6,1.5-4.5,1.6v2.9h-1.2v-2.9
			c-1.4-0.1-2.7-0.5-4-1.2c-1.3-0.7-2.3-1.6-3.2-2.8l1.8-1.5c0.6,1,1.4,1.8,2.4,2.4c1,0.6,2,1,3.1,1.1v-7.5c-4.1-1-6.1-2.8-6.1-5.5
			c0-1.7,0.6-3,1.7-3.9c1.1-0.9,2.6-1.4,4.6-1.4v-2.8h1.2v2.9c2.4,0.2,4.4,1.3,6,3.2l-1.7,1.5c-0.6-0.8-1.3-1.4-1.9-1.9
			c-0.7-0.4-1.5-0.7-2.4-0.8v7C217.8,101.9,219.2,102.7,220.3,103.6z M211.5,99.6c0.6,0.5,1.6,1,3.1,1.4v-6.8
			c-1.2,0-2.1,0.3-2.9,0.9c-0.7,0.6-1.1,1.3-1.1,2.2C210.6,98.4,210.9,99.1,211.5,99.6z M218.6,109.8c0.7-0.6,1-1.4,1-2.4
			c0-1-0.3-1.8-1-2.4c-0.6-0.6-1.6-1.1-2.9-1.5v7.2C217,110.7,218,110.4,218.6,109.8z"/>
		<path class="st3" d="M227.7,112.6c-1.1-0.5-1.9-1.3-2.5-2.2c-0.6-1-0.9-2.1-0.9-3.3c0-1.4,0.4-2.5,1.1-3.5c0.7-0.9,1.8-1.6,3.1-2
			c-2.2-0.8-3.3-2.3-3.3-4.4c0-1.1,0.3-2.1,0.8-2.9c0.6-0.8,1.3-1.4,2.2-1.9c0.9-0.4,2-0.7,3.1-0.7c1.1,0,2.2,0.2,3.1,0.7
			c0.9,0.4,1.7,1.1,2.2,1.9c0.5,0.8,0.8,1.8,0.8,2.9c0,2.2-1.1,3.6-3.3,4.4c1.4,0.5,2.4,1.1,3.1,2c0.7,0.9,1,2,1,3.4
			c0,1.2-0.3,2.3-0.9,3.3c-0.6,1-1.4,1.7-2.5,2.3c-1.1,0.5-2.3,0.8-3.6,0.8C229.9,113.4,228.7,113.1,227.7,112.6z M234.7,110.2
			c0.9-0.8,1.3-1.8,1.3-3.2c0-1.4-0.4-2.5-1.3-3.2c-0.8-0.7-2-1.1-3.5-1.1c-1.5,0-2.7,0.4-3.5,1.1c-0.9,0.7-1.3,1.8-1.3,3.2
			c0,1.4,0.4,2.5,1.3,3.3c0.9,0.8,2,1.1,3.5,1.1C232.7,111.4,233.9,111,234.7,110.2z M234.1,99.7c0.7-0.6,1-1.4,1-2.5
			c0-1.2-0.3-2-1-2.6c-0.7-0.6-1.7-0.8-2.9-0.8s-2.2,0.3-2.9,0.8c-0.7,0.6-1.1,1.4-1.1,2.5c0,1.2,0.4,2,1.1,2.6
			c0.7,0.6,1.7,0.8,2.9,0.8C232.5,100.6,233.4,100.3,234.1,99.7z"/>
		<path class="st3" d="M241.5,112.7c-0.3-0.3-0.5-0.7-0.5-1.2c0-0.4,0.2-0.8,0.5-1.2c0.3-0.3,0.7-0.5,1.1-0.5c0.5,0,0.9,0.2,1.2,0.5
			c0.3,0.3,0.5,0.7,0.5,1.2c0,0.4-0.2,0.8-0.5,1.2c-0.3,0.3-0.7,0.5-1.2,0.5C242.2,113.1,241.8,113,241.5,112.7z"/>
		<path class="st3" d="M259.1,101.3c1.1,1.2,1.7,2.9,1.7,5.1c0,2.2-0.6,3.9-1.8,5.2c-1.2,1.2-2.8,1.8-5,1.8c-1.4,0-2.6-0.2-3.8-0.7
			c-1.2-0.5-2.1-1.1-2.8-2l1.6-1.1c0.5,0.6,1.2,1.1,2.1,1.5c0.9,0.3,1.9,0.5,3,0.5c1.5,0,2.6-0.4,3.4-1.3c0.8-0.9,1.2-2.2,1.2-3.8
			c0-1.6-0.4-2.8-1.2-3.7c-0.8-0.9-1.9-1.3-3.3-1.3c-0.9,0-1.8,0.1-2.8,0.4c-1,0.3-1.9,0.7-2.8,1.2V92.2h11.1v2.1h-9v5.8
			c1.3-0.4,2.5-0.7,3.7-0.7C256.5,99.5,258,100.1,259.1,101.3z"/>
		<path class="st3" d="M267.3,112c-1.1-0.9-2-2.2-2.7-3.9c-0.6-1.6-1-3.5-1-5.6c0-2.1,0.3-3.9,1-5.6c0.6-1.6,1.5-2.9,2.7-3.9
			c1.1-0.9,2.4-1.4,3.7-1.4c1.4,0,2.6,0.5,3.7,1.4c1.1,0.9,2,2.2,2.7,3.9c0.6,1.6,1,3.5,1,5.6c0,2.1-0.3,3.9-1,5.6
			c-0.6,1.6-1.5,2.9-2.6,3.9c-1.1,0.9-2.3,1.4-3.7,1.4C269.7,113.4,268.4,112.9,267.3,112z M273.6,110.3c0.7-0.7,1.3-1.8,1.8-3.1
			c0.4-1.3,0.6-2.9,0.6-4.6c0-1.7-0.2-3.2-0.6-4.6c-0.4-1.3-1-2.4-1.8-3.1c-0.7-0.7-1.6-1.1-2.6-1.1s-1.8,0.4-2.6,1.1
			c-0.8,0.7-1.3,1.8-1.8,3.1c-0.4,1.3-0.6,2.9-0.6,4.6c0,1.7,0.2,3.2,0.6,4.6c0.4,1.3,1,2.4,1.8,3.1c0.8,0.7,1.6,1.1,2.6,1.1
			S272.8,111,273.6,110.3z"/>
	</g>
</g>
</svg>
