<?xml version="1.0" encoding="utf-8"?>
<!-- Generator: Adobe Illustrator 22.0.1, SVG Export Plug-In . SVG Version: 6.00 Build 0)  -->
<svg version="1.1" id="Layer_1" xmlns="http://www.w3.org/2000/svg" xmlns:xlink="http://www.w3.org/1999/xlink" x="0px" y="0px"
	 viewBox="0 0 360 216" style="enable-background:new 0 0 360 216;" xml:space="preserve">
<style type="text/css">
	.st0{fill:#CB597C;}
	.st1{fill:none;stroke:#FFFFFF;stroke-width:2;stroke-miterlimit:10;}
	.st2{fill:none;stroke:#FFFFFF;stroke-width:6;stroke-miterlimit:10;}
	.st3{fill:#FFFFFF;}
</style>
<g>
	<g>
		<g>
			<path class="st0" d="M334.6,47.6c0,0-33.3-9-30.5-33.2l-118.5-0.7l0,0.4L73.1,13.2c0,0,0.1,31.5-33.4,32.1l0.2,122.2
				c0,0,33.3,9,30.5,33.2l118.5,0.7l0-0.4l112.3,0.8c0,0-0.1-31.5,33.4-32.1L334.6,47.6z"/>
			<path class="st1" d="M281.1,183.1H93.4c-15.8,0-28.6-12.8-28.6-28.6V58.7c0-15.8,12.8-28.6,28.6-28.6h187.7
				c15.8,0,28.6,12.8,28.6,28.6v95.9C309.6,170.3,296.9,183.1,281.1,183.1z"/>
			<line class="st2" x1="191.7" y1="52.8" x2="191.7" y2="162.3"/>
		</g>
		<g>
			<path class="st3" d="M227.5,104.4c1,0.9,1.6,2.2,1.6,3.9c0,1.5-0.6,2.7-1.7,3.7c-1.1,1-2.6,1.5-4.5,1.6v2.9h-1.2v-2.9
				c-1.4-0.1-2.7-0.5-4-1.2c-1.3-0.7-2.3-1.6-3.2-2.8l1.8-1.5c0.6,1,1.4,1.8,2.4,2.4c1,0.6,2,1,3.1,1.1V104c-4.1-1-6.1-2.8-6.1-5.5
				c0-1.7,0.6-3,1.7-3.9c1.1-0.9,2.6-1.4,4.6-1.4v-2.8h1.2v2.9c2.4,0.2,4.4,1.3,6,3.2l-1.7,1.5c-0.6-0.8-1.3-1.4-1.9-1.9
				c-0.7-0.4-1.5-0.7-2.4-0.8v7C225,102.7,226.5,103.5,227.5,104.4z M218.8,100.4c0.6,0.5,1.6,1,3.1,1.4v-6.8
				c-1.2,0-2.1,0.3-2.9,0.9c-0.7,0.6-1.1,1.3-1.1,2.2C217.9,99.2,218.2,99.9,218.8,100.4z M225.9,110.6c0.7-0.6,1-1.4,1-2.4
				c0-1-0.3-1.8-1-2.4c-0.6-0.6-1.6-1.1-2.9-1.5v7.2C224.3,111.5,225.2,111.2,225.9,110.6z"/>
			<path class="st3" d="M234.9,113.4c-1.1-0.5-1.9-1.3-2.5-2.2c-0.6-1-0.9-2.1-0.9-3.3c0-1.4,0.4-2.5,1.1-3.5c0.7-0.9,1.8-1.6,3.1-2
				c-2.2-0.8-3.3-2.3-3.3-4.4c0-1.1,0.3-2.1,0.8-2.9c0.6-0.8,1.3-1.4,2.2-1.9c0.9-0.4,2-0.7,3.1-0.7c1.1,0,2.2,0.2,3.1,0.7
				c0.9,0.4,1.7,1.1,2.2,1.9c0.5,0.8,0.8,1.8,0.8,2.9c0,2.2-1.1,3.6-3.3,4.4c1.4,0.5,2.4,1.1,3.1,2c0.7,0.9,1,2,1,3.4
				c0,1.2-0.3,2.3-0.9,3.3c-0.6,1-1.4,1.7-2.5,2.3c-1.1,0.5-2.3,0.8-3.6,0.8C237.2,114.2,236,113.9,234.9,113.4z M242,111
				c0.9-0.8,1.3-1.8,1.3-3.2c0-1.4-0.4-2.5-1.3-3.2c-0.8-0.7-2-1.1-3.5-1.1c-1.5,0-2.7,0.4-3.5,1.1c-0.9,0.7-1.3,1.8-1.3,3.2
				c0,1.4,0.4,2.5,1.3,3.3c0.9,0.8,2,1.1,3.5,1.1C239.9,112.2,241.1,111.8,242,111z M241.3,100.5c0.7-0.6,1-1.4,1-2.5
				c0-1.2-0.3-2-1-2.6c-0.7-0.6-1.7-0.8-2.9-0.8c-1.2,0-2.2,0.3-2.9,0.8c-0.7,0.6-1.1,1.4-1.1,2.5c0,1.2,0.4,2,1.1,2.6
				c0.7,0.6,1.7,0.8,2.9,0.8C239.7,101.4,240.7,101.1,241.3,100.5z"/>
			<path class="st3" d="M248.8,113.5c-0.3-0.3-0.5-0.7-0.5-1.2c0-0.4,0.2-0.8,0.5-1.2c0.3-0.3,0.7-0.5,1.1-0.5
				c0.5,0,0.9,0.2,1.2,0.5c0.3,0.3,0.5,0.7,0.5,1.2c0,0.4-0.2,0.8-0.5,1.2c-0.3,0.3-0.7,0.5-1.2,0.5
				C249.5,113.9,249.1,113.8,248.8,113.5z"/>
			<path class="st3" d="M266.4,102.1c1.1,1.2,1.7,2.9,1.7,5.1c0,2.2-0.6,3.9-1.8,5.2c-1.2,1.2-2.8,1.8-5,1.8c-1.4,0-2.6-0.2-3.8-0.7
				c-1.2-0.5-2.1-1.1-2.8-2l1.6-1.1c0.5,0.6,1.2,1.1,2.1,1.5c0.9,0.3,1.9,0.5,3,0.5c1.5,0,2.6-0.4,3.4-1.3c0.8-0.9,1.2-2.2,1.2-3.8
				c0-1.6-0.4-2.8-1.2-3.7c-0.8-0.9-1.9-1.3-3.3-1.3c-0.9,0-1.8,0.1-2.8,0.4c-1,0.3-1.9,0.7-2.8,1.2V93H267v2.1h-9v5.8
				c1.3-0.4,2.5-0.7,3.7-0.7C263.7,100.3,265.3,100.9,266.4,102.1z"/>
			<path class="st3" d="M274.5,112.8c-1.1-0.9-2-2.2-2.7-3.9c-0.6-1.6-1-3.5-1-5.6c0-2.1,0.3-3.9,1-5.6c0.6-1.6,1.5-2.9,2.7-3.9
				c1.1-0.9,2.4-1.4,3.7-1.4c1.4,0,2.6,0.5,3.7,1.4c1.1,0.9,2,2.2,2.7,3.9c0.6,1.6,1,3.5,1,5.6c0,2.1-0.3,3.9-1,5.6
				c-0.6,1.6-1.5,2.9-2.6,3.9c-1.1,0.9-2.3,1.4-3.7,1.4C276.9,114.2,275.7,113.7,274.5,112.8z M280.8,111.1c0.7-0.7,1.3-1.8,1.8-3.1
				c0.4-1.3,0.6-2.9,0.6-4.6s-0.2-3.2-0.6-4.6c-0.4-1.3-1-2.4-1.8-3.1c-0.7-0.7-1.6-1.1-2.6-1.1s-1.8,0.4-2.6,1.1
				c-0.8,0.7-1.3,1.8-1.8,3.1c-0.4,1.3-0.6,2.9-0.6,4.6s0.2,3.2,0.6,4.6c0.4,1.3,1,2.4,1.8,3.1c0.8,0.7,1.6,1.1,2.6,1.1
				S280.1,111.8,280.8,111.1z"/>
		</g>
	</g>
	<g>
		<path class="st3" d="M94.7,97.1c-0.8-0.6-1.5-1.4-1.9-2.4c-0.4-1.1-0.7-2.3-0.7-3.8c0-1.5,0.2-2.8,0.6-3.8
			c0.4-1.1,1.1-1.9,1.9-2.5s1.8-0.9,2.9-0.9c1.1,0,2.1,0.2,2.9,0.8c0.8,0.5,1.4,1.2,1.9,2.1l-1.2,0.7c-0.4-0.8-0.9-1.4-1.5-1.7
			c-0.6-0.3-1.3-0.5-2.1-0.5c-1.2,0-2.1,0.5-2.8,1.5c-0.7,1-1,2.4-1,4.2c0,1.2,0.2,2.2,0.5,3.1c0.3,0.9,0.7,1.5,1.3,2
			c0.6,0.5,1.2,0.7,2,0.7c0.9,0,1.7-0.2,2.2-0.6s1-1.1,1.5-2l1.3,0.8c-0.5,1-1.1,1.8-1.9,2.4c-0.8,0.5-1.7,0.8-2.8,0.8
			C96.5,98,95.5,97.7,94.7,97.1z"/>
		<path class="st3" d="M106,97.3c-0.7-0.4-1.3-1-1.7-1.8c-0.4-0.8-0.6-1.6-0.6-2.6s0.2-1.8,0.6-2.6c0.4-0.8,0.9-1.3,1.6-1.8
			c0.7-0.4,1.5-0.6,2.4-0.6c0.9,0,1.7,0.2,2.4,0.6c0.7,0.4,1.3,1,1.7,1.8s0.6,1.6,0.6,2.6s-0.2,1.8-0.6,2.6
			c-0.4,0.8-0.9,1.4-1.6,1.8c-0.7,0.4-1.5,0.6-2.4,0.6S106.7,97.8,106,97.3z M110.1,96.3c0.5-0.3,0.9-0.8,1.2-1.3
			c0.3-0.6,0.4-1.2,0.4-1.9c0-0.7-0.1-1.4-0.4-1.9c-0.3-0.6-0.7-1-1.2-1.3s-1.1-0.5-1.7-0.5c-0.6,0-1.2,0.2-1.7,0.5
			c-0.5,0.3-0.9,0.8-1.2,1.3c-0.3,0.6-0.4,1.2-0.4,1.9c0,0.7,0.1,1.4,0.4,2c0.3,0.6,0.7,1,1.2,1.3c0.5,0.3,1.1,0.5,1.7,0.5
			C109,96.7,109.6,96.6,110.1,96.3z"/>
		<path class="st3" d="M115.1,97.7V83.1h1.4v14.5H115.1z"/>
		<path class="st3" d="M119.1,97.7V83.1h1.4v14.5H119.1z"/>
		<path class="st3" d="M129.4,88.6c0.7,0.4,1.2,1,1.6,1.7c0.4,0.7,0.6,1.5,0.6,2.4c0,0.3,0,0.4,0,0.6h-7.7c0.1,1,0.4,1.8,0.9,2.5
			c0.6,0.7,1.4,1,2.3,1c0.8,0,1.5-0.2,2-0.5c0.5-0.3,0.9-0.7,1.3-1.2l1.1,0.7c-0.4,0.7-1,1.2-1.7,1.6c-0.7,0.4-1.6,0.6-2.6,0.6
			c-0.9,0-1.7-0.2-2.4-0.6c-0.7-0.4-1.3-1-1.7-1.8c-0.4-0.8-0.6-1.6-0.6-2.6s0.2-1.8,0.6-2.6c0.4-0.8,0.9-1.4,1.6-1.8
			c0.7-0.4,1.5-0.6,2.4-0.6C128,88,128.7,88.2,129.4,88.6z M130.2,92.1c-0.1-1-0.5-1.7-1-2.2c-0.5-0.5-1.2-0.7-2.1-0.7
			c-0.9,0-1.6,0.3-2.1,0.8c-0.6,0.6-0.9,1.2-1,2.1H130.2z"/>
		<path class="st3" d="M142.3,88.3v9c0,0.8-0.2,1.6-0.5,2.2c-0.3,0.7-0.8,1.2-1.5,1.6c-0.6,0.4-1.3,0.6-2.1,0.6h-3.9v-1.2h3.9
			c0.8,0,1.5-0.3,2-0.9c0.5-0.6,0.8-1.3,0.8-2.2v-1c-0.4,0.5-0.9,1-1.4,1.2s-1.2,0.5-1.8,0.5c-0.9,0-1.7-0.2-2.4-0.6
			c-0.7-0.4-1.3-1-1.7-1.8c-0.4-0.8-0.6-1.6-0.6-2.6c0-1,0.2-1.8,0.6-2.6c0.4-0.8,0.9-1.3,1.6-1.8c0.7-0.4,1.5-0.6,2.4-0.6
			c0.7,0,1.3,0.1,1.9,0.4c0.6,0.3,1,0.7,1.4,1.3v-1.4H142.3z M139.3,96.3c0.5-0.3,0.9-0.8,1.2-1.3c0.3-0.6,0.4-1.2,0.4-1.9
			c0-0.7-0.1-1.4-0.4-1.9c-0.3-0.6-0.7-1-1.2-1.3s-1.1-0.5-1.7-0.5c-0.6,0-1.2,0.2-1.7,0.5c-0.5,0.3-0.9,0.8-1.2,1.3
			c-0.3,0.6-0.4,1.2-0.4,1.9c0,0.7,0.1,1.4,0.4,2c0.3,0.6,0.7,1,1.2,1.3c0.5,0.3,1.1,0.5,1.7,0.5C138.3,96.7,138.8,96.6,139.3,96.3z
			"/>
		<path class="st3" d="M151.1,88.6c0.7,0.4,1.2,1,1.6,1.7c0.4,0.7,0.6,1.5,0.6,2.4c0,0.3,0,0.4,0,0.6h-7.7c0.1,1,0.4,1.8,0.9,2.5
			c0.6,0.7,1.4,1,2.3,1c0.8,0,1.5-0.2,2-0.5c0.5-0.3,0.9-0.7,1.3-1.2l1.1,0.7c-0.4,0.7-1,1.2-1.7,1.6c-0.7,0.4-1.6,0.6-2.6,0.6
			c-0.9,0-1.7-0.2-2.4-0.6c-0.7-0.4-1.3-1-1.7-1.8c-0.4-0.8-0.6-1.6-0.6-2.6s0.2-1.8,0.6-2.6c0.4-0.8,0.9-1.4,1.6-1.8
			c0.7-0.4,1.5-0.6,2.4-0.6C149.7,88,150.5,88.2,151.1,88.6z M152,92.1c-0.1-1-0.5-1.7-1-2.2c-0.5-0.5-1.2-0.7-2.1-0.7
			c-0.9,0-1.6,0.3-2.1,0.8c-0.6,0.6-0.9,1.2-1,2.1H152z"/>
		<path class="st3" d="M94.2,116.2c-0.9-0.5-1.7-1.2-2.4-2l1.2-1.1c0.5,0.8,1.1,1.4,1.8,1.8c0.7,0.4,1.6,0.7,2.4,0.7
			c0.9,0,1.7-0.2,2.2-0.6c0.5-0.4,0.7-1,0.7-1.7c0-0.8-0.3-1.4-0.8-1.8c-0.5-0.4-1.4-0.8-2.5-1.1c-2.9-0.7-4.3-2-4.3-3.9
			c0-1.2,0.4-2.1,1.2-2.7c0.8-0.6,1.8-1,3.2-1c1,0,1.9,0.2,2.7,0.6c0.8,0.4,1.5,0.9,2.1,1.7l-1.2,1c-0.5-0.7-1-1.1-1.6-1.5
			c-0.6-0.3-1.3-0.5-2.1-0.5c-0.8,0-1.5,0.2-2.1,0.6c-0.5,0.4-0.8,0.9-0.8,1.6c0,0.7,0.2,1.2,0.7,1.6c0.5,0.4,1.3,0.8,2.5,1
			c1.4,0.4,2.5,0.9,3.2,1.5s1.1,1.6,1.1,2.8c0,0.7-0.2,1.4-0.6,1.9c-0.4,0.6-0.9,1-1.6,1.3c-0.7,0.3-1.5,0.5-2.4,0.5
			C96.1,117,95.2,116.7,94.2,116.2z"/>
		<path class="st3" d="M104.4,116.7v-8.1h-1.6v-1.2h1.6v-3.1h1.4v3.1h2.2v1.2h-2.2v8.1H104.4z"/>
		<path class="st3" d="M117.6,107.3v9.4h-1.4v-1.6c-0.3,0.6-0.7,1.1-1.3,1.4c-0.5,0.3-1.1,0.5-1.8,0.5c-0.7,0-1.3-0.1-1.8-0.4
			s-1-0.7-1.3-1.2c-0.3-0.5-0.5-1.1-0.5-1.8v-6.3h1.4v5.7c0,1.9,0.8,2.8,2.5,2.8c1,0,1.7-0.3,2.2-1c0.5-0.7,0.7-1.6,0.7-2.7v-4.7
			H117.6z"/>
		<path class="st3" d="M128.9,102.1v14.5h-1.4v-1.4c-0.4,0.5-0.9,1-1.4,1.2s-1.2,0.5-1.8,0.5c-0.9,0-1.7-0.2-2.4-0.6
			c-0.7-0.4-1.3-1-1.7-1.8c-0.4-0.8-0.6-1.6-0.6-2.6c0-1,0.2-1.8,0.6-2.6c0.4-0.8,0.9-1.3,1.6-1.8c0.7-0.4,1.5-0.6,2.4-0.6
			c0.7,0,1.3,0.1,1.9,0.4c0.6,0.3,1,0.7,1.4,1.3v-6.6H128.9z M125.9,115.3c0.5-0.3,0.9-0.8,1.2-1.3c0.3-0.6,0.4-1.2,0.4-1.9
			c0-0.7-0.1-1.4-0.4-1.9c-0.3-0.6-0.7-1-1.2-1.3s-1.1-0.5-1.7-0.5c-0.6,0-1.2,0.2-1.7,0.5c-0.5,0.3-0.9,0.8-1.2,1.3
			c-0.3,0.6-0.4,1.2-0.4,1.9c0,0.7,0.1,1.4,0.4,2c0.3,0.6,0.7,1,1.2,1.3c0.5,0.3,1.1,0.5,1.7,0.5
			C124.8,115.7,125.4,115.6,125.9,115.3z"/>
		<path class="st3" d="M137.7,107.6c0.7,0.4,1.2,1,1.6,1.7c0.4,0.7,0.6,1.5,0.6,2.4c0,0.3,0,0.4,0,0.6h-7.7c0.1,1,0.4,1.8,0.9,2.5
			c0.6,0.7,1.4,1,2.3,1c0.8,0,1.5-0.2,2-0.5c0.5-0.3,0.9-0.7,1.3-1.2l1.1,0.7c-0.4,0.7-1,1.2-1.7,1.6c-0.7,0.4-1.6,0.6-2.6,0.6
			c-0.9,0-1.7-0.2-2.4-0.6c-0.7-0.4-1.3-1-1.7-1.8c-0.4-0.8-0.6-1.6-0.6-2.6s0.2-1.8,0.6-2.6c0.4-0.8,0.9-1.4,1.6-1.8
			c0.7-0.4,1.5-0.6,2.4-0.6C136.3,107,137,107.2,137.7,107.6z M138.5,111.1c-0.1-1-0.5-1.7-1-2.2c-0.5-0.5-1.2-0.7-2.1-0.7
			c-0.9,0-1.6,0.3-2.1,0.8c-0.6,0.6-0.9,1.2-1,2.1H138.5z"/>
		<path class="st3" d="M148.1,107.4c0.6,0.3,1,0.7,1.3,1.2c0.3,0.5,0.5,1.1,0.5,1.8v6.3h-1.4V111c0-1.9-0.8-2.8-2.5-2.8
			c-1,0-1.7,0.3-2.2,1s-0.7,1.6-0.7,2.7v4.7h-1.4v-9.4h1.4v1.6c0.3-0.6,0.7-1.1,1.3-1.4c0.5-0.3,1.1-0.5,1.8-0.5
			C147,107,147.6,107.1,148.1,107.4z"/>
		<path class="st3" d="M153.1,116.7v-8.1h-1.6v-1.2h1.6v-3.1h1.4v3.1h2.2v1.2h-2.2v8.1H153.1z"/>
		<path class="st3" d="M159,116.4c-0.7-0.4-1.2-0.9-1.6-1.6l1.2-0.6c0.5,1.1,1.5,1.6,2.9,1.6c0.7,0,1.3-0.1,1.7-0.4
			c0.5-0.3,0.7-0.6,0.7-1.2c0-0.5-0.2-1-0.6-1.2s-1-0.4-1.9-0.5c-1.3-0.1-2.2-0.4-2.8-0.9c-0.6-0.5-0.8-1.1-0.8-1.9
			c0-0.9,0.3-1.5,0.9-2c0.6-0.5,1.5-0.7,2.6-0.7c1.9,0,3.1,0.7,3.8,2.2l-1.2,0.6c-0.2-0.5-0.6-0.9-1-1.2c-0.4-0.3-1-0.4-1.7-0.4
			c-0.7,0-1.2,0.1-1.6,0.4c-0.4,0.3-0.6,0.6-0.6,1.1c0,0.4,0.2,0.8,0.6,1.1c0.4,0.3,1.1,0.5,2,0.5c1.2,0.1,2.1,0.4,2.6,0.9
			s0.9,1.1,0.9,1.9c0,0.6-0.2,1.2-0.5,1.6c-0.4,0.4-0.8,0.8-1.4,1s-1.2,0.3-1.9,0.3C160.5,117,159.7,116.8,159,116.4z"/>
		<path class="st3" d="M97.7,131.1c-0.3-0.3-0.5-0.9-0.6-1.6c-0.2-0.7-0.2-1.5-0.2-2.5s0.1-1.8,0.2-2.5c0.2-0.7,0.4-1.2,0.6-1.6
			c0.3-0.4,0.6-0.5,0.9-0.5v0.7c-0.2,0-0.4,0.2-0.5,0.5s-0.3,0.8-0.4,1.4c-0.1,0.6-0.1,1.3-0.1,2c0,0.7,0,1.4,0.1,2s0.2,1.1,0.4,1.4
			c0.2,0.3,0.3,0.5,0.5,0.5v0.7C98.3,131.6,98,131.4,97.7,131.1z"/>
		<path class="st3" d="M101.9,131.1v-7.4h-2.6v-0.7h6v0.7h-2.6v7.4H101.9z"/>
		<path class="st3" d="M110.1,125.5c0.3,0.2,0.6,0.4,0.8,0.7c0.2,0.3,0.3,0.7,0.3,1.1v3.8h-0.8v-3.4c0-1.1-0.5-1.7-1.5-1.7
			c-0.6,0-1,0.2-1.3,0.6s-0.4,1-0.4,1.6v2.8h-0.8v-8.7h0.8v4c0.2-0.4,0.4-0.6,0.8-0.8c0.3-0.2,0.7-0.3,1.1-0.3
			C109.4,125.3,109.7,125.3,110.1,125.5z"/>
		<path class="st3" d="M117.7,125.5v5.6h-0.8v-0.9c-0.2,0.4-0.4,0.6-0.8,0.8c-0.3,0.2-0.7,0.3-1.1,0.3c-0.4,0-0.8-0.1-1.1-0.2
			s-0.6-0.4-0.8-0.7c-0.2-0.3-0.3-0.7-0.3-1.1v-3.8h0.8v3.4c0,1.1,0.5,1.7,1.5,1.7c0.6,0,1-0.2,1.3-0.6s0.4-1,0.4-1.6v-2.8H117.7z"
			/>
		<path class="st3" d="M122.5,125.3v0.7c-0.2-0.1-0.4-0.1-0.6-0.1c-0.3,0-0.7,0.1-1,0.3c-0.3,0.2-0.5,0.5-0.7,0.8
			c-0.2,0.4-0.3,0.8-0.3,1.3v2.7h-0.8v-5.6h0.8v1.1c0.2-0.4,0.5-0.7,0.8-1s0.7-0.3,1.1-0.3C122.1,125.3,122.3,125.3,122.5,125.3z"/>
		<path class="st3" d="M123.8,130.9c-0.4-0.2-0.7-0.6-0.9-1l0.7-0.4c0.3,0.6,0.9,0.9,1.7,0.9c0.4,0,0.8-0.1,1-0.2
			c0.3-0.2,0.4-0.4,0.4-0.7c0-0.3-0.1-0.6-0.3-0.7s-0.6-0.3-1.2-0.3c-0.8-0.1-1.3-0.2-1.7-0.5s-0.5-0.7-0.5-1.1
			c0-0.5,0.2-0.9,0.6-1.2c0.4-0.3,0.9-0.4,1.5-0.4c1.1,0,1.9,0.4,2.3,1.3l-0.7,0.4c-0.1-0.3-0.3-0.6-0.6-0.7s-0.6-0.2-1-0.2
			c-0.4,0-0.7,0.1-1,0.2s-0.3,0.4-0.3,0.6c0,0.3,0.1,0.5,0.4,0.6s0.6,0.3,1.2,0.3c0.7,0.1,1.2,0.2,1.6,0.5s0.5,0.7,0.5,1.1
			c0,0.4-0.1,0.7-0.3,1c-0.2,0.3-0.5,0.5-0.9,0.6s-0.7,0.2-1.2,0.2C124.7,131.3,124.2,131.1,123.8,130.9z"/>
		<path class="st3" d="M134,122.4v8.7h-0.8v-0.8c-0.2,0.3-0.5,0.6-0.9,0.8s-0.7,0.3-1.1,0.3c-0.5,0-1-0.1-1.4-0.4
			c-0.4-0.3-0.8-0.6-1-1.1c-0.2-0.5-0.4-1-0.4-1.6c0-0.6,0.1-1.1,0.4-1.5c0.2-0.5,0.6-0.8,1-1.1s0.9-0.4,1.4-0.4
			c0.4,0,0.8,0.1,1.1,0.3c0.3,0.2,0.6,0.4,0.9,0.8v-3.9H134z M132.3,130.2c0.3-0.2,0.5-0.5,0.7-0.8c0.2-0.3,0.3-0.7,0.3-1.2
			c0-0.4-0.1-0.8-0.3-1.2s-0.4-0.6-0.7-0.8c-0.3-0.2-0.6-0.3-1-0.3c-0.4,0-0.7,0.1-1,0.3c-0.3,0.2-0.5,0.5-0.7,0.8
			c-0.2,0.3-0.3,0.7-0.3,1.2c0,0.4,0.1,0.8,0.3,1.2c0.2,0.3,0.4,0.6,0.7,0.8c0.3,0.2,0.6,0.3,1,0.3
			C131.6,130.5,132,130.4,132.3,130.2z"/>
		<path class="st3" d="M140.8,125.5v5.6h-0.8v-0.8c-0.2,0.3-0.5,0.6-0.9,0.8s-0.7,0.3-1.1,0.3c-0.5,0-1-0.1-1.4-0.4
			c-0.4-0.3-0.8-0.6-1-1.1c-0.2-0.5-0.4-1-0.4-1.6c0-0.6,0.1-1.1,0.4-1.5c0.2-0.5,0.6-0.8,1-1.1s0.9-0.4,1.4-0.4
			c0.4,0,0.8,0.1,1.1,0.3c0.3,0.2,0.6,0.4,0.9,0.8v-0.8H140.8z M139,130.2c0.3-0.2,0.5-0.5,0.7-0.8c0.2-0.3,0.3-0.7,0.3-1.2
			c0-0.4-0.1-0.8-0.3-1.2s-0.4-0.6-0.7-0.8c-0.3-0.2-0.6-0.3-1-0.3c-0.4,0-0.7,0.1-1,0.3c-0.3,0.2-0.5,0.5-0.7,0.8
			c-0.2,0.3-0.3,0.7-0.3,1.2c0,0.4,0.1,0.8,0.3,1.2c0.2,0.3,0.4,0.6,0.7,0.8c0.3,0.2,0.6,0.3,1,0.3
			C138.3,130.5,138.7,130.4,139,130.2z"/>
		<path class="st3" d="M146.1,125.5h0.8l-3,8h-0.8l0.9-2.3l-2.3-5.7h0.9l1.9,4.7L146.1,125.5z"/>
		<path class="st3" d="M148.2,130.9c-0.4-0.2-0.7-0.6-0.9-1l0.7-0.4c0.3,0.6,0.9,0.9,1.7,0.9c0.4,0,0.8-0.1,1-0.2
			c0.3-0.2,0.4-0.4,0.4-0.7c0-0.3-0.1-0.6-0.3-0.7s-0.6-0.3-1.2-0.3c-0.8-0.1-1.3-0.2-1.7-0.5s-0.5-0.7-0.5-1.1
			c0-0.5,0.2-0.9,0.6-1.2c0.4-0.3,0.9-0.4,1.5-0.4c1.1,0,1.9,0.4,2.3,1.3l-0.7,0.4c-0.1-0.3-0.3-0.6-0.6-0.7s-0.6-0.2-1-0.2
			c-0.4,0-0.7,0.1-1,0.2s-0.3,0.4-0.3,0.6c0,0.3,0.1,0.5,0.4,0.6s0.6,0.3,1.2,0.3c0.7,0.1,1.2,0.2,1.6,0.5s0.5,0.7,0.5,1.1
			c0,0.4-0.1,0.7-0.3,1c-0.2,0.3-0.5,0.5-0.9,0.6s-0.7,0.2-1.2,0.2C149.1,131.3,148.6,131.1,148.2,130.9z"/>
		<path class="st3" d="M153,130.9c0.2,0,0.4-0.2,0.5-0.5c0.2-0.3,0.3-0.8,0.4-1.4s0.1-1.3,0.1-2c0-0.7,0-1.4-0.1-2
			c-0.1-0.6-0.2-1.1-0.4-1.4s-0.3-0.5-0.5-0.5v-0.7c0.4,0,0.7,0.2,0.9,0.5c0.3,0.4,0.5,0.9,0.6,1.6c0.2,0.7,0.2,1.5,0.2,2.5
			s-0.1,1.8-0.2,2.5c-0.2,0.7-0.4,1.2-0.6,1.6c-0.3,0.3-0.6,0.5-0.9,0.5V130.9z"/>
	</g>
</g>
</svg>
