<?xml version="1.0" encoding="utf-8"?>
<!-- Generator: Adobe Illustrator 22.0.1, SVG Export Plug-In . SVG Version: 6.00 Build 0)  -->
<svg version="1.1" id="Layer_1" xmlns="http://www.w3.org/2000/svg" xmlns:xlink="http://www.w3.org/1999/xlink" x="0px" y="0px"
	 viewBox="0 0 360 216" style="enable-background:new 0 0 360 216;" xml:space="preserve">
<style type="text/css">
	.st0{fill:#CB597C;}
	.st1{fill:none;stroke:#FFFFFF;stroke-width:2;stroke-miterlimit:10;}
	.st2{fill:none;stroke:#FFFFFF;stroke-width:6;stroke-miterlimit:10;}
	.st3{fill:#FFFFFF;}
</style>
<g>
	<g>
		<path class="st0" d="M327.3,47c0,0-33.3-9-30.5-33.2l-118.5-0.7l0,0.4L65.9,12.7c0,0,0.1,31.5-33.4,32.1L32.7,167
			c0,0,33.3,9,30.5,33.2l118.5,0.7l0-0.4l112.3,0.8c0,0-0.1-31.5,33.4-32.1L327.3,47z"/>
		<path class="st1" d="M273.3,182.6H86.7c-16.1,0-29.1-13-29.1-29.1V58.7c0-16.1,13-29.1,29.1-29.1h186.5c16.1,0,29.1,13,29.1,29.1
			v94.7C302.4,169.5,289.4,182.6,273.3,182.6z"/>
		<line class="st2" x1="184.4" y1="52.3" x2="184.4" y2="161.8"/>
	</g>
	<g>
		<path class="st3" d="M88.5,98.3c-0.7-0.5-1.3-1.2-1.7-2.2c-0.4-0.9-0.6-2.1-0.6-3.4c0-1.3,0.2-2.5,0.6-3.4c0.4-1,1-1.7,1.7-2.2
			c0.7-0.5,1.6-0.8,2.6-0.8c0.9,0,1.7,0.2,2.4,0.6c0.7,0.4,1.3,1,1.7,1.9l-1,0.7c-0.7-1.3-1.8-2-3.1-2c-1.1,0-2,0.5-2.6,1.4
			c-0.6,0.9-0.9,2.2-0.9,3.8c0,1.6,0.3,2.8,0.9,3.8c0.6,0.9,1.5,1.4,2.6,1.4c0.6,0,1.2-0.1,1.7-0.4c0.5-0.3,0.9-0.7,1.2-1.3
			c0.3-0.6,0.4-1.3,0.4-2.1h-2.9v-1.1h4.2v1.1c0,1.1-0.2,2-0.6,2.8c-0.4,0.8-0.9,1.3-1.6,1.7C92.8,98.8,92,99,91.1,99
			C90.1,99,89.2,98.8,88.5,98.3z"/>
		<path class="st3" d="M103.1,90.7c0.6,0.4,1.1,0.9,1.4,1.5c0.3,0.6,0.5,1.3,0.5,2.1c0,0.2,0,0.4,0,0.5h-6.8c0,0.9,0.3,1.6,0.8,2.2
			c0.5,0.6,1.2,0.9,2.1,0.9c0.7,0,1.3-0.1,1.8-0.4c0.5-0.3,0.8-0.6,1.1-1.1l1,0.6c-0.4,0.6-0.9,1.1-1.5,1.4
			c-0.6,0.3-1.4,0.5-2.3,0.5c-0.8,0-1.5-0.2-2.1-0.6c-0.6-0.4-1.1-0.9-1.5-1.6S97,95.4,97,94.6c0-0.9,0.2-1.6,0.5-2.3
			c0.3-0.7,0.8-1.2,1.5-1.6c0.6-0.4,1.3-0.6,2.1-0.6C101.9,90.1,102.5,90.3,103.1,90.7z M103.9,93.8c-0.1-0.9-0.4-1.5-0.9-1.9
			c-0.5-0.4-1.1-0.6-1.9-0.6c-0.8,0-1.4,0.2-1.9,0.7c-0.5,0.5-0.8,1.1-0.9,1.9H103.9z"/>
		<path class="st3" d="M112.4,90.5c0.5,0.2,0.9,0.6,1.2,1c0.3,0.5,0.4,1,0.4,1.6v5.6h-1.2v-5c0-1.6-0.7-2.5-2.2-2.5
			c-0.9,0-1.5,0.3-1.9,0.9c-0.4,0.6-0.6,1.4-0.6,2.4v4.2h-1.2v-8.3h1.2v1.4c0.3-0.5,0.7-0.9,1.1-1.2c0.5-0.3,1-0.4,1.6-0.4
			C111.4,90.1,111.9,90.3,112.4,90.5z"/>
		<path class="st3" d="M122,90.7c0.6,0.4,1.1,0.9,1.4,1.5c0.3,0.6,0.5,1.3,0.5,2.1c0,0.2,0,0.4,0,0.5h-6.8c0,0.9,0.3,1.6,0.8,2.2
			c0.5,0.6,1.2,0.9,2.1,0.9c0.7,0,1.3-0.1,1.8-0.4c0.5-0.3,0.8-0.6,1.1-1.1l1,0.6c-0.4,0.6-0.9,1.1-1.5,1.4
			c-0.6,0.3-1.4,0.5-2.3,0.5c-0.8,0-1.5-0.2-2.1-0.6c-0.6-0.4-1.1-0.9-1.5-1.6s-0.5-1.4-0.5-2.3c0-0.9,0.2-1.6,0.5-2.3
			s0.8-1.2,1.5-1.6c0.6-0.4,1.3-0.6,2.1-0.6C120.7,90.1,121.4,90.3,122,90.7z M122.7,93.8c-0.1-0.9-0.4-1.5-0.9-1.9
			c-0.5-0.4-1.1-0.6-1.9-0.6c-0.8,0-1.4,0.2-1.9,0.7c-0.5,0.5-0.8,1.1-0.9,1.9H122.7z"/>
		<path class="st3" d="M130.6,90.3v1.1c-0.2-0.1-0.5-0.2-0.8-0.2c-0.5,0-1,0.1-1.4,0.4c-0.4,0.3-0.8,0.7-1.1,1.2
			c-0.3,0.5-0.4,1.2-0.4,1.9v4h-1.2v-8.3h1.2v1.7c0.3-0.6,0.7-1.1,1.2-1.4c0.5-0.3,1-0.5,1.7-0.5C130,90.1,130.3,90.2,130.6,90.3z"
			/>
		<path class="st3" d="M139.4,90.4v8.3h-1.2v-1.2c-0.3,0.5-0.8,0.8-1.3,1.1s-1,0.4-1.6,0.4c-0.8,0-1.5-0.2-2.1-0.6
			c-0.6-0.4-1.1-0.9-1.5-1.6c-0.4-0.7-0.5-1.4-0.5-2.3c0-0.9,0.2-1.6,0.5-2.3c0.3-0.7,0.8-1.2,1.5-1.6s1.3-0.6,2.1-0.6
			c0.6,0,1.2,0.1,1.7,0.4c0.5,0.3,0.9,0.6,1.3,1.1v-1.2H139.4z M136.8,97.5c0.4-0.3,0.8-0.7,1-1.2c0.2-0.5,0.4-1.1,0.4-1.7
			s-0.1-1.2-0.4-1.7c-0.2-0.5-0.6-0.9-1-1.2c-0.4-0.3-0.9-0.4-1.5-0.4c-0.6,0-1.1,0.1-1.5,0.4c-0.4,0.3-0.8,0.7-1,1.2
			c-0.2,0.5-0.4,1.1-0.4,1.7c0,0.7,0.1,1.2,0.4,1.7c0.2,0.5,0.6,0.9,1,1.2c0.4,0.3,0.9,0.4,1.5,0.4
			C135.8,97.9,136.3,97.8,136.8,97.5z"/>
		<path class="st3" d="M141.7,98.7V85.8h1.2v12.9H141.7z"/>
		<path class="st3" d="M94.6,120l-1.2-3.4h-5l-1.1,3.4h-1.3l4.3-12.1h1.2l4.4,12.1H94.6z M88.7,115.5h4.2l-2.2-5.9L88.7,115.5z"/>
		<path class="st3" d="M104.9,107.1V120h-1.2v-1.2c-0.3,0.5-0.8,0.8-1.3,1.1c-0.5,0.3-1,0.4-1.6,0.4c-0.8,0-1.5-0.2-2.1-0.6
			c-0.6-0.4-1.1-0.9-1.5-1.6c-0.4-0.7-0.5-1.4-0.5-2.3c0-0.9,0.2-1.6,0.5-2.3c0.3-0.7,0.8-1.2,1.5-1.6c0.6-0.4,1.3-0.6,2.1-0.6
			c0.6,0,1.2,0.1,1.7,0.4c0.5,0.3,0.9,0.6,1.3,1.1v-5.8H104.9z M102.3,118.8c0.4-0.3,0.8-0.7,1-1.2c0.2-0.5,0.4-1.1,0.4-1.7
			s-0.1-1.2-0.4-1.7c-0.2-0.5-0.6-0.9-1-1.2c-0.4-0.3-0.9-0.4-1.5-0.4c-0.6,0-1.1,0.1-1.5,0.4c-0.4,0.3-0.8,0.7-1,1.2
			c-0.2,0.5-0.4,1.1-0.4,1.7c0,0.7,0.1,1.2,0.4,1.7c0.2,0.5,0.6,0.9,1,1.2c0.4,0.3,0.9,0.4,1.5,0.4
			C101.3,119.2,101.8,119.1,102.3,118.8z"/>
		<path class="st3" d="M117.9,112.2c0.5,0.5,0.8,1.3,0.8,2.2v5.6h-1.2v-5c0-0.9-0.2-1.5-0.5-1.9c-0.3-0.4-0.8-0.6-1.3-0.6
			c-0.7,0-1.2,0.3-1.5,0.8c-0.4,0.5-0.6,1.2-0.6,2v4.7h-1.2v-5c0-0.9-0.2-1.5-0.5-1.9c-0.3-0.4-0.8-0.6-1.3-0.6
			c-0.7,0-1.3,0.3-1.6,0.9c-0.4,0.6-0.5,1.4-0.5,2.4v4.2h-1.2v-8.3h1.2v1.3c0.3-0.5,0.6-0.9,1-1.2s0.9-0.4,1.4-0.4
			c0.6,0,1.1,0.2,1.6,0.5c0.4,0.3,0.8,0.8,0.9,1.4c0.3-0.6,0.6-1.1,1.1-1.4c0.4-0.3,1-0.5,1.6-0.5
			C116.7,111.4,117.3,111.7,117.9,112.2z"/>
		<path class="st3" d="M121.3,109.8c-0.2-0.2-0.3-0.4-0.3-0.7c0-0.3,0.1-0.5,0.3-0.7c0.2-0.2,0.4-0.3,0.7-0.3c0.3,0,0.5,0.1,0.7,0.3
			c0.2,0.2,0.3,0.4,0.3,0.7c0,0.3-0.1,0.5-0.3,0.7c-0.2,0.2-0.4,0.3-0.7,0.3C121.8,110.1,121.5,110,121.3,109.8z M121.4,120v-8.3
			h1.2v8.3H121.4z"/>
		<path class="st3" d="M126.3,119.8c-0.6-0.3-1.1-0.8-1.4-1.5l1.1-0.5c0.4,0.9,1.3,1.4,2.6,1.4c0.6,0,1.1-0.1,1.5-0.3
			c0.4-0.2,0.6-0.6,0.6-1c0-0.5-0.2-0.8-0.5-1.1c-0.3-0.2-0.9-0.4-1.7-0.5c-1.1-0.1-1.9-0.3-2.4-0.8c-0.5-0.4-0.7-1-0.7-1.6
			c0-0.8,0.3-1.4,0.8-1.8c0.6-0.4,1.3-0.6,2.3-0.6c1.6,0,2.8,0.7,3.4,2l-1.1,0.5c-0.2-0.5-0.5-0.8-0.9-1c-0.4-0.2-0.9-0.3-1.5-0.3
			c-0.6,0-1.1,0.1-1.4,0.3c-0.3,0.2-0.5,0.5-0.5,1c0,0.4,0.2,0.7,0.5,0.9c0.3,0.2,0.9,0.4,1.8,0.5c1.1,0.1,1.8,0.4,2.4,0.8
			s0.8,1,0.8,1.7c0,0.6-0.2,1-0.5,1.4c-0.3,0.4-0.7,0.7-1.3,0.9c-0.5,0.2-1.1,0.3-1.7,0.3C127.6,120.3,126.9,120.1,126.3,119.8z"/>
		<path class="st3" d="M134.6,119.8c-0.6-0.3-1.1-0.8-1.4-1.5l1.1-0.5c0.4,0.9,1.3,1.4,2.6,1.4c0.6,0,1.1-0.1,1.5-0.3
			c0.4-0.2,0.6-0.6,0.6-1c0-0.5-0.2-0.8-0.5-1.1c-0.3-0.2-0.9-0.4-1.7-0.5c-1.1-0.1-1.9-0.3-2.4-0.8c-0.5-0.4-0.7-1-0.7-1.6
			c0-0.8,0.3-1.4,0.8-1.8c0.6-0.4,1.3-0.6,2.3-0.6c1.6,0,2.8,0.7,3.4,2l-1.1,0.5c-0.2-0.5-0.5-0.8-0.9-1c-0.4-0.2-0.9-0.3-1.5-0.3
			c-0.6,0-1.1,0.1-1.4,0.3c-0.3,0.2-0.5,0.5-0.5,1c0,0.4,0.2,0.7,0.5,0.9c0.3,0.2,0.9,0.4,1.8,0.5c1.1,0.1,1.8,0.4,2.4,0.8
			c0.5,0.4,0.8,1,0.8,1.7c0,0.6-0.2,1-0.5,1.4c-0.3,0.4-0.7,0.7-1.3,0.9c-0.5,0.2-1.1,0.3-1.7,0.3
			C135.9,120.3,135.2,120.1,134.6,119.8z"/>
		<path class="st3" d="M142.6,109.8c-0.2-0.2-0.3-0.4-0.3-0.7c0-0.3,0.1-0.5,0.3-0.7c0.2-0.2,0.4-0.3,0.7-0.3c0.3,0,0.5,0.1,0.7,0.3
			c0.2,0.2,0.3,0.4,0.3,0.7c0,0.3-0.1,0.5-0.3,0.7c-0.2,0.2-0.4,0.3-0.7,0.3C143,110.1,142.7,110,142.6,109.8z M142.6,120v-8.3h1.2
			v8.3H142.6z"/>
		<path class="st3" d="M148.2,119.7c-0.6-0.4-1.1-0.9-1.5-1.6c-0.4-0.7-0.5-1.4-0.5-2.3c0-0.9,0.2-1.6,0.5-2.3
			c0.3-0.7,0.8-1.2,1.5-1.6c0.6-0.4,1.3-0.6,2.1-0.6c0.8,0,1.5,0.2,2.1,0.6c0.6,0.4,1.1,0.9,1.5,1.6c0.4,0.7,0.5,1.4,0.5,2.3
			s-0.2,1.6-0.5,2.3c-0.3,0.7-0.8,1.2-1.5,1.6c-0.6,0.4-1.3,0.6-2.1,0.6S148.9,120.1,148.2,119.7z M151.8,118.8
			c0.4-0.3,0.8-0.7,1-1.2c0.2-0.5,0.4-1.1,0.4-1.7s-0.1-1.2-0.4-1.7c-0.2-0.5-0.6-0.9-1-1.2c-0.4-0.3-0.9-0.4-1.5-0.4
			c-0.6,0-1.1,0.1-1.5,0.4c-0.4,0.3-0.8,0.7-1,1.2c-0.2,0.5-0.4,1.1-0.4,1.7c0,0.7,0.1,1.2,0.4,1.7c0.2,0.5,0.6,0.9,1,1.2
			c0.4,0.3,0.9,0.4,1.5,0.4C150.9,119.2,151.4,119.1,151.8,118.8z"/>
		<path class="st3" d="M161.7,111.8c0.5,0.2,0.9,0.6,1.2,1c0.3,0.5,0.4,1,0.4,1.6v5.6h-1.2v-5c0-1.6-0.7-2.5-2.2-2.5
			c-0.9,0-1.5,0.3-1.9,0.9c-0.4,0.6-0.6,1.4-0.6,2.4v4.2h-1.2v-8.3h1.2v1.4c0.3-0.5,0.7-0.9,1.1-1.2c0.5-0.3,1-0.4,1.6-0.4
			C160.7,111.4,161.2,111.5,161.7,111.8z"/>
	</g>
	<g>
		<path class="st3" d="M212.1,106.5c1,0.9,1.6,2.2,1.6,3.9c0,1.5-0.6,2.7-1.7,3.7c-1.1,1-2.6,1.5-4.5,1.6v2.9h-1.2v-2.9
			c-1.4-0.1-2.7-0.5-4-1.2c-1.3-0.7-2.3-1.6-3.2-2.8l1.8-1.5c0.6,1,1.4,1.8,2.4,2.4c1,0.6,2,1,3.1,1.1v-7.5c-4.1-1-6.1-2.8-6.1-5.5
			c0-1.7,0.6-3,1.7-3.9c1.1-0.9,2.6-1.4,4.6-1.4v-2.8h1.2v2.9c2.4,0.2,4.4,1.3,6,3.2L212,100c-0.6-0.8-1.3-1.4-1.9-1.9
			c-0.7-0.4-1.5-0.7-2.4-0.8v7C209.6,104.9,211.1,105.6,212.1,106.5z M203.4,102.6c0.6,0.5,1.6,1,3.1,1.4v-6.8
			c-1.2,0-2.1,0.3-2.9,0.9c-0.7,0.6-1.1,1.3-1.1,2.2C202.5,101.3,202.8,102,203.4,102.6z M210.5,112.7c0.7-0.6,1-1.4,1-2.4
			c0-1-0.3-1.8-1-2.4c-0.6-0.6-1.6-1.1-2.9-1.5v7.2C208.9,113.6,209.8,113.3,210.5,112.7z"/>
		<path class="st3" d="M221.9,95.1h2.1v20.7h-2.1V98.5l-4.9,4.9l-1.2-1.2L221.9,95.1z"/>
		<path class="st3" d="M234.5,95.1h2.1v20.7h-2.1V98.5l-4.9,4.9l-1.2-1.2L234.5,95.1z"/>
		<path class="st3" d="M241.7,115.6c-0.3-0.3-0.5-0.7-0.5-1.2c0-0.4,0.2-0.8,0.5-1.2c0.3-0.3,0.7-0.5,1.1-0.5c0.5,0,0.9,0.2,1.2,0.5
			c0.3,0.3,0.5,0.7,0.5,1.2c0,0.4-0.2,0.8-0.5,1.2c-0.3,0.3-0.7,0.5-1.2,0.5C242.4,116.1,242,115.9,241.7,115.6z"/>
		<path class="st3" d="M250.1,114.9c-1.1-0.9-2-2.2-2.7-3.9c-0.6-1.6-1-3.5-1-5.6c0-2.1,0.3-3.9,1-5.6c0.6-1.6,1.5-2.9,2.7-3.9
			c1.1-0.9,2.4-1.4,3.7-1.4c1.4,0,2.6,0.5,3.7,1.4c1.1,0.9,2,2.2,2.7,3.9c0.6,1.6,1,3.5,1,5.6c0,2.1-0.3,3.9-1,5.6
			c-0.6,1.6-1.5,2.9-2.6,3.9c-1.1,0.9-2.3,1.4-3.7,1.4C252.5,116.3,251.3,115.8,250.1,114.9z M256.4,113.2c0.7-0.7,1.3-1.8,1.8-3.1
			c0.4-1.3,0.6-2.9,0.6-4.6c0-1.7-0.2-3.2-0.6-4.6c-0.4-1.3-1-2.4-1.8-3.1c-0.7-0.7-1.6-1.1-2.6-1.1s-1.8,0.4-2.6,1.1
			c-0.8,0.7-1.3,1.8-1.8,3.1c-0.4,1.3-0.6,2.9-0.6,4.6c0,1.7,0.2,3.2,0.6,4.6c0.4,1.3,1,2.4,1.8,3.1c0.8,0.7,1.6,1.1,2.6,1.1
			S255.6,113.9,256.4,113.2z"/>
		<path class="st3" d="M267.1,114.9c-1.1-0.9-2-2.2-2.7-3.9c-0.6-1.6-1-3.5-1-5.6c0-2.1,0.3-3.9,1-5.6c0.6-1.6,1.5-2.9,2.7-3.9
			c1.1-0.9,2.4-1.4,3.7-1.4c1.4,0,2.6,0.5,3.7,1.4c1.1,0.9,2,2.2,2.7,3.9c0.6,1.6,1,3.5,1,5.6c0,2.1-0.3,3.9-1,5.6
			c-0.6,1.6-1.5,2.9-2.6,3.9c-1.1,0.9-2.3,1.4-3.7,1.4C269.5,116.3,268.3,115.8,267.1,114.9z M273.4,113.2c0.7-0.7,1.3-1.8,1.8-3.1
			c0.4-1.3,0.6-2.9,0.6-4.6c0-1.7-0.2-3.2-0.6-4.6c-0.4-1.3-1-2.4-1.8-3.1c-0.7-0.7-1.6-1.1-2.6-1.1s-1.8,0.4-2.6,1.1
			c-0.8,0.7-1.3,1.8-1.8,3.1c-0.4,1.3-0.6,2.9-0.6,4.6c0,1.7,0.2,3.2,0.6,4.6c0.4,1.3,1,2.4,1.8,3.1c0.8,0.7,1.6,1.1,2.6,1.1
			S272.7,113.9,273.4,113.2z"/>
	</g>
</g>
</svg>
