<?xml version="1.0" encoding="utf-8"?>
<!-- Generator: Adobe Illustrator 21.1.0, SVG Export Plug-In . SVG Version: 6.00 Build 0)  -->
<svg version="1.1" id="Layer_1" xmlns="http://www.w3.org/2000/svg" xmlns:xlink="http://www.w3.org/1999/xlink" x="0px" y="0px"
	 viewBox="0 0 216 216" style="enable-background:new 0 0 216 216;" xml:space="preserve">
<style type="text/css">
	.st0{clip-path:url(#SVGID_2_);}
	.st1{fill:#2E3192;}
	.st2{fill:url(#SVGID_3_);stroke:url(#SVGID_4_);stroke-miterlimit:10;}
	.st3{fill:none;stroke:#F15A29;stroke-miterlimit:10;}
	.st4{fill:#754C29;stroke:#754C29;stroke-miterlimit:10;}
	.st5{stroke:#000000;stroke-miterlimit:10;}
	.st6{fill:#FFFFFF;}
	.st7{font-family:'FontdinerSwanky-Regular';}
	.st8{font-size:59.0426px;}
</style>
<g>
	<defs>
		<circle id="SVGID_1_" cx="110.5" cy="101.4" r="75.2"/>
	</defs>
	<clipPath id="SVGID_2_">
		<use xlink:href="#SVGID_1_"  style="overflow:visible;"/>
	</clipPath>
	<g class="st0">
		<circle class="st1" cx="110.5" cy="101.4" r="75.2"/>
		<g>
			<g>
				
					<linearGradient id="SVGID_3_" gradientUnits="userSpaceOnUse" x1="39.0849" y1="114.1378" x2="174.1853" y2="114.1378" gradientTransform="matrix(0.9978 -6.683858e-02 6.683858e-02 0.9978 -3.4896 7.0667)">
					<stop  offset="0.1522" style="stop-color:#F15A29"/>
					<stop  offset="0.3629" style="stop-color:#F37325"/>
					<stop  offset="0.6098" style="stop-color:#F78F1F"/>
					<stop  offset="0.8623" style="stop-color:#F15F28"/>
				</linearGradient>
				
					<linearGradient id="SVGID_4_" gradientUnits="userSpaceOnUse" x1="38.5849" y1="114.1378" x2="174.6853" y2="114.1378" gradientTransform="matrix(0.9978 -6.683858e-02 6.683858e-02 0.9978 -3.4896 7.0667)">
					<stop  offset="0.1522" style="stop-color:#F15A29"/>
					<stop  offset="0.3629" style="stop-color:#F37325"/>
					<stop  offset="0.6098" style="stop-color:#F78F1F"/>
					<stop  offset="0.8623" style="stop-color:#F15F28"/>
				</linearGradient>
				<path class="st2" d="M115.9,60.6c0,0,8.7-4.1,23.5-0.5c14.9,3.6,24,12.6,28.4,20.4s8.2,11.2,10,28.4c1.8,17.1-4.1,30.4-6,33.6
					c-2,3.2-8.2,11.7-13.8,15.1s-13.8,5.4-13.8,5.4s-4.4,0.8-5.8,0.8c0,0-0.7,0.8-9.5,1.4c0,0-7,2.3-10.8,2c0,0-4.5,1.6-8.6,0.2
					c0,0-7.1,1.3-8.9,1c0,0-3.5-0.1-5-0.4c0,0-3.6,0-5.5-0.9c0,0-1.8,0.7-6.5,0.1s-13.7-4.2-14.4-5c-0.7-0.8-13.1-9.3-15.5-13.7
					c-2.4-4.4-7.9-10.8-9.4-22.5s-3.5-19.7,3.4-36c0,0,5.5-15.6,28.4-25.9c0,0,6.2-3.4,11.8-2.9l7.2-0.5L115.9,60.6z"/>
				<path class="st3" d="M117,60c0,0,29.1,8.4,38.7,38.3s-3.5,61.9-3.5,61.9"/>
				<path class="st3" d="M96.2,60.5c0,0-27.7,12.3-33.3,43.2s11.7,61,11.7,61"/>
				<path class="st3" d="M107.6,60.2c0,0,14.3,15.8,21.1,50c6.8,34.2-4.5,56.5-4.5,56.5"/>
				<path class="st3" d="M105.6,60.3c0,0-12.1,17.6-14.2,52.5s12,55.6,12,55.6"/>
			</g>
			<path class="st4" d="M67.4,41.8c0,0,7.8-1.6,10.2-7.4c0,0,20.1,4.6,30.1,10s13.5,15.5,13.5,15.5s-7.4,4.8-33.1,1.4
				c0,0,6.9-1,3.8-6.7S67.4,41.8,67.4,41.8z"/>
			<path class="st5" d="M123.4,94c0,0,22.6-2.6,37.2-17.7c0,0,1.6,12.2-6.6,21.1c0,0-12.3,15-28.5,11.5
				C125.4,108.9,122.3,99,123.4,94z"/>
			<path class="st5" d="M96.4,96c0,0-22.7,0.2-39.1-12.9c0,0-0.1,12.3,9.2,20.1c0,0,14,13.3,29.7,7.9C96.2,111,98,100.8,96.4,96z"/>
			<path class="st5" d="M58.6,120.9c0,0,8.8,32,21.6,38.3l4.5-12.5l13.5,11.3l2.9-15.5l11.4,14.6l7.1-15l7.2,12l12.4-16.7l2.4,16.5
				c0,0,22.8-26.6,25.5-42.6l-18.9,17.7l-7.8-10.3l-12.3,13.8l-13.1-9.7l-6.9,11.3l-8.3-10l-8.1,13.3l-14.4-12.9l-3.2,10.8
				L58.6,120.9z"/>
		</g>
		<text transform="matrix(1 0 0 1 31.415 141.8151)" class="st6 st7 st8">.</text>
	</g>
</g>
</svg>
