<?xml version="1.0" encoding="utf-8"?>
<!-- Generator: Adobe Illustrator 22.0.0, SVG Export Plug-In . SVG Version: 6.00 Build 0)  -->
<svg version="1.1" id="Layer_1" xmlns="http://www.w3.org/2000/svg" xmlns:xlink="http://www.w3.org/1999/xlink" x="0px" y="0px"
	 viewBox="0 0 216 216" style="enable-background:new 0 0 216 216;" xml:space="preserve">
<style type="text/css">
	.st0{fill:#FFFFFF;}
</style>
<g>
	<g>
		<g>
			<path class="st0" d="M36,91.5c-0.8-0.4-1.7-0.7-2.8-0.9c-1.1-0.2-2.2-0.2-3.2-0.2c-1.7,0-3.4,0.2-4.9,0.6c-1.6,0.4-2.9,1-4.1,1.7
				c-1.2,0.7-2.1,1.6-2.7,2.6c-0.6,1-0.9,2.1-0.7,3.4c0,0.3,0.1,0.5,0.2,0.8c0.1,0.2,0.1,0.5,0.2,0.7c0,0,0,0,0,0.1c0,0,0,0,0,0.1
				c0,0.4-0.1,0.6-0.3,0.8c-0.2,0.2-0.4,0.3-0.7,0.4c-0.3,0-0.5-0.1-0.8-0.2c-0.3-0.2-0.4-0.5-0.5-1c0-0.2,0-0.4,0-0.6
				c0-0.2,0-0.4,0-0.6c0-1.6,0.3-3,1-4.3c0.7-1.3,1.7-2.4,3.1-3.3c1.4-0.9,3.1-1.6,5.1-2.1c2-0.5,4.3-0.7,6.9-0.7
				c0.2,0,0.6,0,0.9,0.1c0.4,0,0.8,0.1,1.2,0.1c0.4,0,0.8,0.1,1.3,0.2c0.4,0.1,0.8,0.2,1.2,0.3c0.9,0.3,1.5,0.5,2,0.7
				c0.5,0.2,0.8,0.5,1,0.8c0.2,0.3,0.3,0.7,0.2,1.1c0,0.4-0.1,0.9-0.2,1.6c-0.2,1.1-0.5,2.4-0.7,3.8c-0.2,1.4-0.5,2.9-0.7,4.3
				c-0.2,1.5-0.4,2.9-0.7,4.3c-0.2,1.4-0.4,2.6-0.6,3.7c-0.1,0.9,0,1.5,0.3,1.8c0.4,0.4,0.8,0.5,1.4,0.5c0.7,0,1.3-0.3,1.9-0.8
				c0.6-0.6,1.1-1.3,1.6-2.2c0.1-0.1,0.1-0.2,0.2-0.2c0-0.1,0.1-0.1,0.2-0.2c0.1-0.1,0.2-0.1,0.3-0.1c0.1,0,0.2,0.1,0.2,0.3
				c-0.1,0.5-0.3,1.1-0.6,1.7c-0.3,0.6-0.7,1.1-1.2,1.6c-0.5,0.5-1.1,0.9-1.7,1.2c-0.6,0.3-1.3,0.4-2,0.4c-0.6,0-1.1-0.1-1.4-0.4
				c-0.4-0.3-0.7-0.6-0.9-1.1c-0.2-0.4-0.3-0.9-0.4-1.5c-0.1-0.6-0.1-1.1,0-1.7c-0.6-0.2-1.3-0.4-1.9-0.6c-0.6-0.2-1.3-0.4-1.9-0.5
				c-0.6-0.2-1.3-0.3-2-0.5c-0.7-0.1-1.4-0.2-2.1-0.2l-2.3,2.9c-0.3,0.4-0.7,0.8-1.1,1.3c-0.4,0.5-0.8,0.9-1.2,1.4
				c-0.4,0.4-0.8,0.8-1.1,1.1c-0.4,0.3-0.7,0.5-0.9,0.6c-0.1,0-0.2-0.1-0.4-0.2c-0.1-0.1-0.2-0.3-0.4-0.4c-0.1-0.2-0.2-0.4-0.3-0.6
				c-0.1-0.2-0.1-0.4-0.2-0.6c-0.1-0.5,0-0.8,0.1-1c0.9-0.5,1.6-1.2,2.4-2c0.7-0.8,1.6-1.8,2.5-2.8c-0.1,0-0.3,0-0.6,0
				c-0.3,0-0.6,0-0.8,0c-0.3,0-0.5,0-0.8,0c-0.2,0-0.3-0.1-0.3-0.2c-0.1-0.4,0-0.8,0.2-1.1c0.2-0.3,0.5-0.5,0.9-0.7
				c0.4-0.2,0.7-0.3,1.2-0.3c0.4,0,0.8,0,1.2,0c0.2,0,0.3,0.1,0.5,0.1c0.1,0,0.3,0.1,0.4,0.1c0.4-0.5,0.9-1.1,1.5-1.8
				c0.6-0.7,1.1-1.5,1.8-2.3c0.6-0.8,1.3-1.7,1.9-2.5c0.7-0.9,1.3-1.7,1.9-2.5c0.6-0.8,1.2-1.6,1.8-2.3C35.1,92.6,35.6,92,36,91.5z
				 M37.1,93.1c-1.4,1.9-2.8,3.9-4.3,6c-1.5,2.1-3.1,4.2-4.8,6.3c1.2,0.2,2.3,0.5,3.5,0.8c1.1,0.3,2.2,0.6,3.4,1
				c0.3-2.4,0.6-4.7,1-7.2C36.2,97.5,36.6,95.2,37.1,93.1z"/>
			<path class="st0" d="M55.4,106.4c-0.5,0.8-1.2,1.2-2.2,1.2c-0.4,0-0.7,0-1.1-0.1c-0.4-0.1-0.7-0.2-1.1-0.4
				c-0.5,1.3-1,2.3-1.5,3.2c-0.6,0.8-1.1,1.5-1.7,2c-0.6,0.5-1.2,0.9-1.7,1.1c-0.6,0.2-1.1,0.3-1.7,0.3c-0.6,0-1.2-0.1-1.6-0.3
				c-0.4-0.2-0.7-0.5-1-0.9c-0.2-0.4-0.4-0.8-0.5-1.4c-0.1-0.5-0.1-1.1-0.1-1.6c0-0.7,0.1-1.6,0.3-2.6c0.2-1,0.4-2,0.7-2.9
				c0.3-0.9,0.6-1.7,1-2.4c0.4-0.7,0.8-1,1.2-1c0.1,0,0.2,0,0.4,0c0.2,0,0.4,0.1,0.6,0.2c0.2,0.1,0.4,0.2,0.5,0.3
				c0.2,0.1,0.2,0.3,0.3,0.4c0,0.1-0.1,0.2-0.2,0.4c-0.2,0.2-0.4,0.5-0.6,0.9c-0.2,0.5-0.5,1.1-0.7,1.7c-0.2,0.6-0.4,1.3-0.6,2
				c-0.2,0.7-0.3,1.4-0.4,2.1c-0.1,0.7-0.1,1.4,0,2.1c0,0.4,0.2,0.8,0.5,1.1c0.3,0.3,0.7,0.4,1.3,0.4c0.5,0,1-0.2,1.5-0.6
				c0.5-0.4,0.9-0.8,1.3-1.4c0.4-0.6,0.7-1.1,1-1.8c0.3-0.6,0.5-1.2,0.6-1.7c-0.6-0.4-1.2-0.9-1.7-1.5c-0.5-0.6-0.7-1.3-0.8-2
				c0-0.3,0-0.6,0.1-0.8c0.1-0.3,0.2-0.5,0.4-0.7c0.2-0.2,0.4-0.4,0.7-0.5c0.2-0.1,0.5-0.2,0.7-0.2c0.7,0,1.2,0.2,1.6,0.5
				c0.4,0.3,0.6,0.7,0.7,1.2c0.1,0.5,0.1,1.1,0.1,1.7c-0.1,0.6-0.2,1.2-0.4,1.7c0.2,0.1,0.5,0.3,0.9,0.4c0.4,0.1,0.7,0.2,0.9,0.2
				c0.4,0,0.7,0,0.9-0.1c0.2-0.1,0.5-0.3,0.7-0.8c0.2-0.3,0.4-0.4,0.7-0.4c0.1,0,0.2,0.1,0.2,0.2C55.8,105.7,55.6,106,55.4,106.4z
				 M50.4,105.5c0.2-0.4,0.3-0.9,0.3-1.3c0-0.4,0-0.8-0.1-1.1c-0.1-0.3-0.3-0.5-0.5-0.7c-0.2-0.2-0.5-0.2-0.7-0.1
				c-0.2,0.1-0.4,0.2-0.5,0.5c-0.1,0.2-0.1,0.4,0,0.7c0.1,0.3,0.2,0.5,0.3,0.8c0.2,0.2,0.4,0.5,0.6,0.7
				C49.9,105.2,50.1,105.4,50.4,105.5z"/>
			<path class="st0" d="M63.6,108.4c-0.2,0.5-0.5,1.1-0.8,1.7c-0.3,0.6-0.8,1.2-1.3,1.7c-0.5,0.5-1.2,1-1.9,1.4
				c-0.7,0.4-1.6,0.6-2.5,0.6c-0.6,0-1.1-0.1-1.6-0.4c-0.4-0.2-0.8-0.6-1.1-0.9c-0.3-0.4-0.5-0.8-0.6-1.3c-0.1-0.5-0.2-1-0.3-1.5
				c-0.1-1,0-2.1,0.4-3.1c0.4-1.1,0.9-2,1.5-2.9c0.6-0.8,1.4-1.5,2.2-2.1c0.8-0.5,1.5-0.8,2.2-0.8c0.3,0,0.6,0.1,0.9,0.3
				c0.2-0.1,0.4-0.2,0.6-0.2c0.2,0,0.4-0.1,0.5-0.1c0.8,0,1.4,0.2,1.8,0.6c0.4,0.4,0.7,1,0.8,1.6c0.1,0.6,0.1,1.3,0,2
				c-0.1,0.7-0.3,1.4-0.6,2c0.2,0.2,0.4,0.3,0.7,0.3c0.2,0,0.4,0.1,0.7,0.1c0.3,0,0.6,0,0.8-0.1c0.2-0.1,0.4-0.2,0.5-0.3
				c0.1-0.2,0.3-0.3,0.4-0.6c0.1-0.2,0.3-0.5,0.6-0.9c0-0.1,0.1-0.1,0.2-0.1c0.1,0,0.2,0.1,0.2,0.2c0.1,0.1,0.1,0.2,0.1,0.3
				c0,0.3-0.1,0.6-0.2,0.9c-0.1,0.3-0.3,0.6-0.5,0.9c-0.2,0.3-0.5,0.5-0.8,0.7c-0.3,0.2-0.7,0.3-1.2,0.3c-0.2,0-0.6,0-0.9-0.1
				C64.2,108.7,63.8,108.6,63.6,108.4z M57.9,111.8c0.5,0,1.1-0.1,1.6-0.4c0.5-0.3,1-0.6,1.4-1c0.4-0.4,0.8-0.9,1.1-1.3
				c0.3-0.5,0.5-1,0.7-1.5c-0.2-0.1-0.4-0.3-0.7-0.6c-0.3-0.3-0.5-0.6-0.8-1c-0.2-0.4-0.5-0.8-0.7-1.2c-0.2-0.4-0.3-0.9-0.4-1.4
				c-0.1-0.3-0.1-0.6,0-0.9c0.1-0.2,0.1-0.4,0.1-0.5c-0.6,0-1.2,0.3-1.8,0.8c-0.6,0.5-1.1,1.1-1.5,1.9c-0.4,0.7-0.8,1.5-1,2.4
				c-0.2,0.9-0.3,1.6-0.2,2.3c0.1,0.8,0.3,1.4,0.7,1.8C56.9,111.6,57.4,111.8,57.9,111.8z M62.9,106.4c0.2-0.4,0.3-0.8,0.4-1.3
				c0.1-0.5,0.1-0.9,0-1.4c-0.1-0.4-0.2-0.8-0.5-1.1c-0.2-0.3-0.6-0.4-1-0.4c-0.2,0-0.3,0.1-0.5,0.4c-0.1,0.3-0.1,0.6-0.1,1
				c0.1,0.3,0.2,0.8,0.5,1.4C62.1,105.5,62.5,106,62.9,106.4z"/>
			<path class="st0" d="M80.7,108.9c0,0.5-0.2,1-0.6,1.6c-0.4,0.5-0.9,1-1.4,1.5c-0.6,0.4-1.2,0.8-1.8,1.1c-0.7,0.3-1.3,0.4-1.9,0.4
				c-0.7,0-1.2-0.2-1.6-0.5c-0.4-0.3-0.7-0.8-0.8-1.3c-0.1-0.5,0-1.2,0.3-1.9c0.2-0.7,0.5-1.4,0.8-2.2c0.3-0.7,0.6-1.5,0.8-2.2
				c0.2-0.7,0.3-1.3,0.3-1.9c-0.2-0.4-0.6-0.5-1.1-0.5c-0.6,0-1.2,0.2-1.7,0.6c-0.5,0.4-0.9,0.9-1.3,1.5c-0.4,0.6-0.7,1.3-1,2.1
				c-0.3,0.8-0.5,1.5-0.7,2.2c-0.2,0.7-0.4,1.4-0.6,2.1c-0.2,0.6-0.3,1.2-0.5,1.5c-0.1,0.2-0.2,0.4-0.3,0.4
				c-0.1,0.1-0.3,0.1-0.7,0.1c-0.1,0-0.3-0.1-0.5-0.3c-0.2-0.2-0.3-0.5-0.4-1.1c0-0.3-0.1-0.6,0-1c0-0.4,0.1-0.8,0.1-1.2v0
				c0.2-1,0.5-2.1,0.8-3.3c0.3-1.2,0.7-2.2,1-3.2c0.4-1,0.7-1.8,1.1-2.4c0.4-0.6,0.7-1,1.1-1c0.3,0,0.5,0.1,0.8,0.2
				c0.2,0.1,0.4,0.3,0.4,0.5c-0.2,0.5-0.3,0.9-0.5,1.3c-0.1,0.4-0.2,0.7-0.4,1.1c-0.1,0.4-0.2,0.7-0.3,1c0.2-0.4,0.6-0.8,0.9-1.2
				c0.4-0.4,0.7-0.8,1.1-1.1c0.4-0.3,0.8-0.6,1.3-0.8c0.4-0.2,0.9-0.3,1.3-0.3c0.6,0,1.1,0.1,1.6,0.4c0.4,0.3,0.7,0.7,0.7,1.2
				c0.1,0.6,0,1.2-0.3,1.9c-0.3,0.7-0.6,1.4-0.9,2.1c-0.3,0.7-0.6,1.5-0.9,2.2c-0.2,0.7-0.3,1.5-0.2,2.2c0,0.4,0.2,0.6,0.4,0.8
				c0.2,0.2,0.5,0.3,1,0.3c0.5,0,1.1-0.3,1.8-0.8c0.7-0.5,1.3-1.2,1.8-1.9l0.4-0.7c0,0,0.1,0,0.1,0c0.1,0,0.2,0,0.3,0.1
				C80.6,108.7,80.7,108.8,80.7,108.9z"/>
		</g>
		<g>
			<path class="st0" d="M100.2,88.6c0,0-2.2,2.7-4.4,1.4l-5.1,10.9l0,0l-4.9,10.4c0,0,2.9,1.3,1.5,4.5l11.3,5.2c0,0,2.2-2.7,4.4-1.4
				l5.1-10.9l0,0l4.9-10.4c0,0-2.9-1.3-1.5-4.5L100.2,88.6z"/>
		</g>
		<g>
			<path class="st0" d="M139.4,107.9c0.2,0,0.4,0.1,0.4,0.4c0,0.1,0,0.2,0,0.3c0,0.1-0.1,0.2-0.1,0.3c-0.3,0.6-0.8,1.3-1.5,2
				c-0.7,0.7-1.6,1.3-2.6,1.9c-1,0.6-2.2,1-3.5,1.4c-1.3,0.4-2.6,0.6-4,0.6c-1.6,0-2.9-0.2-4.1-0.6c-1.2-0.4-2.2-1-3-1.8
				c-0.8-0.7-1.5-1.6-2-2.7c-0.5-1-0.8-2.2-0.9-3.4c-0.1-1.1-0.1-2.3,0.2-3.5c0.2-1.2,0.6-2.4,1.2-3.5c0.6-1.2,1.3-2.3,2.2-3.3
				c0.9-1,1.9-2,3-2.7c1.1-0.8,2.3-1.4,3.7-1.9c1.4-0.5,2.8-0.7,4.3-0.7c1.7,0,3.2,0.4,4.2,1.1c1.1,0.8,1.7,2,1.9,3.6
				c0.1,0.5,0,1.1-0.1,1.6c-0.1,0.5-0.3,1-0.6,1.5c-0.3,0.4-0.6,0.8-0.9,1.1c-0.4,0.3-0.7,0.4-1.1,0.4c-0.2,0-0.4,0-0.6-0.1
				c-0.2-0.1-0.4-0.2-0.6-0.3c-0.2-0.1-0.3-0.3-0.5-0.4c-0.1-0.2-0.2-0.3-0.2-0.5c0-0.1,0-0.3,0.1-0.3c0.1-0.1,0.2-0.2,0.3-0.3h0
				c0.3-0.2,0.5-0.4,0.8-0.6c0.3-0.2,0.5-0.5,0.7-0.7c0.2-0.3,0.3-0.5,0.4-0.9c0.1-0.3,0.1-0.6,0.1-1c-0.1-0.9-0.5-1.6-1.1-2.1
				c-0.6-0.5-1.6-0.8-2.9-0.8c-1.3,0-2.5,0.2-3.6,0.7c-1.1,0.5-2.1,1.1-2.9,1.9c-0.9,0.8-1.6,1.7-2.3,2.7c-0.6,1-1.2,2.1-1.6,3.1
				c-0.4,1.1-0.7,2.2-0.8,3.2c-0.1,1.1-0.2,2.1-0.1,2.9c0.1,0.9,0.4,1.8,0.8,2.6c0.4,0.8,1,1.5,1.7,2c0.7,0.6,1.5,1,2.5,1.3
				c0.9,0.3,2,0.5,3.1,0.5c0.9,0,1.7-0.1,2.5-0.3c0.8-0.2,1.6-0.4,2.3-0.7c0.7-0.3,1.4-0.6,2-1c0.6-0.4,1.1-0.8,1.6-1.2
				c0.2-0.2,0.5-0.5,0.6-0.7c0.2-0.2,0.3-0.4,0.5-0.6s0.2-0.3,0.3-0.5C139.2,107.9,139.3,107.9,139.4,107.9z"/>
			<path class="st0" d="M145.7,108.9c0,0.4-0.2,0.9-0.6,1.5c-0.4,0.5-0.8,1-1.3,1.5c-0.5,0.5-1.1,0.9-1.8,1.2
				c-0.6,0.3-1.2,0.5-1.8,0.5c-0.8,0-1.3-0.2-1.7-0.5c-0.3-0.3-0.5-0.8-0.6-1.5c0-0.3,0-0.8,0-1.4c0-0.6,0.1-1.2,0.2-1.9
				c0.1-0.7,0.3-1.4,0.5-2.2c0.2-0.7,0.4-1.4,0.6-2.1c0.2-0.7,0.5-1.3,0.8-1.8c0.3-0.5,0.6-0.9,0.9-1.1c0.3-0.2,0.5-0.2,0.7-0.2
				c0.4,0,0.6,0.1,0.7,0.2c0.1,0.2,0.2,0.3,0.2,0.5c-0.1,0.4-0.1,0.9-0.2,1.2c-0.1,0.4-0.2,0.8-0.4,1.2c-0.1,0.4-0.3,0.9-0.5,1.3
				c-0.2,0.5-0.3,1-0.5,1.5c-0.1,0.3-0.2,0.6-0.3,0.9c-0.1,0.3-0.2,0.7-0.3,1c-0.1,0.3-0.2,0.7-0.2,1c-0.1,0.3-0.1,0.6-0.1,0.8
				c0.1,0.7,0.6,1.1,1.3,1.1c0.5,0,1.1-0.2,1.6-0.7c0.6-0.5,1.1-1.1,1.6-1.7c0.1-0.2,0.2-0.3,0.4-0.5c0.1-0.2,0.2-0.3,0.3-0.3
				c0.1,0,0.2,0,0.2,0.1C145.6,108.7,145.6,108.8,145.7,108.9z M142.8,99c-0.2,0-0.4-0.2-0.6-0.5c-0.1-0.3-0.2-0.6-0.3-1
				c0-0.7,0.1-1.4,0.4-1.9c0.3-0.5,0.6-0.7,1-0.7c0.2,0,0.4,0,0.6,0.1c0.2,0.1,0.4,0.1,0.7,0.2c0.2,0.1,0.4,0.2,0.5,0.4
				c0.2,0.1,0.2,0.3,0.3,0.5c0,0.1-0.1,0.2-0.2,0.4c-0.1,0.1-0.2,0.3-0.3,0.5c-0.3,0.4-0.5,0.8-0.7,1c-0.1,0.3-0.3,0.5-0.4,0.6
				c-0.1,0.2-0.2,0.3-0.3,0.3s-0.2,0.1-0.4,0.1c-0.1,0-0.1,0-0.2,0C143,99,142.9,99,142.8,99z"/>
			<path class="st0" d="M158.4,108.9c0,0.5-0.2,1-0.6,1.6c-0.4,0.5-0.9,1-1.4,1.5c-0.6,0.4-1.2,0.8-1.8,1.1
				c-0.7,0.3-1.3,0.4-1.9,0.4c-0.7,0-1.2-0.2-1.6-0.5c-0.4-0.3-0.7-0.8-0.8-1.3c-0.1-0.5,0-1.2,0.3-1.9c0.2-0.7,0.5-1.4,0.8-2.2
				c0.3-0.7,0.6-1.5,0.8-2.2c0.2-0.7,0.3-1.3,0.3-1.9c-0.2-0.4-0.6-0.5-1.1-0.5c-0.6,0-1.2,0.2-1.7,0.6c-0.5,0.4-0.9,0.9-1.3,1.5
				c-0.4,0.6-0.7,1.3-1,2.1c-0.3,0.8-0.5,1.5-0.7,2.2c-0.2,0.7-0.4,1.4-0.6,2.1c-0.2,0.6-0.3,1.2-0.5,1.5c-0.1,0.2-0.2,0.4-0.3,0.4
				c-0.1,0.1-0.3,0.1-0.7,0.1c-0.1,0-0.3-0.1-0.5-0.3c-0.2-0.2-0.3-0.5-0.4-1.1c0-0.3-0.1-0.6,0-1c0-0.4,0.1-0.8,0.1-1.2v0
				c0.2-1,0.5-2.1,0.8-3.3c0.3-1.2,0.7-2.2,1-3.2c0.4-1,0.7-1.8,1.1-2.4c0.4-0.6,0.7-1,1.1-1c0.3,0,0.5,0.1,0.8,0.2
				c0.2,0.1,0.4,0.3,0.4,0.5c-0.2,0.5-0.3,0.9-0.5,1.3c-0.1,0.4-0.2,0.7-0.4,1.1c-0.1,0.4-0.2,0.7-0.3,1c0.2-0.4,0.6-0.8,0.9-1.2
				c0.4-0.4,0.7-0.8,1.1-1.1c0.4-0.3,0.8-0.6,1.3-0.8c0.4-0.2,0.9-0.3,1.3-0.3c0.6,0,1.1,0.1,1.6,0.4c0.4,0.3,0.7,0.7,0.7,1.2
				c0.1,0.6,0,1.2-0.3,1.9c-0.3,0.7-0.6,1.4-0.9,2.1c-0.3,0.7-0.6,1.5-0.9,2.2c-0.2,0.7-0.3,1.5-0.2,2.2c0,0.4,0.2,0.6,0.4,0.8
				c0.2,0.2,0.5,0.3,1,0.3c0.5,0,1.1-0.3,1.8-0.8c0.7-0.5,1.3-1.2,1.8-1.9l0.4-0.7c0,0,0.1,0,0.1,0c0.1,0,0.2,0,0.3,0.1
				C158.4,108.7,158.4,108.8,158.4,108.9z"/>
			<path class="st0" d="M168.5,108.3c0.1-0.1,0.2-0.1,0.2-0.1c0.1,0,0.2,0.1,0.2,0.2c0,0.1,0,0.2,0,0.4c-0.1,0.6-0.4,1.2-0.9,1.7
				c-0.4,0.6-1,1.1-1.7,1.5c-0.7,0.5-1.4,0.8-2.2,1.1c-0.8,0.3-1.6,0.4-2.4,0.4c-1.2,0-2.3-0.3-3.1-0.9c-0.8-0.6-1.3-1.5-1.4-2.7
				c0-0.5,0-1,0-1.5c0-0.6,0.1-1.1,0.2-1.7c0.1-0.6,0.3-1.1,0.5-1.7c0.2-0.5,0.4-1,0.7-1.5c0.2-0.3,0.4-0.6,0.7-1
				c0.3-0.4,0.7-0.7,1.1-1c0.4-0.3,0.9-0.6,1.4-0.8c0.5-0.2,1.1-0.3,1.8-0.3c0.9,0,1.6,0.2,2.3,0.6c0.6,0.4,1,1,1.1,1.6
				c0.1,0.8-0.1,1.6-0.5,2.3c-0.4,0.7-1,1.3-1.7,1.8c-0.7,0.5-1.5,0.8-2.5,1c-0.9,0.2-1.8,0.2-2.7,0c-0.1,0.5-0.1,1-0.1,1.5
				c0,0.4,0.2,0.8,0.4,1.2c0.2,0.3,0.5,0.6,1,0.8c0.4,0.2,1,0.3,1.7,0.4c1.2,0,2.4-0.4,3.3-1C167.1,110.1,167.9,109.3,168.5,108.3z
				 M160.1,106.9c0.6,0.2,1.2,0.2,1.8,0.1c0.6-0.1,1.2-0.4,1.6-0.8c0.5-0.4,0.9-0.8,1.2-1.4c0.3-0.6,0.4-1.1,0.3-1.8
				c0-0.4-0.2-0.6-0.4-0.9c-0.2-0.2-0.6-0.3-1.1-0.3c-0.4,0-0.7,0.1-1.1,0.4c-0.4,0.2-0.7,0.6-1,1.1c-0.3,0.5-0.6,1-0.8,1.6
				C160.4,105.5,160.2,106.1,160.1,106.9z"/>
			<path class="st0" d="M168,107.4c0.1-0.6,0.3-1.4,0.5-2.2c0.2-0.8,0.4-1.5,0.7-2.2c0.2-0.7,0.5-1.3,0.8-1.8
				c0.3-0.5,0.5-0.8,0.8-0.8c0.1,0,0.1,0,0.2,0c0.1,0,0.2,0,0.2,0c0.3,0,0.5,0.1,0.8,0.2c0.2,0.1,0.4,0.3,0.4,0.5c0,0.1,0,0.2,0,0.3
				c-0.1,0.1-0.1,0.3-0.2,0.5c-0.1,0.2-0.2,0.4-0.3,0.7c-0.1,0.3-0.2,0.7-0.2,1.1c0.7-1,1.4-1.7,2.3-2.2c0.8-0.5,1.6-0.8,2.1-0.8
				c0.8,0,1.3,0.2,1.7,0.7c0.3,0.5,0.5,1.1,0.5,1.8c0.4-0.4,0.8-0.7,1.2-1c0.3-0.3,0.7-0.6,1-0.8c0.3-0.2,0.6-0.4,0.9-0.5
				c0.3-0.1,0.7-0.2,1-0.2c0.6,0,1.1,0.2,1.6,0.5c0.4,0.4,0.7,0.8,0.8,1.4c0.1,0.6,0,1.3-0.3,2c-0.3,0.7-0.6,1.4-0.9,2.1
				c-0.3,0.7-0.7,1.4-0.9,2.1c-0.3,0.7-0.4,1.3-0.3,2c0,0.3,0.2,0.6,0.4,0.7s0.6,0.2,1.1,0.2c0.4,0,0.7-0.1,1.1-0.4
				c0.4-0.3,0.8-0.6,1.1-1c0.4-0.4,0.7-0.8,1-1.1c0.3-0.4,0.5-0.7,0.6-0.9c0,0,0.1-0.1,0.2-0.1c0.1,0,0.2,0,0.2,0.1
				c0,0.1,0,0.2,0,0.2c0.1,0.4,0,0.9-0.4,1.4c-0.3,0.6-0.8,1.1-1.3,1.6c-0.5,0.5-1.1,0.9-1.8,1.3c-0.7,0.4-1.3,0.5-1.8,0.5
				c-0.7,0-1.3-0.2-1.9-0.5c-0.5-0.3-0.8-0.8-0.9-1.5c-0.1-0.5,0-1.1,0.2-1.8c0.2-0.7,0.5-1.4,0.8-2.1c0.3-0.7,0.6-1.4,0.8-2.1
				c0.2-0.7,0.3-1.3,0.2-1.9c0-0.2-0.1-0.3-0.3-0.4c-0.2-0.1-0.4-0.1-0.6-0.1c-0.5,0-1,0.2-1.4,0.5c-0.4,0.3-0.8,0.8-1.2,1.3
				c-0.4,0.5-0.7,1.2-1,1.8c-0.3,0.7-0.6,1.4-0.8,2.1c-0.2,0.7-0.5,1.4-0.7,2.1c-0.2,0.7-0.3,1.3-0.5,1.8c-0.1,0.2-0.1,0.4-0.2,0.5
				c-0.1,0.1-0.2,0.2-0.4,0.2c-0.3,0-0.6-0.1-0.8-0.2c-0.3-0.1-0.4-0.3-0.5-0.6c0-0.8,0.1-1.6,0.4-2.5c0.3-0.8,0.6-1.6,0.9-2.4
				c0.3-0.8,0.6-1.5,0.9-2.2c0.2-0.7,0.3-1.4,0.3-2c0-0.2-0.2-0.4-0.5-0.5c-0.3-0.1-0.6-0.2-0.8-0.2c-0.5,0-1,0.2-1.4,0.5
				c-0.4,0.3-0.8,0.8-1.2,1.3c-0.3,0.5-0.6,1.1-0.9,1.8c-0.3,0.7-0.5,1.3-0.7,2c-0.2,0.6-0.4,1.2-0.5,1.8c-0.1,0.6-0.3,1-0.3,1.4
				c-0.1,0.2-0.1,0.4-0.2,0.6c0,0.2-0.1,0.4-0.2,0.6c-0.1,0.2-0.2,0.3-0.3,0.5c-0.1,0.1-0.3,0.2-0.5,0.2c0,0-0.1,0-0.1,0
				c-0.1,0-0.1,0-0.1-0.1c-0.3-0.1-0.5-0.5-0.5-1.1c0-0.2,0-0.6,0-1c0-0.5,0.1-1,0.2-1.5c0.1-0.5,0.1-1,0.2-1.5
				C167.9,107.9,167.9,107.6,168,107.4z"/>
			<path class="st0" d="M200.8,108.9c0,0.4-0.2,0.9-0.5,1.4c-0.3,0.5-0.8,1.1-1.3,1.5c-0.5,0.5-1.1,0.9-1.7,1.2
				c-0.6,0.3-1.3,0.5-1.9,0.5c-0.8,0-1.4-0.2-1.7-0.5c-0.3-0.4-0.6-1-0.7-2c-0.6,0.9-1.2,1.6-1.9,1.9c-0.7,0.4-1.3,0.5-1.9,0.5
				c-0.8,0-1.6-0.2-2.2-0.7c-0.7-0.5-1-1.2-1.1-2c-0.1-0.7,0-1.5,0.2-2.3c0.2-0.8,0.5-1.6,0.9-2.3c0.4-0.7,0.9-1.5,1.4-2.1
				c0.5-0.7,1.1-1.3,1.7-1.8c0.6-0.5,1.2-0.9,1.9-1.2c0.6-0.3,1.2-0.4,1.8-0.4c0.4,0,0.7,0.1,1,0.2c0.3,0.1,0.5,0.3,0.7,0.5l0.2-0.9
				c0-0.1,0.1-0.2,0.3-0.2c0.2,0,0.3,0,0.4,0c0.2,0,0.3,0,0.5,0c0.2,0,0.3,0.1,0.5,0.1s0.3,0.1,0.4,0.2c0.1,0.1,0.1,0.2,0.1,0.4
				c0,0.4-0.1,1-0.3,1.6c-0.2,0.6-0.3,1.3-0.6,2c-0.2,0.7-0.5,1.5-0.8,2.4c-0.3,0.9-0.6,1.8-0.8,2.7c-0.2,0.5-0.2,0.9-0.2,1.2
				c0,0.3,0.2,0.6,0.4,0.7c0.2,0.2,0.5,0.2,1,0.2c0.5,0,1.1-0.3,1.7-0.8c0.6-0.5,1.2-1.1,1.8-1.9l0.4-0.7c0,0,0.1,0,0.1,0
				c0.1,0,0.2,0.1,0.2,0.2C200.8,108.7,200.8,108.8,200.8,108.9z M190.3,111.7c0.8-0.1,1.4-0.4,1.9-1c0.5-0.6,0.9-1.4,1.2-2.4
				c0.3-1,0.5-2,0.8-3c0.3-1,0.5-1.9,0.8-2.8c-0.1-0.2-0.2-0.4-0.4-0.5c-0.2-0.1-0.5-0.1-0.8-0.1c-0.5,0-0.9,0.2-1.4,0.5
				c-0.5,0.3-0.9,0.7-1.3,1.2c-0.4,0.5-0.8,1.1-1.1,1.7c-0.3,0.6-0.6,1.3-0.9,1.9c-0.2,0.6-0.4,1.2-0.5,1.8c-0.1,0.6-0.2,1-0.1,1.4
				c0.1,0.5,0.2,0.9,0.5,1.1C189.4,111.6,189.8,111.7,190.3,111.7z"/>
		</g>
	</g>
</g>
</svg>
