<?xml version="1.0" encoding="utf-8"?>
<!-- Generator: Adobe Illustrator 22.0.1, SVG Export Plug-In . SVG Version: 6.00 Build 0)  -->
<svg version="1.1" id="Layer_1" xmlns="http://www.w3.org/2000/svg" xmlns:xlink="http://www.w3.org/1999/xlink" x="0px" y="0px"
	 viewBox="0 0 360 216" style="enable-background:new 0 0 360 216;" xml:space="preserve">
<style type="text/css">
	.st0{fill:#CB597C;}
	.st1{fill:none;stroke:#FFFFFF;stroke-width:2;stroke-miterlimit:10;}
	.st2{fill:none;stroke:#FFFFFF;stroke-width:6;stroke-miterlimit:10;}
	.st3{fill:#FFFFFF;}
</style>
<g>
	<g>
		<path class="st0" d="M330.5,48c0,0-33.3-9-30.5-33.2L181.4,14l0,0.4L69.1,13.7c0,0,0.1,31.5-33.4,32.1L35.8,168
			c0,0,33.3,9,30.5,33.2l118.5,0.7l0-0.4l112.3,0.8c0,0-0.1-31.5,33.4-32.1L330.5,48z"/>
		<path class="st1" d="M276.4,183.5H89.9c-16.1,0-29.1-13-29.1-29.1V59.6c0-16.1,13-29.1,29.1-29.1h186.6c16.1,0,29.1,13,29.1,29.1
			v94.8C305.6,170.5,292.5,183.5,276.4,183.5z"/>
		<line class="st2" x1="187.6" y1="53.2" x2="187.6" y2="162.8"/>
	</g>
	<g>
		<path class="st3" d="M100.2,86.1h1.5v12.1h-1.3v-9.7l-4,9.7h-1.2l-3.9-9.6v9.6h-1.3V86.1h1.6l4.2,10.6L100.2,86.1z"/>
		<path class="st3" d="M111.9,89.9v8.3h-1.2V97c-0.3,0.5-0.8,0.8-1.3,1.1c-0.5,0.3-1,0.4-1.6,0.4c-0.8,0-1.5-0.2-2.1-0.6
			c-0.6-0.4-1.1-0.9-1.5-1.6s-0.5-1.4-0.5-2.3c0-0.9,0.2-1.6,0.5-2.3c0.3-0.7,0.8-1.2,1.5-1.6c0.6-0.4,1.3-0.6,2.1-0.6
			c0.6,0,1.2,0.1,1.7,0.4c0.5,0.3,0.9,0.6,1.3,1.1v-1.2H111.9z M109.3,97c0.4-0.3,0.8-0.7,1-1.2c0.2-0.5,0.4-1.1,0.4-1.7
			c0-0.6-0.1-1.2-0.4-1.7c-0.2-0.5-0.6-0.9-1-1.2c-0.4-0.3-0.9-0.4-1.5-0.4c-0.6,0-1.1,0.1-1.5,0.4c-0.4,0.3-0.8,0.7-1,1.2
			c-0.2,0.5-0.4,1.1-0.4,1.7c0,0.7,0.1,1.2,0.4,1.7c0.2,0.5,0.6,0.9,1,1.2c0.4,0.3,0.9,0.4,1.5,0.4C108.4,97.4,108.9,97.3,109.3,97z
			"/>
		<path class="st3" d="M114.6,98.2V91h-1.4v-1.1h1.4v-2.7h1.2v2.7h1.9V91h-1.9v7.2H114.6z"/>
		<path class="st3" d="M119.6,88c-0.2-0.2-0.3-0.4-0.3-0.7c0-0.3,0.1-0.5,0.3-0.7c0.2-0.2,0.4-0.3,0.7-0.3c0.3,0,0.5,0.1,0.7,0.3
			c0.2,0.2,0.3,0.4,0.3,0.7c0,0.3-0.1,0.5-0.3,0.7c-0.2,0.2-0.4,0.3-0.7,0.3C120,88.3,119.8,88.2,119.6,88z M119.7,98.2v-8.3h1.2
			v8.3H119.7z"/>
		<path class="st3" d="M129.4,90c0.5,0.2,0.9,0.6,1.2,1c0.3,0.5,0.4,1,0.4,1.6v5.6h-1.2v-5c0-1.6-0.7-2.5-2.2-2.5
			c-0.9,0-1.5,0.3-1.9,0.9s-0.6,1.4-0.6,2.4v4.2h-1.2v-8.3h1.2v1.4c0.3-0.5,0.7-0.9,1.1-1.2c0.5-0.3,1-0.4,1.6-0.4
			C128.3,89.7,128.9,89.8,129.4,90z"/>
		<path class="st3" d="M138.9,90.2c0.6,0.4,1.1,0.9,1.4,1.5c0.3,0.6,0.5,1.3,0.5,2.1c0,0.2,0,0.4,0,0.5H134c0,0.9,0.3,1.6,0.8,2.2
			c0.5,0.6,1.2,0.9,2.1,0.9c0.7,0,1.3-0.1,1.8-0.4c0.5-0.3,0.8-0.6,1.1-1.1l1,0.6c-0.4,0.6-0.9,1.1-1.5,1.4
			c-0.6,0.3-1.4,0.5-2.3,0.5c-0.8,0-1.5-0.2-2.1-0.6c-0.6-0.4-1.1-0.9-1.5-1.6s-0.5-1.4-0.5-2.3c0-0.9,0.2-1.6,0.5-2.3
			c0.3-0.7,0.8-1.2,1.5-1.6c0.6-0.4,1.3-0.6,2.1-0.6C137.7,89.7,138.3,89.8,138.9,90.2z M139.7,93.4c-0.1-0.9-0.4-1.5-0.9-1.9
			c-0.5-0.4-1.1-0.6-1.9-0.6c-0.8,0-1.4,0.2-1.9,0.7c-0.5,0.5-0.8,1.1-0.9,1.9H139.7z"/>
		<path class="st3" d="M148.3,90.2c0.6,0.4,1.1,0.9,1.4,1.5c0.3,0.6,0.5,1.3,0.5,2.1c0,0.2,0,0.4,0,0.5h-6.8c0,0.9,0.3,1.6,0.8,2.2
			c0.5,0.6,1.2,0.9,2.1,0.9c0.7,0,1.3-0.1,1.8-0.4c0.5-0.3,0.8-0.6,1.1-1.1l1,0.6c-0.4,0.6-0.9,1.1-1.5,1.4
			c-0.6,0.3-1.4,0.5-2.3,0.5c-0.8,0-1.5-0.2-2.1-0.6c-0.6-0.4-1.1-0.9-1.5-1.6c-0.4-0.7-0.5-1.4-0.5-2.3c0-0.9,0.2-1.6,0.5-2.3
			c0.3-0.7,0.8-1.2,1.5-1.6c0.6-0.4,1.3-0.6,2.1-0.6C147,89.7,147.7,89.8,148.3,90.2z M149,93.4c-0.1-0.9-0.4-1.5-0.9-1.9
			s-1.1-0.6-1.9-0.6c-0.8,0-1.4,0.2-1.9,0.7c-0.5,0.5-0.8,1.1-0.9,1.9H149z"/>
		<path class="st3" d="M152.8,98c-0.6-0.3-1.1-0.8-1.4-1.5l1.1-0.5c0.4,0.9,1.3,1.4,2.6,1.4c0.6,0,1.1-0.1,1.5-0.3
			c0.4-0.2,0.6-0.6,0.6-1c0-0.5-0.2-0.8-0.5-1.1c-0.3-0.2-0.9-0.4-1.7-0.5c-1.1-0.1-1.9-0.3-2.4-0.8c-0.5-0.4-0.7-1-0.7-1.6
			c0-0.8,0.3-1.4,0.8-1.8c0.6-0.4,1.3-0.6,2.3-0.6c1.6,0,2.8,0.7,3.4,2l-1.1,0.5c-0.2-0.5-0.5-0.8-0.9-1c-0.4-0.2-0.9-0.3-1.5-0.3
			c-0.6,0-1.1,0.1-1.4,0.3c-0.3,0.2-0.5,0.5-0.5,1c0,0.4,0.2,0.7,0.5,0.9c0.3,0.2,0.9,0.4,1.8,0.5c1.1,0.1,1.8,0.4,2.4,0.8
			c0.5,0.4,0.8,1,0.8,1.7c0,0.6-0.2,1-0.5,1.4c-0.3,0.4-0.7,0.7-1.3,0.9s-1.1,0.3-1.7,0.3C154.1,98.5,153.4,98.4,152.8,98z"/>
		<path class="st3" d="M92,119c-0.8-0.5-1.4-1.3-1.8-2.2c-0.4-1-0.7-2-0.7-3.3s0.2-2.3,0.7-3.3c0.4-1,1.1-1.7,1.8-2.3
			c0.8-0.5,1.7-0.8,2.7-0.8c1,0,1.9,0.3,2.7,0.8c0.8,0.5,1.4,1.3,1.8,2.3c0.4,1,0.7,2.1,0.7,3.3c0,1.2-0.2,2.3-0.7,3.3
			c-0.4,1-1.1,1.7-1.8,2.2c-0.8,0.5-1.7,0.8-2.7,0.8C93.6,119.8,92.7,119.6,92,119z M96.6,117.9c0.6-0.4,1-1,1.4-1.8
			c0.3-0.8,0.5-1.7,0.5-2.6c0-1-0.2-1.9-0.5-2.6c-0.3-0.8-0.8-1.4-1.4-1.8c-0.6-0.4-1.2-0.7-2-0.7c-0.7,0-1.4,0.2-2,0.7
			c-0.6,0.4-1,1-1.4,1.8c-0.3,0.8-0.5,1.7-0.5,2.6c0,1,0.2,1.9,0.5,2.6c0.3,0.8,0.8,1.4,1.4,1.8c0.6,0.4,1.2,0.6,2,0.6
			C95.4,118.6,96,118.4,96.6,117.9z"/>
		<path class="st3" d="M107.5,111.3c0.5,0.2,0.9,0.6,1.2,1c0.3,0.5,0.4,1,0.4,1.6v5.6h-1.2v-5c0-1.6-0.7-2.5-2.2-2.5
			c-0.9,0-1.5,0.3-1.9,0.9c-0.4,0.6-0.6,1.4-0.6,2.4v4.2h-1.2v-8.3h1.2v1.4c0.3-0.5,0.7-0.9,1.1-1.2c0.5-0.3,1-0.4,1.6-0.4
			C106.5,110.9,107,111.1,107.5,111.3z"/>
		<path class="st3" d="M111.6,119.5v-12.9h1.2v12.9H111.6z"/>
		<path class="st3" d="M120.8,111.2h1.1l-4.5,11.9h-1.2l1.3-3.4l-3.4-8.5h1.3l2.7,6.9L120.8,111.2z"/>
	</g>
	<g>
		<path class="st3" d="M216.7,104.8c1,0.9,1.6,2.2,1.6,3.9c0,1.5-0.6,2.7-1.7,3.7c-1.1,1-2.6,1.5-4.5,1.6v2.9h-1.2V114
			c-1.4-0.1-2.7-0.5-4-1.2c-1.3-0.7-2.3-1.6-3.2-2.8l1.8-1.5c0.6,1,1.4,1.8,2.4,2.4c1,0.6,2,1,3.1,1.1v-7.5c-4.1-1-6.1-2.8-6.1-5.5
			c0-1.7,0.6-3,1.7-3.9c1.1-0.9,2.6-1.4,4.6-1.4v-2.8h1.2v2.9c2.4,0.2,4.4,1.3,6,3.2l-1.7,1.5c-0.6-0.8-1.3-1.4-1.9-1.9
			c-0.7-0.4-1.5-0.7-2.4-0.8v7C214.2,103.2,215.7,103.9,216.7,104.8z M208,100.9c0.6,0.5,1.6,1,3.1,1.4v-6.8c-1.2,0-2.1,0.3-2.9,0.9
			c-0.7,0.6-1.1,1.3-1.1,2.2C207.1,99.6,207.4,100.3,208,100.9z M215.1,111c0.7-0.6,1-1.4,1-2.4c0-1-0.3-1.8-1-2.4
			c-0.6-0.6-1.6-1.1-2.9-1.5v7.2C213.5,112,214.4,111.6,215.1,111z"/>
		<path class="st3" d="M224.1,113.8c-1.1-0.5-1.9-1.3-2.5-2.2c-0.6-1-0.9-2.1-0.9-3.3c0-1.4,0.4-2.5,1.1-3.5c0.7-0.9,1.8-1.6,3.1-2
			c-2.2-0.8-3.3-2.3-3.3-4.4c0-1.1,0.3-2.1,0.8-2.9c0.6-0.8,1.3-1.4,2.2-1.9c0.9-0.4,2-0.7,3.1-0.7c1.1,0,2.2,0.2,3.1,0.7
			c0.9,0.4,1.7,1.1,2.2,1.9c0.5,0.8,0.8,1.8,0.8,2.9c0,2.2-1.1,3.6-3.3,4.4c1.4,0.5,2.4,1.1,3.1,2c0.7,0.9,1,2,1,3.4
			c0,1.2-0.3,2.3-0.9,3.3c-0.6,1-1.4,1.7-2.5,2.3c-1.1,0.5-2.3,0.8-3.6,0.8C226.4,114.6,225.2,114.4,224.1,113.8z M231.2,111.5
			c0.9-0.8,1.3-1.8,1.3-3.2c0-1.4-0.4-2.5-1.3-3.2c-0.8-0.7-2-1.1-3.5-1.1c-1.5,0-2.7,0.4-3.5,1.1c-0.9,0.7-1.3,1.8-1.3,3.2
			c0,1.4,0.4,2.5,1.3,3.3c0.9,0.8,2,1.1,3.5,1.1C229.1,112.6,230.3,112.2,231.2,111.5z M230.6,101c0.7-0.6,1-1.4,1-2.5
			c0-1.2-0.3-2-1-2.6c-0.7-0.6-1.7-0.8-2.9-0.8c-1.2,0-2.2,0.3-2.9,0.8c-0.7,0.6-1.1,1.4-1.1,2.5c0,1.2,0.4,2,1.1,2.6
			c0.7,0.6,1.7,0.8,2.9,0.8C228.9,101.8,229.9,101.5,230.6,101z"/>
		<path class="st3" d="M238,113.9c-0.3-0.3-0.5-0.7-0.5-1.2c0-0.4,0.2-0.8,0.5-1.2c0.3-0.3,0.7-0.5,1.1-0.5c0.5,0,0.9,0.2,1.2,0.5
			c0.3,0.3,0.5,0.7,0.5,1.2c0,0.4-0.2,0.8-0.5,1.2c-0.3,0.3-0.7,0.5-1.2,0.5C238.7,114.4,238.3,114.2,238,113.9z"/>
		<path class="st3" d="M255.6,102.6c1.1,1.2,1.7,2.9,1.7,5.1c0,2.2-0.6,3.9-1.8,5.2c-1.2,1.2-2.8,1.8-5,1.8c-1.4,0-2.6-0.2-3.8-0.7
			c-1.2-0.5-2.1-1.1-2.8-2l1.6-1.1c0.5,0.6,1.2,1.1,2.1,1.5c0.9,0.3,1.9,0.5,3,0.5c1.5,0,2.6-0.4,3.4-1.3c0.8-0.9,1.2-2.2,1.2-3.8
			c0-1.6-0.4-2.8-1.2-3.7c-0.8-0.9-1.9-1.3-3.3-1.3c-0.9,0-1.8,0.1-2.8,0.4c-1,0.3-1.9,0.7-2.8,1.2V93.5h11.1v2.1h-9v5.8
			c1.3-0.4,2.5-0.7,3.7-0.7C252.9,100.7,254.5,101.3,255.6,102.6z"/>
		<path class="st3" d="M263.7,113.2c-1.1-0.9-2-2.2-2.7-3.9c-0.6-1.6-1-3.5-1-5.6c0-2.1,0.3-3.9,1-5.6c0.6-1.6,1.5-2.9,2.7-3.9
			c1.1-0.9,2.4-1.4,3.7-1.4c1.4,0,2.6,0.5,3.7,1.4c1.1,0.9,2,2.2,2.7,3.9c0.6,1.6,1,3.5,1,5.6c0,2.1-0.3,3.9-1,5.6
			c-0.6,1.6-1.5,2.9-2.6,3.9c-1.1,0.9-2.3,1.4-3.7,1.4C266.1,114.6,264.9,114.2,263.7,113.2z M270,111.5c0.7-0.7,1.3-1.8,1.8-3.1
			c0.4-1.3,0.6-2.9,0.6-4.6s-0.2-3.2-0.6-4.6c-0.4-1.3-1-2.4-1.8-3.1c-0.7-0.7-1.6-1.1-2.6-1.1s-1.8,0.4-2.6,1.1
			c-0.8,0.7-1.3,1.8-1.8,3.1c-0.4,1.3-0.6,2.9-0.6,4.6s0.2,3.2,0.6,4.6c0.4,1.3,1,2.4,1.8,3.1c0.8,0.7,1.6,1.1,2.6,1.1
			S269.3,112.3,270,111.5z"/>
	</g>
</g>
</svg>
