<?xml version="1.0" encoding="utf-8"?>
<!-- Generator: Adobe Illustrator 22.0.1, SVG Export Plug-In . SVG Version: 6.00 Build 0)  -->
<svg version="1.1" id="Layer_1" xmlns="http://www.w3.org/2000/svg" xmlns:xlink="http://www.w3.org/1999/xlink" x="0px" y="0px"
	 viewBox="0 0 432 288" style="enable-background:new 0 0 432 288;" xml:space="preserve">
<style type="text/css">
	.st0{fill:#CB597C;}
	.st1{fill:#FFFFFF;}
</style>
<g>
	<rect x="38.5" y="21.9" class="st0" width="359.1" height="244.1"/>
	<g>
		<g>
			<g>
				<path class="st1" d="M99.1,53.7c-1.3-0.7-2.9-1.2-4.7-1.4c-1.8-0.3-3.5-0.4-5.2-0.4c-2.8,0-5.6,0.3-8.1,1
					c-2.6,0.7-4.8,1.6-6.7,2.8c-1.9,1.2-3.4,2.6-4.4,4.3c-1,1.7-1.4,3.5-1.2,5.6c0.1,0.4,0.2,0.9,0.3,1.3c0.1,0.4,0.2,0.8,0.4,1.1
					c0,0,0,0.1,0,0.1c0,0,0,0.1,0,0.1c0,0.6-0.1,1-0.5,1.4c-0.3,0.3-0.7,0.5-1.2,0.6c-0.4,0.1-0.9-0.1-1.3-0.4
					c-0.4-0.3-0.7-0.9-0.8-1.7c0-0.3-0.1-0.6-0.1-0.9c0-0.3,0-0.6,0-0.9c0-2.6,0.5-5,1.7-7.1c1.2-2.1,2.9-3.9,5.1-5.4
					c2.3-1.5,5-2.6,8.4-3.4c3.3-0.8,7.1-1.2,11.4-1.2c0.4,0,0.9,0.1,1.5,0.1c0.6,0.1,1.3,0.1,2,0.2c0.7,0.1,1.4,0.2,2.1,0.3
					c0.7,0.1,1.3,0.3,1.9,0.4c1.4,0.4,2.5,0.9,3.3,1.2c0.8,0.4,1.3,0.8,1.6,1.3c0.3,0.5,0.4,1.1,0.4,1.8c0,0.7-0.2,1.5-0.4,2.6
					c-0.4,1.8-0.8,3.9-1.2,6.2c-0.4,2.3-0.8,4.7-1.2,7.1c-0.4,2.4-0.7,4.7-1.1,7c-0.3,2.3-0.7,4.3-0.9,6.1c-0.2,1.4,0,2.4,0.6,3
					c0.6,0.6,1.4,0.9,2.4,0.9c1.1,0,2.2-0.5,3.2-1.4c1-0.9,1.9-2.1,2.6-3.6c0.1-0.1,0.2-0.3,0.3-0.4c0.1-0.1,0.2-0.2,0.3-0.3
					c0.2-0.1,0.3-0.2,0.5-0.2c0.2,0,0.3,0.2,0.3,0.5c-0.2,0.9-0.5,1.8-1.1,2.8c-0.5,1-1.2,1.9-2,2.7c-0.8,0.8-1.7,1.5-2.8,2
					c-1,0.5-2.1,0.7-3.3,0.7c-1,0-1.7-0.2-2.4-0.7c-0.6-0.4-1.1-1-1.4-1.7c-0.3-0.7-0.6-1.5-0.7-2.4c-0.1-0.9-0.1-1.8,0-2.8
					c-1.1-0.3-2.1-0.6-3.1-0.9c-1-0.3-2.1-0.6-3.1-0.9c-1-0.3-2.1-0.5-3.2-0.7c-1.1-0.2-2.2-0.3-3.4-0.4l-3.8,4.8
					c-0.5,0.7-1.2,1.4-1.8,2.2c-0.7,0.8-1.3,1.5-2,2.2c-0.6,0.7-1.2,1.3-1.8,1.9c-0.6,0.5-1.1,0.8-1.5,1c-0.2,0-0.4-0.1-0.6-0.3
					c-0.2-0.2-0.4-0.4-0.6-0.7c-0.2-0.3-0.4-0.6-0.5-0.9c-0.1-0.3-0.2-0.7-0.3-1c-0.1-0.8,0-1.3,0.2-1.6c1.4-0.9,2.7-2,3.9-3.3
					c1.2-1.4,2.6-2.9,4.1-4.7c-0.2,0-0.5,0-1,0c-0.5,0-0.9,0.1-1.4,0.1c-0.5,0-0.9,0-1.3,0c-0.4,0-0.6-0.1-0.6-0.3
					c-0.1-0.7,0-1.3,0.4-1.8c0.4-0.5,0.9-0.9,1.4-1.2c0.6-0.3,1.2-0.4,1.9-0.5c0.7-0.1,1.3,0,1.9,0.1c0.3,0.1,0.5,0.1,0.7,0.2
					c0.2,0,0.5,0.1,0.7,0.2c0.7-0.8,1.5-1.8,2.4-3c0.9-1.2,1.9-2.4,2.9-3.8c1-1.4,2.1-2.7,3.2-4.2c1.1-1.4,2.1-2.8,3.2-4.2
					c1-1.4,2-2.6,2.9-3.8C97.7,55.5,98.5,54.5,99.1,53.7z M100.9,56.3c-2.3,3.2-4.7,6.5-7.1,9.9c-2.4,3.5-5.1,6.9-7.9,10.3
					c2,0.4,3.9,0.8,5.7,1.3c1.9,0.5,3.7,1,5.6,1.6c0.5-3.9,1-7.8,1.6-11.8C99.5,63.6,100.2,59.8,100.9,56.3z"/>
				<path class="st1" d="M131.1,78.2c-0.9,1.3-2.1,2-3.6,2c-0.6,0-1.2-0.1-1.8-0.2c-0.6-0.1-1.2-0.3-1.8-0.6
					c-0.8,2.1-1.6,3.8-2.5,5.2c-0.9,1.4-1.9,2.5-2.8,3.3c-1,0.8-1.9,1.4-2.9,1.7c-1,0.3-1.9,0.5-2.7,0.5c-1.1,0-1.9-0.2-2.6-0.6
					c-0.7-0.4-1.2-0.9-1.6-1.5c-0.4-0.6-0.7-1.4-0.8-2.2c-0.2-0.9-0.2-1.7-0.1-2.7c0.1-1.2,0.2-2.6,0.5-4.2c0.3-1.7,0.6-3.3,1.1-4.8
					c0.4-1.5,1-2.9,1.6-4c0.6-1.1,1.3-1.6,2.1-1.6c0.1,0,0.4,0,0.7,0.1c0.3,0.1,0.7,0.1,1,0.3c0.3,0.1,0.6,0.3,0.9,0.5
					c0.3,0.2,0.4,0.4,0.4,0.7c0,0.2-0.1,0.4-0.4,0.6c-0.3,0.3-0.6,0.8-0.9,1.5c-0.4,0.8-0.8,1.8-1.2,2.8c-0.4,1-0.7,2.1-1,3.2
					c-0.3,1.1-0.5,2.3-0.6,3.4c-0.1,1.2-0.1,2.3,0,3.4c0.1,0.7,0.4,1.3,0.8,1.7c0.5,0.5,1.2,0.7,2.1,0.7c0.9,0,1.7-0.3,2.5-0.9
					c0.8-0.6,1.5-1.4,2.2-2.3c0.7-0.9,1.2-1.9,1.7-2.9c0.5-1,0.8-2,1-2.8c-1.1-0.6-2-1.4-2.7-2.5c-0.8-1.1-1.2-2.2-1.4-3.3
					c-0.1-0.5,0-0.9,0.2-1.4c0.2-0.4,0.4-0.8,0.7-1.2c0.3-0.3,0.7-0.6,1.1-0.8c0.4-0.2,0.8-0.3,1.2-0.3c1.2,0,2,0.3,2.6,0.8
					c0.6,0.5,1,1.2,1.2,2c0.2,0.8,0.2,1.7,0.1,2.7c-0.1,1-0.4,2-0.7,2.9c0.4,0.2,0.9,0.5,1.5,0.6c0.6,0.2,1.1,0.3,1.5,0.3
					c0.6,0,1.1-0.1,1.5-0.2c0.4-0.1,0.8-0.5,1.2-1.3c0.3-0.5,0.7-0.7,1.1-0.7c0.2,0,0.3,0.1,0.4,0.4
					C131.7,77.1,131.5,77.6,131.1,78.2z M122.8,76.7c0.3-0.7,0.4-1.4,0.4-2.1c0-0.7-0.1-1.3-0.2-1.8c-0.2-0.5-0.4-0.9-0.8-1.2
					c-0.4-0.3-0.8-0.3-1.2-0.1c-0.4,0.1-0.7,0.4-0.9,0.8c-0.2,0.3-0.2,0.7-0.1,1.1c0.1,0.4,0.3,0.8,0.6,1.3c0.3,0.4,0.6,0.8,1,1.2
					C122,76.2,122.4,76.5,122.8,76.7z"/>
				<path class="st1" d="M144.6,81.5c-0.3,0.8-0.7,1.7-1.3,2.8c-0.6,1-1.3,2-2.2,2.9c-0.9,0.9-1.9,1.6-3.2,2.3
					c-1.2,0.6-2.6,0.9-4.2,0.9c-1,0-1.9-0.2-2.6-0.6c-0.7-0.4-1.3-0.9-1.8-1.5c-0.5-0.6-0.8-1.3-1.1-2.1c-0.2-0.8-0.4-1.6-0.5-2.4
					c-0.2-1.7,0-3.4,0.6-5.1c0.6-1.7,1.5-3.3,2.5-4.7c1.1-1.4,2.2-2.5,3.5-3.4c1.3-0.9,2.5-1.3,3.7-1.3c0.4,0,1,0.2,1.5,0.6
					c0.3-0.2,0.7-0.3,1-0.4c0.3-0.1,0.6-0.1,0.9-0.1c1.3,0,2.3,0.4,3,1.1c0.7,0.7,1.1,1.6,1.4,2.6c0.2,1,0.2,2.1,0.1,3.3
					c-0.2,1.2-0.5,2.3-1,3.2c0.4,0.3,0.7,0.5,1.1,0.6c0.3,0.1,0.7,0.1,1.1,0.1c0.5,0,0.9-0.1,1.3-0.2c0.3-0.1,0.6-0.3,0.8-0.5
					c0.2-0.3,0.5-0.6,0.7-1c0.2-0.4,0.6-0.9,1-1.4c0-0.1,0.1-0.2,0.3-0.2c0.1,0,0.2,0.1,0.3,0.3c0.1,0.2,0.2,0.4,0.2,0.6
					c-0.1,0.5-0.2,1-0.4,1.5c-0.2,0.5-0.5,1.1-0.8,1.5c-0.4,0.5-0.8,0.8-1.4,1.2c-0.5,0.3-1.2,0.5-2,0.5c-0.4,0-0.9-0.1-1.5-0.2
					C145.5,82,145,81.8,144.6,81.5z M135.2,87.1c0.9,0,1.7-0.2,2.6-0.6c0.8-0.4,1.6-1,2.3-1.6c0.7-0.7,1.3-1.4,1.8-2.2
					c0.5-0.8,0.9-1.6,1.1-2.4c-0.3-0.2-0.7-0.5-1.1-1c-0.4-0.5-0.8-1-1.3-1.6c-0.4-0.6-0.8-1.3-1.1-2.1c-0.3-0.7-0.5-1.5-0.6-2.3
					c-0.1-0.5-0.1-1,0-1.4c0.1-0.4,0.2-0.7,0.2-0.8c-1,0-2,0.4-2.9,1.3c-0.9,0.8-1.8,1.9-2.5,3.1c-0.7,1.2-1.2,2.5-1.6,3.9
					c-0.4,1.4-0.5,2.7-0.4,3.8c0.2,1.3,0.6,2.3,1.2,3C133.5,86.8,134.3,87.1,135.2,87.1z M143.4,78.1c0.3-0.7,0.5-1.4,0.6-2.2
					c0.1-0.8,0.1-1.5,0-2.2c-0.1-0.7-0.4-1.3-0.7-1.7c-0.4-0.5-1-0.7-1.7-0.7c-0.3,0-0.6,0.2-0.7,0.6c-0.2,0.4-0.2,1-0.1,1.6
					c0.1,0.5,0.4,1.3,0.9,2.2C142.1,76.7,142.7,77.5,143.4,78.1z"/>
				<path class="st1" d="M172.7,82.3c0,0.8-0.4,1.7-1,2.6c-0.6,0.9-1.4,1.7-2.3,2.4c-0.9,0.7-1.9,1.3-3,1.8
					c-1.1,0.5-2.1,0.7-3.1,0.7c-1.1,0-2-0.3-2.6-0.8c-0.7-0.5-1.1-1.3-1.3-2.2c-0.1-0.9,0-1.9,0.4-3.1c0.4-1.2,0.8-2.4,1.4-3.6
					c0.5-1.2,1-2.4,1.4-3.6c0.4-1.2,0.5-2.2,0.4-3.1c-0.3-0.6-0.9-0.9-1.8-0.9c-1,0-1.9,0.3-2.7,1c-0.8,0.7-1.5,1.5-2.1,2.5
					c-0.6,1-1.1,2.1-1.6,3.4c-0.4,1.3-0.8,2.5-1.2,3.7c-0.4,1.2-0.7,2.4-1,3.4c-0.3,1.1-0.5,1.9-0.8,2.5c-0.2,0.4-0.3,0.6-0.5,0.7
					c-0.2,0.1-0.6,0.1-1.2,0.1c-0.2,0-0.5-0.2-0.7-0.5c-0.3-0.3-0.5-0.9-0.6-1.8c-0.1-0.4-0.1-1-0.1-1.6c0-0.6,0.1-1.2,0.2-1.9v0.1
					c0.3-1.7,0.8-3.5,1.3-5.4c0.5-1.9,1.1-3.6,1.7-5.2c0.6-1.6,1.2-2.9,1.9-3.9c0.6-1,1.2-1.6,1.8-1.6c0.4,0,0.9,0.1,1.3,0.3
					c0.4,0.2,0.6,0.4,0.7,0.8c-0.3,0.8-0.6,1.5-0.7,2.1c-0.2,0.6-0.4,1.2-0.6,1.9c-0.2,0.7-0.4,1.2-0.5,1.6c0.4-0.7,0.9-1.4,1.5-2.1
					c0.6-0.7,1.2-1.3,1.9-1.9c0.7-0.6,1.4-1,2.1-1.4c0.7-0.4,1.4-0.5,2.1-0.5c1,0,1.9,0.2,2.6,0.7c0.7,0.5,1.1,1.2,1.2,2.1
					c0.1,0.9-0.1,1.9-0.5,3.1c-0.4,1.1-0.9,2.3-1.5,3.5c-0.5,1.2-1,2.4-1.4,3.6c-0.4,1.2-0.5,2.4-0.4,3.5c0.1,0.6,0.3,1,0.6,1.3
					c0.3,0.3,0.9,0.5,1.6,0.5c0.9,0,1.8-0.4,2.9-1.3c1.1-0.9,2.1-1.9,3-3.1l0.7-1.1c0,0,0.1-0.1,0.2-0.1c0.2,0,0.3,0.1,0.5,0.2
					C172.6,82,172.7,82.1,172.7,82.3z"/>
			</g>
			<g>
				<path class="st1" d="M204.9,48.9c0,0-3.7,4.4-7.2,2.3l-8.4,18l0.1,0l-8,17c0,0,4.8,2.2,2.5,7.3l18.6,8.6c0,0,3.7-4.4,7.2-2.3
					l8.4-18l-0.1,0l8-17c0,0-4.8-2.2-2.5-7.3L204.9,48.9z"/>
			</g>
			<g>
				<path class="st1" d="M269.4,80.6c0.4,0,0.6,0.2,0.7,0.7c0,0.2,0,0.3-0.1,0.5c-0.1,0.2-0.1,0.4-0.2,0.6c-0.4,1.1-1.3,2.2-2.4,3.3
					c-1.2,1.1-2.6,2.2-4.3,3.1c-1.7,0.9-3.6,1.7-5.7,2.3c-2.1,0.6-4.3,0.9-6.6,0.9c-2.6,0-4.8-0.4-6.8-1.1c-2-0.7-3.6-1.7-5-2.9
					c-1.4-1.2-2.5-2.7-3.3-4.4c-0.8-1.7-1.3-3.6-1.5-5.6c-0.2-1.9-0.1-3.8,0.3-5.8c0.4-2,1.1-3.9,2-5.8c0.9-1.9,2.1-3.7,3.6-5.4
					c1.4-1.7,3.1-3.2,4.9-4.5c1.8-1.3,3.9-2.3,6.1-3.1c2.2-0.8,4.6-1.1,7.1-1.1c2.9,0,5.2,0.6,6.9,1.9c1.7,1.3,2.8,3.2,3.1,6
					c0.1,0.9,0.1,1.7-0.2,2.6c-0.2,0.9-0.5,1.7-1,2.4c-0.4,0.7-0.9,1.3-1.5,1.7c-0.6,0.4-1.2,0.7-1.8,0.7c-0.3,0-0.7-0.1-1.1-0.2
					c-0.4-0.1-0.7-0.3-1-0.5c-0.3-0.2-0.6-0.4-0.8-0.7c-0.2-0.3-0.4-0.5-0.4-0.8c0-0.2,0.1-0.4,0.2-0.5c0.1-0.1,0.3-0.3,0.6-0.4
					h-0.1c0.4-0.3,0.9-0.6,1.3-1c0.4-0.4,0.8-0.8,1.1-1.2c0.3-0.4,0.6-0.9,0.7-1.4c0.2-0.5,0.2-1,0.1-1.6c-0.2-1.4-0.8-2.6-1.8-3.4
					c-1-0.8-2.6-1.3-4.8-1.3c-2.2,0-4.1,0.4-5.9,1.2c-1.8,0.8-3.4,1.8-4.8,3.1c-1.4,1.3-2.7,2.8-3.7,4.4c-1.1,1.7-1.9,3.4-2.6,5.2
					c-0.7,1.8-1.1,3.6-1.3,5.3c-0.2,1.8-0.3,3.4-0.1,4.9c0.2,1.5,0.7,3,1.4,4.2c0.7,1.3,1.7,2.4,2.8,3.3c1.1,0.9,2.5,1.6,4.1,2.2
					c1.6,0.5,3.3,0.8,5.1,0.8c1.4,0,2.8-0.1,4.2-0.4c1.3-0.3,2.6-0.7,3.8-1.2c1.2-0.5,2.3-1,3.3-1.7c1-0.7,1.9-1.3,2.7-2.1
					c0.4-0.4,0.8-0.8,1.1-1.1c0.3-0.4,0.5-0.7,0.7-1c0.2-0.3,0.4-0.6,0.5-0.7C269.1,80.7,269.3,80.6,269.4,80.6z"/>
				<path class="st1" d="M279.7,82.4c0,0.7-0.3,1.5-0.9,2.4c-0.6,0.9-1.3,1.7-2.2,2.5c-0.9,0.8-1.9,1.4-2.9,1.9c-1,0.5-2,0.8-3,0.8
					c-1.3,0-2.2-0.3-2.7-0.8c-0.5-0.5-0.8-1.4-0.9-2.5c-0.1-0.5-0.1-1.3,0-2.3c0.1-1,0.2-2,0.4-3.2c0.2-1.1,0.4-2.3,0.7-3.5
					c0.3-1.2,0.7-2.4,1.1-3.5c0.4-1.1,0.8-2.1,1.3-2.9c0.5-0.9,1-1.5,1.5-1.9c0.4-0.3,0.8-0.4,1.2-0.4c0.6,0,1,0.1,1.2,0.4
					c0.2,0.3,0.3,0.5,0.3,0.8c-0.1,0.7-0.2,1.4-0.4,2.1c-0.2,0.7-0.4,1.3-0.6,2c-0.2,0.7-0.5,1.4-0.8,2.2c-0.3,0.8-0.5,1.6-0.8,2.5
					c-0.1,0.4-0.3,1-0.5,1.5c-0.2,0.6-0.4,1.1-0.5,1.7c-0.2,0.6-0.3,1.1-0.4,1.6c-0.1,0.5-0.1,0.9-0.1,1.3c0.2,1.2,0.9,1.8,2.2,1.8
					c0.9,0,1.8-0.4,2.7-1.2c0.9-0.8,1.8-1.7,2.7-2.8c0.2-0.3,0.4-0.6,0.6-0.9c0.2-0.3,0.4-0.5,0.5-0.5c0.2,0,0.3,0.1,0.3,0.2
					C279.7,82,279.7,82.2,279.7,82.4z M275.1,66c-0.4-0.1-0.7-0.3-1-0.7c-0.2-0.4-0.4-1-0.5-1.6c-0.1-1.2,0.1-2.3,0.6-3.1
					c0.5-0.8,1-1.2,1.6-1.2c0.3,0,0.6,0,1,0.1c0.4,0.1,0.7,0.2,1.1,0.4c0.3,0.2,0.6,0.4,0.9,0.6c0.3,0.2,0.4,0.5,0.4,0.8
					c0,0.2-0.1,0.4-0.3,0.6c-0.1,0.2-0.3,0.5-0.5,0.7c-0.5,0.7-0.8,1.2-1.1,1.7c-0.2,0.4-0.4,0.8-0.6,1.1c-0.2,0.3-0.3,0.5-0.5,0.6
					c-0.2,0.1-0.4,0.2-0.6,0.2c-0.1,0-0.2,0-0.3,0C275.3,66.1,275.2,66,275.1,66z"/>
				<path class="st1" d="M300.8,82.3c0,0.8-0.4,1.7-1,2.6c-0.6,0.9-1.4,1.7-2.3,2.4c-0.9,0.7-1.9,1.3-3,1.8
					c-1.1,0.5-2.1,0.7-3.1,0.7c-1.1,0-2-0.3-2.6-0.8c-0.7-0.5-1.1-1.3-1.3-2.2c-0.1-0.9,0-1.9,0.4-3.1c0.4-1.2,0.8-2.4,1.4-3.6
					c0.5-1.2,1-2.4,1.4-3.6c0.4-1.2,0.5-2.2,0.4-3.1c-0.3-0.6-0.9-0.9-1.8-0.9c-1,0-1.9,0.3-2.7,1c-0.8,0.7-1.5,1.5-2.1,2.5
					c-0.6,1-1.1,2.1-1.6,3.4c-0.4,1.3-0.8,2.5-1.2,3.7c-0.4,1.2-0.7,2.4-1,3.4c-0.3,1.1-0.5,1.9-0.8,2.5c-0.2,0.4-0.3,0.6-0.5,0.7
					c-0.2,0.1-0.6,0.1-1.2,0.1c-0.2,0-0.5-0.2-0.7-0.5c-0.3-0.3-0.5-0.9-0.6-1.8c-0.1-0.4-0.1-1-0.1-1.6c0-0.6,0.1-1.2,0.2-1.9v0.1
					c0.3-1.7,0.8-3.5,1.3-5.4c0.5-1.9,1.1-3.6,1.7-5.2c0.6-1.6,1.2-2.9,1.9-3.9c0.6-1,1.2-1.6,1.8-1.6c0.4,0,0.9,0.1,1.3,0.3
					c0.4,0.2,0.6,0.4,0.7,0.8c-0.3,0.8-0.6,1.5-0.7,2.1c-0.2,0.6-0.4,1.2-0.6,1.9c-0.2,0.7-0.4,1.2-0.5,1.6c0.4-0.7,0.9-1.4,1.5-2.1
					c0.6-0.7,1.2-1.3,1.9-1.9c0.7-0.6,1.4-1,2.1-1.4c0.7-0.4,1.4-0.5,2.1-0.5c1,0,1.9,0.2,2.6,0.7c0.7,0.5,1.1,1.2,1.2,2.1
					c0.1,0.9-0.1,1.9-0.5,3.1c-0.4,1.1-0.9,2.3-1.5,3.5c-0.5,1.2-1,2.4-1.4,3.6c-0.4,1.2-0.5,2.4-0.4,3.5c0.1,0.6,0.3,1,0.6,1.3
					c0.3,0.3,0.9,0.5,1.6,0.5c0.9,0,1.8-0.4,2.9-1.3c1.1-0.9,2.1-1.9,3-3.1l0.7-1.1c0,0,0.1-0.1,0.2-0.1c0.2,0,0.3,0.1,0.5,0.2
					C300.7,82,300.8,82.1,300.8,82.3z"/>
				<path class="st1" d="M317.3,81.3c0.2-0.1,0.3-0.2,0.4-0.2c0.2,0,0.3,0.1,0.4,0.3c0.1,0.2,0.1,0.4,0,0.6c-0.2,1-0.7,1.9-1.4,2.9
					c-0.7,0.9-1.6,1.8-2.7,2.5c-1.1,0.8-2.3,1.4-3.6,1.8c-1.3,0.5-2.6,0.7-4,0.7c-2.1,0-3.8-0.5-5.1-1.5c-1.4-1-2.1-2.5-2.3-4.4
					c-0.1-0.8-0.1-1.6,0-2.5c0.1-0.9,0.2-1.8,0.4-2.8c0.2-0.9,0.5-1.9,0.8-2.8c0.3-0.9,0.7-1.7,1.2-2.4c0.3-0.5,0.7-1,1.2-1.6
					c0.5-0.6,1.1-1.1,1.8-1.6c0.7-0.5,1.5-0.9,2.4-1.3c0.9-0.3,1.9-0.5,3-0.5c1.4,0,2.7,0.3,3.7,1c1,0.7,1.6,1.6,1.8,2.7
					c0.2,1.4-0.1,2.6-0.8,3.8c-0.7,1.2-1.6,2.2-2.8,3c-1.2,0.8-2.5,1.4-4,1.7c-1.5,0.3-3,0.3-4.5,0c-0.2,0.9-0.2,1.7-0.2,2.4
					c0.1,0.7,0.2,1.4,0.6,2c0.3,0.6,0.9,1,1.6,1.4c0.7,0.3,1.6,0.5,2.8,0.6c2.1-0.1,3.9-0.6,5.5-1.7C315,84.3,316.3,82.9,317.3,81.3
					z M303.4,78.9c1,0.3,1.9,0.4,3,0.2c1-0.2,1.9-0.7,2.7-1.3c0.8-0.6,1.4-1.4,1.9-2.3c0.5-0.9,0.7-1.9,0.5-2.9
					c-0.1-0.6-0.3-1.1-0.7-1.4c-0.4-0.4-1-0.5-1.7-0.5c-0.6,0-1.2,0.2-1.8,0.6c-0.6,0.4-1.1,1-1.6,1.7c-0.5,0.8-0.9,1.6-1.3,2.6
					C303.9,76.7,303.6,77.8,303.4,78.9z"/>
				<path class="st1" d="M316.5,79.8c0.2-1.1,0.5-2.2,0.8-3.5c0.3-1.3,0.7-2.5,1.1-3.7c0.4-1.1,0.8-2.1,1.3-3
					c0.4-0.8,0.9-1.3,1.3-1.4c0.1,0,0.2,0,0.3,0c0.1,0,0.2,0,0.4,0c0.4,0,0.9,0.1,1.3,0.3c0.4,0.2,0.6,0.5,0.6,0.9
					c0,0.2,0,0.4-0.1,0.6c-0.1,0.2-0.2,0.5-0.3,0.8c-0.1,0.3-0.3,0.7-0.5,1.2c-0.2,0.5-0.3,1.1-0.4,1.9c1.1-1.6,2.3-2.8,3.7-3.7
					c1.4-0.9,2.6-1.3,3.5-1.3c1.3,0,2.2,0.4,2.8,1.1c0.6,0.8,0.8,1.8,0.8,3c0.7-0.6,1.4-1.1,1.9-1.6c0.5-0.5,1.1-1,1.6-1.3
					c0.5-0.4,1-0.7,1.5-0.9c0.5-0.2,1.1-0.3,1.7-0.3c1,0,1.9,0.3,2.6,0.9c0.7,0.6,1.1,1.4,1.3,2.4c0.1,1-0.1,2.1-0.5,3.3
					c-0.5,1.2-1,2.3-1.5,3.5c-0.6,1.2-1.1,2.3-1.5,3.5c-0.5,1.1-0.6,2.2-0.5,3.2c0.1,0.5,0.3,1,0.6,1.2c0.4,0.3,1,0.4,1.8,0.4
					c0.6,0,1.2-0.2,1.8-0.7c0.6-0.4,1.3-1,1.9-1.6c0.6-0.6,1.1-1.2,1.6-1.9c0.5-0.6,0.8-1.1,1-1.5c0.1-0.1,0.2-0.1,0.3-0.1
					c0.2,0,0.3,0.1,0.3,0.2c0.1,0.1,0.1,0.2,0.1,0.4c0.1,0.7-0.1,1.4-0.6,2.3c-0.5,0.9-1.2,1.8-2.1,2.6c-0.9,0.8-1.9,1.6-3,2.1
					c-1.1,0.6-2.1,0.9-3,0.9c-1.2,0-2.2-0.3-3.1-0.8c-0.8-0.5-1.3-1.3-1.5-2.4c-0.1-0.9,0-1.8,0.4-3c0.4-1.1,0.8-2.3,1.3-3.4
					c0.5-1.2,0.9-2.3,1.3-3.5c0.4-1.1,0.5-2.2,0.4-3.1c0-0.3-0.2-0.5-0.5-0.6c-0.3-0.2-0.6-0.2-1.1-0.2c-0.8,0-1.6,0.3-2.3,0.8
					c-0.7,0.5-1.4,1.3-2,2.2c-0.6,0.9-1.2,1.9-1.7,3c-0.5,1.1-1,2.3-1.4,3.5c-0.4,1.2-0.8,2.4-1.1,3.5c-0.3,1.1-0.6,2.1-0.8,3
					c-0.1,0.4-0.2,0.7-0.3,0.9c-0.1,0.2-0.3,0.3-0.6,0.3c-0.5,0-0.9-0.1-1.4-0.3c-0.4-0.2-0.7-0.5-0.9-1c0-1.3,0.2-2.7,0.7-4
					c0.4-1.4,0.9-2.7,1.5-4c0.5-1.3,1-2.5,1.4-3.7c0.4-1.2,0.5-2.3,0.4-3.3c-0.1-0.3-0.3-0.6-0.8-0.8c-0.4-0.2-0.9-0.3-1.4-0.3
					c-0.9,0-1.6,0.3-2.4,0.8c-0.7,0.5-1.4,1.3-1.9,2.1c-0.6,0.9-1.1,1.8-1.5,2.9c-0.4,1.1-0.8,2.2-1.1,3.2c-0.3,1.1-0.6,2.1-0.8,3
					c-0.2,0.9-0.4,1.7-0.6,2.3c-0.1,0.3-0.2,0.7-0.3,1c-0.1,0.4-0.2,0.7-0.3,1c-0.1,0.3-0.3,0.6-0.5,0.8c-0.2,0.2-0.5,0.3-0.9,0.3
					c-0.1,0-0.1,0-0.2,0c-0.1,0-0.2-0.1-0.2-0.1c-0.5-0.2-0.8-0.8-0.9-1.8c0-0.3,0-0.9,0.1-1.7c0.1-0.8,0.2-1.6,0.3-2.4
					c0.1-0.8,0.2-1.6,0.4-2.4C316.3,80.7,316.4,80.1,316.5,79.8z"/>
				<path class="st1" d="M370.6,82.4c0,0.7-0.3,1.5-0.9,2.4c-0.5,0.9-1.2,1.7-2.1,2.5c-0.8,0.8-1.8,1.4-2.8,2
					c-1,0.5-2.1,0.8-3.1,0.8c-1.3,0-2.2-0.3-2.8-0.9c-0.5-0.6-0.9-1.7-1.1-3.3c-1,1.5-2,2.6-3.1,3.2c-1.1,0.6-2.1,0.9-3.1,0.9
					c-1.4,0-2.6-0.4-3.7-1.2c-1.1-0.8-1.7-1.9-1.8-3.3c-0.1-1.2-0.1-2.4,0.3-3.8c0.3-1.3,0.8-2.6,1.4-3.8c0.7-1.2,1.4-2.4,2.3-3.5
					c0.9-1.1,1.8-2.1,2.8-2.9c1-0.8,2-1.5,3.1-2c1-0.5,2-0.7,3-0.7c0.6,0,1.1,0.1,1.6,0.4c0.5,0.2,0.8,0.5,1.1,0.8l0.4-1.5
					c0.1-0.2,0.2-0.3,0.5-0.4c0.3,0,0.5-0.1,0.6-0.1c0.3,0,0.6,0,0.8,0.1c0.3,0.1,0.6,0.1,0.8,0.2c0.3,0.1,0.5,0.2,0.6,0.4
					c0.2,0.2,0.2,0.4,0.2,0.6c0,0.7-0.2,1.6-0.4,2.6c-0.3,1-0.6,2.1-1,3.3c-0.4,1.2-0.8,2.5-1.3,3.9c-0.5,1.4-0.9,2.9-1.4,4.5
					c-0.3,0.8-0.4,1.5-0.3,2c0.1,0.5,0.3,1,0.6,1.2c0.3,0.3,0.8,0.4,1.6,0.4c0.9,0,1.8-0.4,2.9-1.3c1-0.9,2-1.9,2.9-3.1l0.6-1.1
					c0,0,0.1-0.1,0.2-0.1c0.2,0,0.3,0.1,0.4,0.3C370.5,82,370.5,82.2,370.6,82.4z M353.3,86.9c1.3-0.1,2.4-0.7,3.2-1.7
					c0.8-1,1.5-2.3,2-3.9c0.4-1.7,0.9-3.4,1.4-4.9c0.5-1.6,0.9-3.1,1.3-4.7c-0.1-0.4-0.3-0.7-0.7-0.8c-0.3-0.2-0.8-0.2-1.4-0.2
					c-0.8,0-1.5,0.3-2.3,0.8c-0.8,0.5-1.5,1.2-2.1,2.1c-0.7,0.8-1.3,1.8-1.9,2.8c-0.6,1-1,2.1-1.4,3.1c-0.4,1-0.7,2-0.9,2.9
					c-0.2,0.9-0.2,1.7-0.2,2.3c0.1,0.8,0.4,1.4,0.9,1.8C351.7,86.7,352.4,86.9,353.3,86.9z"/>
			</g>
		</g>
	</g>
	<g>
		<g>
			<circle class="st1" cx="77.7" cy="230.8" r="20.3"/>
			<g>
				<g>
					<path class="st0" d="M79,214.8h2.8v27.6H79v-23.1l-6.6,6.5l-1.5-1.5L79,214.8z"/>
				</g>
			</g>
		</g>
		<g>
			<circle class="st1" cx="131.8" cy="230.8" r="20.3"/>
			<g>
				<g>
					<path class="st0" d="M123.3,240.6c0-1.2,0.3-2.3,0.8-3.3c0.6-1,1.2-1.9,2-2.7c0.8-0.8,1.9-1.8,3.3-2.9c0.9-0.7,1.3-1.1,1.4-1.1
						c1.8-1.5,3.1-2.9,4.1-4.4c1-1.4,1.5-3.1,1.5-4.9c0-1.3-0.4-2.3-1.3-3.1c-0.9-0.8-2-1.2-3.5-1.2c-1.3,0-2.5,0.3-3.6,1
						c-1.1,0.7-2.1,1.6-3.1,2.9l-2.2-1.9c1.1-1.5,2.4-2.6,4-3.5c1.6-0.8,3.2-1.3,4.9-1.3c2.4,0,4.3,0.6,5.7,1.9
						c1.4,1.3,2.1,3,2.1,5.2c0,2.3-0.6,4.3-1.9,6.1s-3.1,3.6-5.3,5.5c-0.6,0.5-0.8,0.7-0.8,0.7c-1.7,1.4-2.9,2.5-3.7,3.4
						c-0.8,0.9-1.2,1.8-1.2,2.7h13.4v2.8h-16.6V240.6z"/>
				</g>
			</g>
		</g>
		<g>
			<circle class="st1" cx="185.9" cy="230.8" r="20.3"/>
			<g>
				<g>
					<path class="st0" d="M192.9,230.3c0.9,1.3,1.4,2.8,1.4,4.5c0,1.6-0.4,3-1.2,4.2c-0.8,1.3-1.8,2.2-3.2,2.9
						c-1.3,0.7-2.8,1.1-4.4,1.1c-2,0-3.7-0.5-5.1-1.5c-1.4-1-2.5-2.4-3.2-4.1l2.4-1.4c0.6,1.4,1.5,2.5,2.5,3.3
						c1,0.8,2.2,1.2,3.5,1.2c1.6,0,2.9-0.5,4-1.6c1.1-1.1,1.6-2.4,1.6-4c0-1.7-0.5-3-1.6-4.1c-1.1-1.1-2.5-1.6-4.1-1.6h-1.9v-2.5
						h1.8c1.5,0,2.7-0.5,3.6-1.4c0.9-1,1.3-2.2,1.3-3.7c0-1.4-0.4-2.5-1.3-3.4c-0.8-0.9-1.9-1.3-3.3-1.3c-1.4,0-2.6,0.4-3.6,1.2
						c-1,0.8-1.8,1.9-2.5,3.3l-2.2-1.2c0.8-1.8,1.9-3.2,3.3-4.2c1.4-1,3.1-1.6,5-1.6c1.4,0,2.7,0.3,3.8,0.9c1.1,0.6,2,1.5,2.6,2.6
						c0.6,1.1,1,2.3,1,3.7c0,1.5-0.3,2.7-1,3.9c-0.7,1.1-1.6,1.9-2.9,2.4C190.7,228.2,191.9,229,192.9,230.3z"/>
				</g>
			</g>
		</g>
		<g>
			<circle class="st1" cx="240" cy="230.8" r="20.3"/>
			<g>
				<g>
					<path class="st0" d="M249.7,233.5v2.8h-3.5v6.1h-2.8v-6.1h-13.8v-2.8l13.8-18.7h2.8v18.7H249.7z M232.6,233.5h10.9v-14.4
						L232.6,233.5z"/>
				</g>
			</g>
		</g>
		<g>
			<circle class="st1" cx="294.2" cy="230.8" r="20.3"/>
			<g>
				<g>
					<path class="st0" d="M300.7,226.9c1.5,1.6,2.2,3.9,2.2,6.8c0,2.9-0.8,5.2-2.4,6.9s-3.8,2.5-6.6,2.5c-1.8,0-3.5-0.3-5.1-1
						c-1.6-0.6-2.8-1.5-3.8-2.7l2.1-1.5c0.7,0.8,1.6,1.5,2.8,1.9c1.2,0.5,2.5,0.7,4,0.7c1.9,0,3.5-0.6,4.5-1.8
						c1.1-1.2,1.6-2.9,1.6-5c0-2.1-0.6-3.7-1.6-4.9c-1.1-1.2-2.5-1.8-4.4-1.8c-1.2,0-2.4,0.2-3.8,0.6c-1.3,0.4-2.6,0.9-3.7,1.6
						v-14.4h14.8v2.8h-12.1v7.8c1.7-0.6,3.4-0.9,5-0.9C297.1,224.5,299.2,225.3,300.7,226.9z"/>
				</g>
			</g>
		</g>
		<g>
			<circle class="st1" cx="348.3" cy="230.8" r="20.3"/>
			<g>
				<g>
					<path class="st0" d="M352.7,224.9c1.4,0.8,2.5,2,3.3,3.5c0.8,1.5,1.2,3.1,1.2,5s-0.4,3.5-1.2,5c-0.8,1.5-1.9,2.6-3.3,3.5
						c-1.4,0.8-2.9,1.3-4.7,1.3c-1.7,0-3.3-0.5-4.7-1.4c-1.4-0.9-2.5-2.2-3.3-3.9c-0.8-1.7-1.2-3.6-1.2-5.7c0-3.9,0.7-7.2,2-9.9
						s3.2-4.7,5.5-6c2.3-1.3,4.9-2,7.8-2v2.6c-3.3,0-6,0.9-8.1,2.6c-2.1,1.7-3.5,4.2-4.1,7.4c0.6-1,1.4-1.8,2.6-2.3s2.3-0.8,3.5-0.8
						C349.7,223.6,351.3,224,352.7,224.9z M351.3,239.6c1-0.6,1.8-1.5,2.3-2.6c0.6-1.1,0.8-2.3,0.8-3.7s-0.3-2.6-0.8-3.7
						c-0.6-1.1-1.3-1.9-2.3-2.6c-1-0.6-2.1-0.9-3.3-0.9c-2,0-3.5,0.6-4.7,1.9c-1.1,1.3-1.7,2.9-1.7,4.8c0,1.5,0.3,2.8,0.8,3.9
						c0.6,1.2,1.3,2.1,2.3,2.7c1,0.6,2,1,3.2,1C349.2,240.5,350.3,240.2,351.3,239.6z"/>
				</g>
			</g>
		</g>
	</g>
	<g>
		<path class="st1" d="M143.6,143h2.6l-6.4,17.6H137l-6.4-17.6h2.7l5.2,14.9L143.6,143z"/>
		<path class="st1" d="M165,143v17.6h-2.6V158c-0.7,1-1.6,1.8-2.7,2.4c-1.1,0.6-2.2,0.8-3.5,0.8c-1.7,0-3.2-0.4-4.5-1.2
			c-1.3-0.8-2.4-1.9-3.1-3.4s-1.1-3.1-1.1-4.9c0-1.8,0.4-3.4,1.1-4.8c0.7-1.4,1.8-2.5,3.1-3.3c1.3-0.8,2.8-1.2,4.5-1.2
			c1.3,0,2.5,0.3,3.5,0.8c1.1,0.6,2,1.4,2.7,2.4V143H165z M159.4,157.9c0.9-0.6,1.7-1.4,2.2-2.5c0.5-1.1,0.8-2.3,0.8-3.7
			c0-1.4-0.3-2.6-0.8-3.7c-0.5-1.1-1.3-1.9-2.2-2.5c-0.9-0.6-2-0.9-3.2-0.9c-1.2,0-2.2,0.3-3.2,0.9c-0.9,0.6-1.7,1.4-2.2,2.5
			c-0.5,1.1-0.8,2.3-0.8,3.6c0,1.4,0.3,2.6,0.8,3.7c0.5,1.1,1.3,1.9,2.2,2.5c0.9,0.6,2,0.9,3.2,0.9
			C157.4,158.9,158.5,158.5,159.4,157.9z"/>
		<path class="st1" d="M169.9,160.6v-27.3h2.6v27.3H169.9z"/>
		<path class="st1" d="M192.8,143v17.6h-2.6v-2.9c-0.6,1.1-1.4,2-2.4,2.6c-1,0.6-2.1,0.9-3.4,0.9c-1.2,0-2.4-0.3-3.4-0.8
			c-1-0.5-1.9-1.2-2.5-2.2c-0.6-1-0.9-2.1-0.9-3.5V143h2.6v10.7c0,3.5,1.6,5.2,4.7,5.2c1.8,0,3.2-0.6,4.1-1.9c0.9-1.3,1.4-3,1.4-5.2
			V143H192.8z"/>
		<path class="st1" d="M209.5,143.5c1.3,0.8,2.3,1.8,3,3.2c0.7,1.3,1.1,2.8,1.1,4.5c0,0.5,0,0.8,0,1.1H199c0.1,1.8,0.7,3.4,1.8,4.6
			c1.1,1.3,2.5,1.9,4.4,1.9c1.5,0,2.8-0.3,3.7-0.8c1-0.6,1.8-1.3,2.4-2.4l2,1.4c-0.8,1.3-1.9,2.3-3.3,3.1c-1.4,0.7-3,1.1-4.8,1.1
			c-1.7,0-3.2-0.4-4.6-1.2c-1.3-0.8-2.4-1.9-3.1-3.4s-1.1-3-1.1-4.9c0-1.8,0.4-3.4,1.1-4.9c0.7-1.4,1.8-2.5,3.1-3.4
			c1.3-0.8,2.8-1.2,4.5-1.2C206.8,142.4,208.2,142.7,209.5,143.5z M211,150.2c-0.3-1.8-0.9-3.2-1.8-4.1c-1-0.9-2.3-1.4-4-1.4
			c-1.6,0-3,0.5-4,1.6c-1,1-1.7,2.4-2,3.9H211z"/>
		<path class="st1" d="M228.8,160c-1.3-0.8-2.4-1.9-3.1-3.4c-0.8-1.4-1.1-3-1.1-4.9c0-1.8,0.4-3.4,1.1-4.9c0.7-1.4,1.8-2.5,3.1-3.4
			c1.3-0.8,2.8-1.2,4.5-1.2c1.4,0,2.7,0.3,3.7,0.9c1.1,0.6,2,1.5,2.9,2.6l-1.9,1.5c-1.2-1.8-2.8-2.7-4.8-2.7c-1.2,0-2.2,0.3-3.2,0.9
			c-0.9,0.6-1.7,1.4-2.2,2.5c-0.5,1.1-0.8,2.3-0.8,3.7c0,1.4,0.3,2.6,0.8,3.7c0.5,1.1,1.3,1.9,2.2,2.5c0.9,0.6,2,0.9,3.2,0.9
			c1.2,0,2.2-0.2,3-0.6c0.8-0.4,1.5-1,2.1-1.8l2,1.4c-0.8,1-1.9,1.9-3.1,2.5c-1.2,0.6-2.5,0.9-3.9,0.9
			C231.7,161.2,230.1,160.8,228.8,160z"/>
		<path class="st1" d="M260.1,143v17.6h-2.6V158c-0.7,1-1.6,1.8-2.7,2.4c-1.1,0.6-2.2,0.8-3.5,0.8c-1.7,0-3.2-0.4-4.5-1.2
			c-1.3-0.8-2.4-1.9-3.1-3.4s-1.1-3.1-1.1-4.9c0-1.8,0.4-3.4,1.1-4.8c0.7-1.4,1.8-2.5,3.1-3.3c1.3-0.8,2.8-1.2,4.5-1.2
			c1.3,0,2.5,0.3,3.5,0.8c1.1,0.6,2,1.4,2.7,2.4V143H260.1z M254.5,157.9c0.9-0.6,1.7-1.4,2.2-2.5c0.5-1.1,0.8-2.3,0.8-3.7
			c0-1.4-0.3-2.6-0.8-3.7c-0.5-1.1-1.3-1.9-2.2-2.5c-0.9-0.6-2-0.9-3.2-0.9c-1.2,0-2.2,0.3-3.2,0.9c-0.9,0.6-1.7,1.4-2.2,2.5
			c-0.5,1.1-0.8,2.3-0.8,3.6c0,1.4,0.3,2.6,0.8,3.7c0.5,1.1,1.3,1.9,2.2,2.5c0.9,0.6,2,0.9,3.2,0.9
			C252.5,158.9,253.6,158.5,254.5,157.9z"/>
		<path class="st1" d="M275.2,142.6v2.3c-0.5-0.2-1.1-0.4-1.7-0.4c-1.1,0-2.1,0.3-3,0.9c-0.9,0.6-1.7,1.5-2.2,2.6
			c-0.6,1.1-0.8,2.5-0.8,4v8.4h-2.6V143h2.6v3.5c0.7-1.3,1.5-2.3,2.6-3c1-0.7,2.2-1.1,3.5-1.1C274.1,142.4,274.6,142.4,275.2,142.6z
			"/>
		<path class="st1" d="M293.6,133.2v27.3H291V158c-0.7,1-1.6,1.8-2.7,2.4c-1.1,0.6-2.2,0.8-3.5,0.8c-1.7,0-3.2-0.4-4.5-1.2
			c-1.3-0.8-2.4-1.9-3.1-3.4s-1.1-3.1-1.1-4.9c0-1.8,0.4-3.4,1.1-4.8c0.7-1.4,1.8-2.5,3.1-3.3c1.3-0.8,2.8-1.2,4.5-1.2
			c1.3,0,2.5,0.3,3.5,0.8c1.1,0.6,2,1.4,2.7,2.4v-12.3H293.6z M288,157.9c0.9-0.6,1.7-1.4,2.2-2.5c0.5-1.1,0.8-2.3,0.8-3.7
			c0-1.4-0.3-2.6-0.8-3.7c-0.5-1.1-1.3-1.9-2.2-2.5c-0.9-0.6-2-0.9-3.2-0.9c-1.2,0-2.2,0.3-3.2,0.9c-0.9,0.6-1.7,1.4-2.2,2.5
			c-0.5,1.1-0.8,2.3-0.8,3.6c0,1.4,0.3,2.6,0.8,3.7c0.5,1.1,1.3,1.9,2.2,2.5c0.9,0.6,2,0.9,3.2,0.9C286,158.9,287.1,158.5,288,157.9
			z"/>
	</g>
</g>
</svg>
